  0
SECTION
  2
HEADER
  9
$ACADVER
  1
AC1032
  9
$ACADMAINTVER
 90
      228
  9
$DWGCODEPAGE
  3
ANSI_1252
  9
$REQUIREDVERSIONS
160
                 0
  9
$INSBASE
 10
0.0
 20
0.0
 30
0.0
  9
$EXTMIN
 10
1.000000000000000E+20
 20
1.000000000000000E+20
 30
1.000000000000000E+20
  9
$EXTMAX
 10
-1.000000000000000E+20
 20
-1.000000000000000E+20
 30
-1.000000000000000E+20
  9
$LIMMIN
 10
0.0
 20
0.0
  9
$LIMMAX
 10
12.0
 20
9.0
  9
$ORTHOMODE
 70
     0
  9
$REGENMODE
 70
     1
  9
$FILLMODE
 70
     1
  9
$QTEXTMODE
 70
     0
  9
$MIRRTEXT
 70
     0
  9
$LTSCALE
 40
1.0
  9
$ATTMODE
 70
     1
  9
$TEXTSIZE
 40
0.2
  9
$TRACEWID
 40
0.05
  9
$TEXTSTYLE
  7
Standard
  9
$CLAYER
  8
0
  9
$CELTYPE
  6
ByLayer
  9
$CECOLOR
 62
   256
  9
$CELTSCALE
 40
1.0
  9
$DISPSILH
 70
     0
  9
$DIMSCALE
 40
1.0
  9
$DIMASZ
 40
0.18
  9
$DIMEXO
 40
0.0625
  9
$DIMDLI
 40
0.38
  9
$DIMRND
 40
0.0
  9
$DIMDLE
 40
0.0
  9
$DIMEXE
 40
0.18
  9
$DIMTP
 40
0.0
  9
$DIMTM
 40
0.0
  9
$DIMTXT
 40
0.18
  9
$DIMCEN
 40
0.09
  9
$DIMTSZ
 40
0.0
  9
$DIMTOL
 70
     0
  9
$DIMLIM
 70
     0
  9
$DIMTIH
 70
     1
  9
$DIMTOH
 70
     1
  9
$DIMSE1
 70
     0
  9
$DIMSE2
 70
     0
  9
$DIMTAD
 70
     0
  9
$DIMZIN
 70
     0
  9
$DIMBLK
  1

  9
$DIMASO
 70
     1
  9
$DIMSHO
 70
     1
  9
$DIMPOST
  1

  9
$DIMAPOST
  1

  9
$DIMALT
 70
     0
  9
$DIMALTD
 70
     2
  9
$DIMALTF
 40
25.4
  9
$DIMLFAC
 40
1.0
  9
$DIMTOFL
 70
     0
  9
$DIMTVP
 40
0.0
  9
$DIMTIX
 70
     0
  9
$DIMSOXD
 70
     0
  9
$DIMSAH
 70
     0
  9
$DIMBLK1
  1

  9
$DIMBLK2
  1

  9
$DIMSTYLE
  2
Standard
  9
$DIMCLRD
 70
     0
  9
$DIMCLRE
 70
     0
  9
$DIMCLRT
 70
     0
  9
$DIMTFAC
 40
1.0
  9
$DIMGAP
 40
0.09
  9
$DIMJUST
 70
     0
  9
$DIMSD1
 70
     0
  9
$DIMSD2
 70
     0
  9
$DIMTOLJ
 70
     1
  9
$DIMTZIN
 70
     0
  9
$DIMALTZ
 70
     0
  9
$DIMALTTZ
 70
     0
  9
$DIMUPT
 70
     0
  9
$DIMDEC
 70
     4
  9
$DIMTDEC
 70
     4
  9
$DIMALTU
 70
     2
  9
$DIMALTTD
 70
     2
  9
$DIMTXSTY
  7
Standard
  9
$DIMAUNIT
 70
     0
  9
$DIMADEC
 70
     0
  9
$DIMALTRND
 40
0.0
  9
$DIMAZIN
 70
     0
  9
$DIMDSEP
 70
    46
  9
$DIMATFIT
 70
     3
  9
$DIMFRAC
 70
     0
  9
$DIMLDRBLK
  1

  9
$DIMLUNIT
 70
     2
  9
$DIMLWD
 70
    -2
  9
$DIMLWE
 70
    -2
  9
$DIMTMOVE
 70
     0
  9
$DIMFXL
 40
1.0
  9
$DIMFXLON
 70
     0
  9
$DIMJOGANG
 40
0.7853981633974483
  9
$DIMTFILL
 70
     0
  9
$DIMTFILLCLR
 70
     0
  9
$DIMARCSYM
 70
     0
  9
$DIMLTYPE
  6

  9
$DIMLTEX1
  6

  9
$DIMLTEX2
  6

  9
$DIMTXTDIRECTION
 70
     0
  9
$LUNITS
 70
     2
  9
$LUPREC
 70
     4
  9
$SKETCHINC
 40
0.1
  9
$FILLETRAD
 40
0.0
  9
$AUNITS
 70
     0
  9
$AUPREC
 70
     0
  9
$MENU
  1
.
  9
$ELEVATION
 40
0.0
  9
$PELEVATION
 40
0.0
  9
$THICKNESS
 40
0.0
  9
$LIMCHECK
 70
     0
  9
$CHAMFERA
 40
0.0
  9
$CHAMFERB
 40
0.0
  9
$CHAMFERC
 40
0.0
  9
$CHAMFERD
 40
0.0
  9
$SKPOLY
 70
     0
  9
$TDCREATE
 40
2460727.563287037
  9
$TDUCREATE
 40
2460727.563287037
  9
$TDUPDATE
 40
2460727.563287037
  9
$TDUUPDATE
 40
2460727.563287037
  9
$TDINDWG
 40
0.0000000000
  9
$TDUSRTIMER
 40
0.0000000000
  9
$USRTIMER
 70
     1
  9
$ANGBASE
 50
0.0
  9
$ANGDIR
 70
     0
  9
$PDMODE
 70
     0
  9
$PDSIZE
 40
0.0
  9
$PLINEWID
 40
0.0
  9
$SPLFRAME
 70
     0
  9
$SPLINETYPE
 70
     6
  9
$SPLINESEGS
 70
     8
  9
$HANDSEED
  5
B4
  9
$SURFTAB1
 70
     6
  9
$SURFTAB2
 70
     6
  9
$SURFTYPE
 70
     6
  9
$SURFU
 70
     6
  9
$SURFV
 70
     6
  9
$UCSBASE
  2

  9
$UCSNAME
  2

  9
$UCSORG
 10
0.0
 20
0.0
 30
0.0
  9
$UCSXDIR
 10
1.0
 20
0.0
 30
0.0
  9
$UCSYDIR
 10
0.0
 20
1.0
 30
0.0
  9
$UCSORTHOREF
  2

  9
$UCSORTHOVIEW
 70
     0
  9
$UCSORGTOP
 10
0.0
 20
0.0
 30
0.0
  9
$UCSORGBOTTOM
 10
0.0
 20
0.0
 30
0.0
  9
$UCSORGLEFT
 10
0.0
 20
0.0
 30
0.0
  9
$UCSORGRIGHT
 10
0.0
 20
0.0
 30
0.0
  9
$UCSORGFRONT
 10
0.0
 20
0.0
 30
0.0
  9
$UCSORGBACK
 10
0.0
 20
0.0
 30
0.0
  9
$PUCSBASE
  2

  9
$PUCSNAME
  2

  9
$PUCSORG
 10
0.0
 20
0.0
 30
0.0
  9
$PUCSXDIR
 10
1.0
 20
0.0
 30
0.0
  9
$PUCSYDIR
 10
0.0
 20
1.0
 30
0.0
  9
$PUCSORTHOREF
  2

  9
$PUCSORTHOVIEW
 70
     0
  9
$PUCSORGTOP
 10
0.0
 20
0.0
 30
0.0
  9
$PUCSORGBOTTOM
 10
0.0
 20
0.0
 30
0.0
  9
$PUCSORGLEFT
 10
0.0
 20
0.0
 30
0.0
  9
$PUCSORGRIGHT
 10
0.0
 20
0.0
 30
0.0
  9
$PUCSORGFRONT
 10
0.0
 20
0.0
 30
0.0
  9
$PUCSORGBACK
 10
0.0
 20
0.0
 30
0.0
  9
$USERI1
 70
     0
  9
$USERI2
 70
     0
  9
$USERI3
 70
     0
  9
$USERI4
 70
     0
  9
$USERI5
 70
     0
  9
$USERR1
 40
0.0
  9
$USERR2
 40
0.0
  9
$USERR3
 40
0.0
  9
$USERR4
 40
0.0
  9
$USERR5
 40
0.0
  9
$WORLDVIEW
 70
     1
  9
$SHADEDGE
 70
     3
  9
$SHADEDIF
 70
    70
  9
$TILEMODE
 70
     1
  9
$MAXACTVP
 70
    64
  9
$PINSBASE
 10
0.0
 20
0.0
 30
0.0
  9
$PLIMCHECK
 70
     0
  9
$PEXTMIN
 10
1.000000000000000E+20
 20
1.000000000000000E+20
 30
1.000000000000000E+20
  9
$PEXTMAX
 10
-1.000000000000000E+20
 20
-1.000000000000000E+20
 30
-1.000000000000000E+20
  9
$PLIMMIN
 10
0.0
 20
0.0
  9
$PLIMMAX
 10
12.0
 20
9.0
  9
$UNITMODE
 70
     0
  9
$VISRETAIN
 70
     1
  9
$PLINEGEN
 70
     0
  9
$PSLTSCALE
 70
     1
  9
$TREEDEPTH
 70
  3020
  9
$CMLSTYLE
  2
Standard
  9
$CMLJUST
 70
     0
  9
$CMLSCALE
 40
1.0
  9
$PROXYGRAPHICS
 70
     1
  9
$MEASUREMENT
 70
     0
  9
$CELWEIGHT
370
    -1
  9
$ENDCAPS
280
     0
  9
$JOINSTYLE
280
     0
  9
$LWDISPLAY
290
     1
  9
$INSUNITS
 70
     4
  9
$HYPERLINKBASE
  1

  9
$STYLESHEET
  1

  9
$XEDIT
290
     1
  9
$CEPSNTYPE
380
     0
  9
$PSTYLEMODE
290
     1
  9
$FINGERPRINTGUID
  2
{3DDBA11A-6AB3-9546-9744-6E41EF469A8D}
  9
$VERSIONGUID
  2
{3875665D-37C3-E349-AAC9-DE3A2A090E9E}
  9
$EXTNAMES
290
     1
  9
$PSVPSCALE
 40
0.0
  9
$OLESTARTUP
290
     0
  9
$SORTENTS
280
   127
  9
$INDEXCTL
280
     0
  9
$HIDETEXT
280
     1
  9
$XCLIPFRAME
280
     2
  9
$HALOGAP
280
     0
  9
$OBSCOLOR
 70
   257
  9
$OBSLTYPE
280
     0
  9
$INTERSECTIONDISPLAY
280
     0
  9
$INTERSECTIONCOLOR
 70
   257
  9
$DIMASSOC
280
     2
  9
$PROJECTNAME
  1

  9
$CAMERADISPLAY
290
     0
  9
$LENSLENGTH
 40
50.0
  9
$CAMERAHEIGHT
 40
0.0
  9
$STEPSPERSEC
 40
2.0
  9
$STEPSIZE
 40
6.0
  9
$3DDWFPREC
 40
2.0
  9
$PSOLWIDTH
 40
0.25
  9
$PSOLHEIGHT
 40
4.0
  9
$LOFTANG1
 40
1.570796326794896
  9
$LOFTANG2
 40
1.570796326794896
  9
$LOFTMAG1
 40
0.0
  9
$LOFTMAG2
 40
0.0
  9
$LOFTPARAM
 70
     7
  9
$LOFTNORMALS
280
     1
  9
$LATITUDE
 40
37.795
  9
$LONGITUDE
 40
-122.394
  9
$NORTHDIRECTION
 40
0.0
  9
$TIMEZONE
 70
 -8000
  9
$LIGHTGLYPHDISPLAY
280
     1
  9
$TILEMODELIGHTSYNCH
280
     1
  9
$CMATERIAL
347
11
  9
$SOLIDHIST
280
     0
  9
$SHOWHIST
280
     1
  9
$DWFFRAME
280
     2
  9
$DGNFRAME
280
     0
  9
$REALWORLDSCALE
290
     1
  9
$INTERFERECOLOR
 62
     1
  9
$INTERFEREOBJVS
345
33
  9
$INTERFEREVPVS
346
30
  9
$CSHADOW
280
     0
  9
$SHADOWPLANELOCATION
 40
0.0
  0
ENDSEC
  0
SECTION
  2
CLASSES
  0
CLASS
  1
ACDBDICTIONARYWDFLT
  2
AcDbDictionaryWithDefault
  3
ObjectDBX Classes
 90
        0
 91
        1
280
     0
281
     0
  0
CLASS
  1
MATERIAL
  2
AcDbMaterial
  3
ObjectDBX Classes
 90
     1153
 91
        3
280
     0
281
     0
  0
CLASS
  1
VISUALSTYLE
  2
AcDbVisualStyle
  3
ObjectDBX Classes
 90
     4095
 91
       24
280
     0
281
     0
  0
CLASS
  1
SCALE
  2
AcDbScale
  3
ObjectDBX Classes
 90
     1153
 91
       17
280
     0
281
     0
  0
CLASS
  1
TABLESTYLE
  2
AcDbTableStyle
  3
ObjectDBX Classes
 90
     4095
 91
        1
280
     0
281
     0
  0
CLASS
  1
MLEADERSTYLE
  2
AcDbMLeaderStyle
  3
ACDB_MLEADERSTYLE_CLASS
 90
     4095
 91
        1
280
     0
281
     0
  0
CLASS
  1
ACDBSECTIONVIEWSTYLE
  2
AcDbSectionViewStyle
  3
ObjectDBX Classes
 90
     1025
 91
        1
280
     0
281
     0
  0
CLASS
  1
ACDBDETAILVIEWSTYLE
  2
AcDbDetailViewStyle
  3
ObjectDBX Classes
 90
     1025
 91
        1
280
     0
281
     0
  0
CLASS
  1
DICTIONARYVAR
  2
AcDbDictionaryVar
  3
ObjectDBX Classes
 90
        0
 91
        5
280
     0
281
     0
  0
CLASS
  1
CELLSTYLEMAP
  2
AcDbCellStyleMap
  3
ObjectDBX Classes
 90
     1152
 91
        1
280
     0
281
     0
  0
ENDSEC
  0
SECTION
  2
TABLES
  0
TABLE
  2
VPORT
  5
8
330
0
100
AcDbSymbolTable
 70
     1
  0
VPORT
  5
57
330
8
100
AcDbSymbolTableRecord
100
AcDbViewportTableRecord
  2
*Active
 70
     0
 10
0.0
 20
0.0
 11
1.0
 21
1.0
 12
0.0
 22
0.0
 13
0.0
 23
0.0
 14
1.0
 24
1.0
 15
0.0
 25
0.0
 16
0.0
 26
0.0
 36
1.0
 17
200.0000014758789
 27
149.9999957239476
 37
0.0
 40
305.9999912768532
 41
1.333333381181881
 42
50.0
 43
0.0
 44
0.0
 50
0.0
 51
0.0
 71
     0
 72
   100
 73
     1
 74
     1
 75
     0
 76
     0
 77
     0
 78
     0
281
     0
 65
     1
110
0.0
120
0.0
130
0.0
111
1.0
121
0.0
131
0.0
112
0.0
122
1.0
132
0.0
 79
     0
146
0.0
 60
     3
 61
     5
292
     1
282
     1
141
0.0
142
0.0
 63
   250
421
  3355443
  0
ENDTAB
  0
TABLE
  2
LTYPE
  5
5
330
0
100
AcDbSymbolTable
 70
     1
  0
LTYPE
  5
5B
330
5
100
AcDbSymbolTableRecord
100
AcDbLinetypeTableRecord
  2
ByBlock
 70
     0
  3

 72
    65
 73
     0
 40
0.0
  0
LTYPE
  5
5C
330
5
100
AcDbSymbolTableRecord
100
AcDbLinetypeTableRecord
  2
ByLayer
 70
     0
  3

 72
    65
 73
     0
 40
0.0
  0
LTYPE
  5
5D
330
5
100
AcDbSymbolTableRecord
100
AcDbLinetypeTableRecord
  2
Continuous
 70
     0
  3
Solid line
 72
    65
 73
     0
 40
0.0
  0
ENDTAB
  0
TABLE
  2
LAYER
  5
2
330
0
100
AcDbSymbolTable
 70
     2
  0
LAYER
  5
54
330
2
100
AcDbSymbolTableRecord
100
AcDbLayerTableRecord
  2
0
 70
     0
 62
     7
  6
Continuous
370
    -3
390
F
347
21
348
0
  0
LAYER
  5
78
330
2
100
AcDbSymbolTableRecord
100
AcDbLayerTableRecord
  2
svg1789
 70
     0
 62
     7
  6
Continuous
370
     0
390
F
347
21
348
0
  0
ENDTAB
  0
TABLE
  2
STYLE
  5
3
330
0
100
AcDbSymbolTable
 70
     2
  0
STYLE
  5
55
330
3
100
AcDbSymbolTableRecord
100
AcDbTextStyleTableRecord
  2
Standard
 70
     0
 40
0.0
 41
1.0
 50
0.0
 71
     0
 42
0.2
  3
txt
  4

  0
STYLE
  5
5A
330
3
100
AcDbSymbolTableRecord
100
AcDbTextStyleTableRecord
  2
Annotative
 70
     0
 40
0.0
 41
1.0
 50
0.0
 71
     0
 42
0.2
  3
txt
  4

1001
AcadAnnotative
1000
AnnotativeData
1002
{
1070
     1
1070
     1
1002
}
  0
ENDTAB
  0
TABLE
  2
VIEW
  5
6
330
0
100
AcDbSymbolTable
 70
     0
  0
ENDTAB
  0
TABLE
  2
UCS
  5
7
330
0
100
AcDbSymbolTable
 70
     0
  0
ENDTAB
  0
TABLE
  2
APPID
  5
9
330
0
100
AcDbSymbolTable
 70
     2
  0
APPID
  5
56
330
9
100
AcDbSymbolTableRecord
100
AcDbRegAppTableRecord
  2
ACAD
 70
     0
  0
APPID
  5
5E
330
9
100
AcDbSymbolTableRecord
100
AcDbRegAppTableRecord
  2
AcadAnnotative
 70
     0
  0
ENDTAB
  0
TABLE
  2
DIMSTYLE
  5
A
330
0
100
AcDbSymbolTable
 70
     2
100
AcDbDimStyleTable
 71
     0
  0
DIMSTYLE
105
58
330
A
100
AcDbSymbolTableRecord
100
AcDbDimStyleTableRecord
  2
Standard
 70
     0
340
55
  0
DIMSTYLE
105
59
330
A
100
AcDbSymbolTableRecord
100
AcDbDimStyleTableRecord
  2
Annotative
 70
     0
340
55
1001
AcadAnnotative
1000
AnnotativeData
1002
{
1070
     1
1070
     1
1002
}
  0
ENDTAB
  0
TABLE
  2
BLOCK_RECORD
  5
1
330
0
100
AcDbSymbolTable
 70
     4
  0
BLOCK_RECORD
  5
70
330
1
100
AcDbSymbolTableRecord
100
AcDbBlockTableRecord
  2
*Model_Space
340
73
 70
     0
280
     1
281
     0
  0
BLOCK_RECORD
  5
6C
330
1
100
AcDbSymbolTableRecord
100
AcDbBlockTableRecord
  2
*Paper_Space
340
6F
 70
     0
280
     1
281
     0
  0
BLOCK_RECORD
  5
74
330
1
100
AcDbSymbolTableRecord
100
AcDbBlockTableRecord
  2
*Paper_Space0
340
77
 70
     0
280
     1
281
     0
  0
BLOCK_RECORD
  5
79
330
1
100
AcDbSymbolTableRecord
100
AcDbBlockTableRecord
  2
Block_0
340
0
102
{BLKREFS
331
7A
102
}
 70
     0
280
     1
281
     0
  0
BLOCK_RECORD
  5
7E
330
1
100
AcDbSymbolTableRecord
100
AcDbBlockTableRecord
  2
Block_1
340
0
102
{BLKREFS
331
7F
102
}
 70
     0
280
     1
281
     0
  0
BLOCK_RECORD
  5
95
330
1
100
AcDbSymbolTableRecord
100
AcDbBlockTableRecord
  2
Block_2
340
0
102
{BLKREFS
331
96
102
}
 70
     0
280
     1
281
     0
  0
ENDTAB
  0
ENDSEC
  0
SECTION
  2
BLOCKS
  0
BLOCK
  5
71
330
70
100
AcDbEntity
  8
0
100
AcDbBlockBegin
  2
*Model_Space
 70
     0
 10
0.0
 20
0.0
 30
0.0
  3
*Model_Space
  1

  0
ENDBLK
  5
72
330
70
100
AcDbEntity
  8
0
100
AcDbBlockEnd
  0
BLOCK
  5
6D
330
6C
100
AcDbEntity
 67
     1
  8
0
100
AcDbBlockBegin
  2
*Paper_Space
 70
     0
 10
0.0
 20
0.0
 30
0.0
  3
*Paper_Space
  1

  0
ENDBLK
  5
6E
330
6C
100
AcDbEntity
 67
     1
  8
0
100
AcDbBlockEnd
  0
BLOCK
  5
75
330
74
100
AcDbEntity
 67
     1
  8
0
100
AcDbBlockBegin
  2
*Paper_Space0
 70
     0
 10
0.0
 20
0.0
 30
0.0
  3
*Paper_Space0
  1

  0
ENDBLK
  5
76
330
74
100
AcDbEntity
 67
     1
  8
0
100
AcDbBlockEnd
  0
BLOCK
  5
7B
330
79
100
AcDbEntity
  8
0
100
AcDbBlockBegin
  2
Block_0
 70
     0
 10
0.0
 20
0.0
 30
0.0
  3
Block_0
  1

  0
ENDBLK
  5
7C
330
79
100
AcDbEntity
  8
0
100
AcDbBlockEnd
  0
BLOCK
  5
80
330
7E
100
AcDbEntity
  8
0
100
AcDbBlockBegin
  2
Block_1
 70
     0
 10
0.0
 20
0.0
 30
0.0
  3
Block_1
  1

  0
MTEXT
  5
82
330
7E
100
AcDbEntity
  8
svg1789
100
AcDbMText
 10
269.0892167160393
 20
130.212642803276
 30
0.0
 40
0.2
 41
0.0
 46
0.0
 71
     7
 72
     1
  1
\C216;\c8388736;\FArial|b0|i0|c1;\H7.492976;\W1.000000;1. Add Name
 73
     1
 44
1.0
  0
MTEXT
  5
83
330
7E
100
AcDbEntity
  8
svg1789
100
AcDbMText
 10
269.0892167160393
 20
116.9834761399166
 30
0.0
 40
0.2
 41
0.0
 46
0.0
 71
     7
 72
     1
  1
\C216;\c8388736;\FArial|b0|i0|c1;\H7.492976;\W1.000000;2. Add icon (optional)
 73
     1
 44
1.0
  0
MTEXT
  5
84
330
7E
100
AcDbEntity
  8
svg1789
100
AcDbMText
 10
269.0892167160393
 20
103.7546539861058
 30
0.0
 40
0.2
 41
0.0
 46
0.0
 71
     7
 72
     1
  1
\C216;\c8388736;\FArial|b0|i0|c1;\H7.492976;\W1.000000;3. Change font
 73
     1
 44
1.0
  0
MTEXT
  5
85
330
7E
100
AcDbEntity
  8
svg1789
100
AcDbMText
 10
269.0892167160393
 20
90.52548732274644
 30
0.0
 40
0.2
 41
0.0
 46
0.0
 71
     7
 72
     1
  1
\C216;\c8388736;\FArial|b0|i0|c1;\H7.492976;\W1.000000;4. Object to Path
 73
     1
 44
1.0
  0
MTEXT
  5
86
330
7E
100
AcDbEntity
  8
svg1789
100
AcDbMText
 10
269.0892167160393
 20
77.29632065938706
 30
0.0
 40
0.2
 41
0.0
 46
0.0
 71
     7
 72
     1
  1
\C216;\c8388736;\FArial|b0|i0|c1;\H7.492976;\W1.000000;5. Reverse
 73
     1
 44
1.0
  0
MTEXT
  5
87
330
7E
100
AcDbEntity
  8
svg1789
100
AcDbMText
 10
269.0892167160393
 20
50.83798733266831
 30
0.0
 40
0.2
 41
0.0
 46
0.0
 71
     7
 72
     1
  1
\C216;\c8388736;\FArial|b0|i0|c1;\H7.492976;\W1.000000;Red = CUT
 73
     1
 44
1.0
  0
MTEXT
  5
88
330
7E
100
AcDbEntity
  8
svg1789
100
AcDbMText
 10
269.0892167160393
 20
37.60882066930894
 30
0.0
 40
0.2
 41
0.0
 46
0.0
 71
     7
 72
     1
  1
\C216;\c8388736;\FArial|b0|i0|c1;\H7.492976;\W1.000000;Black = Engrave
 73
     1
 44
1.0
  0
MTEXT
  5
89
330
7E
100
AcDbEntity
  8
svg1789
100
AcDbMText
 10
269.0892167160393
 20
24.37965400594956
 30
0.0
 40
0.2
 41
0.0
 46
0.0
 71
     7
 72
     1
  1
\C216;\c8388736;\FArial|b0|i0|c1;\H7.492976;\W1.000000;Purple = Instructions 
 73
     1
 44
1.0
  0
ENDBLK
  5
81
330
7E
100
AcDbEntity
  8
0
100
AcDbBlockEnd
  0
BLOCK
  5
97
330
95
100
AcDbEntity
  8
0
100
AcDbBlockBegin
  2
Block_2
 70
     0
 10
0.0
 20
0.0
 30
0.0
  3
Block_2
  1

  0
SPLINE
  5
99
330
95
100
AcDbEntity
  8
svg1789
100
AcDbSpline
210
0.0
220
0.0
230
1.0
 70
     9
 71
     3
 72
    47
 73
    43
 74
     0
 42
0.0000000001
 43
0.0000000001
 40
0.0
 40
0.0
 40
0.0
 40
0.0
 40
1.0
 40
1.0
 40
1.0
 40
2.0
 40
2.0
 40
2.0
 40
3.0
 40
3.0
 40
3.0
 40
4.0
 40
4.0
 40
4.0
 40
5.0
 40
5.0
 40
5.0
 40
6.0
 40
6.0
 40
6.0
 40
7.0
 40
7.0
 40
7.0
 40
8.0
 40
8.0
 40
8.0
 40
9.0
 40
9.0
 40
9.0
 40
10.0
 40
10.0
 40
10.0
 40
11.0
 40
11.0
 40
11.0
 40
12.0
 40
12.0
 40
12.0
 40
13.0
 40
13.0
 40
13.0
 40
14.0
 40
14.0
 40
14.0
 40
14.0
 10
206.4916309760062
 20
245.1065260352925
 30
0.0
 10
206.5198511496234
 20
244.7043623193043
 30
0.0
 10
206.5339652736533
 20
244.3974406799707
 30
0.0
 10
206.5339652736533
 20
244.1857772661755
 30
0.0
 10
206.526908211639
 20
243.974109815159
 30
0.0
 10
206.5233796806313
 20
243.7800850191802
 30
0.0
 10
206.5233796806313
 20
243.6036948037965
 30
0.0
 10
206.5233796806313
 20
243.4273086256335
 30
0.0
 10
206.5198511496234
 20
243.2332797924334
 30
0.0
 10
206.5127940876091
 20
243.0216123414169
 30
0.0
 10
206.5057370255948
 20
242.8099489276216
 30
0.0
 10
206.4880943705571
 20
242.5030313255086
 30
0.0
 10
206.4598741969398
 20
242.1008635722998
 30
0.0
 10
206.4598741969398
 20
242.1008635722998
 30
0.0
 10
206.7032943898021
 20
242.1008635722998
 30
0.0
 10
206.7032943898021
 20
242.1008635722998
 30
0.0
 10
206.7315145634193
 20
242.3266451473462
 30
0.0
 10
206.7667917990522
 20
242.5453656231564
 30
0.0
 10
206.8091260966994
 20
242.7570290369517
 30
0.0
 10
206.8444033323322
 20
242.9757535499831
 30
0.0
 10
206.9290719276266
 20
243.1521437653668
 30
0.0
 10
207.0631238081424
 20
243.286195645882
 30
0.0
 10
207.1901267010852
 20
243.4273086256335
 30
0.0
 10
207.4088471768954
 20
243.4978630968986
 30
0.0
 10
207.7192933100155
 20
243.4978630968986
 30
0.0
 10
207.7192933100155
 20
243.4978630968986
 30
0.0
 10
207.7192933100155
 20
243.7095305479151
 30
0.0
 10
207.7192933100155
 20
243.7095305479151
 30
0.0
 10
207.4864587101755
 20
243.7095305479151
 30
0.0
 10
207.3100725320125
 20
243.7553893393488
 30
0.0
 10
207.1901267010852
 20
243.8471149966587
 30
0.0
 10
207.0631238081424
 20
243.9458936787623
 30
0.0
 10
206.9714062252737
 20
244.0693680406973
 30
0.0
 10
206.9149578035967
 20
244.2175300080212
 30
0.0
 10
206.8585093819196
 20
244.3657000497875
 30
0.0
 10
206.8197036152802
 20
244.5173905481192
 30
0.0
 10
206.7985405036773
 20
244.6726136146793
 30
0.0
 10
206.7773773920743
 20
244.8348897060337
 30
0.0
 10
206.7562062060301
 20
244.979527179571
 30
0.0
 10
206.7350430944272
 20
245.1065300725132
 30
0.0
 10
206.7350430944272
 20
245.1065300725132
 30
0.0
 10
206.4916309760062
 20
245.1065260352925
 30
0.0
 10
206.4916309760062
 20
245.1065260352925
 30
0.0
  0
SPLINE
  5
9A
330
95
100
AcDbEntity
  8
svg1789
100
AcDbSpline
210
0.0
220
0.0
230
1.0
 70
    11
 71
     3
 72
    23
 73
    19
 74
     0
 42
0.0000000001
 43
0.0000000001
 40
0.0
 40
0.0
 40
0.0
 40
0.0
 40
1.0
 40
1.0
 40
1.0
 40
2.0
 40
2.0
 40
2.0
 40
3.0
 40
3.0
 40
3.0
 40
4.0
 40
4.0
 40
4.0
 40
5.0
 40
5.0
 40
5.0
 40
6.0
 40
6.0
 40
6.0
 40
6.0
 10
206.7985485781185
 20
243.7095265106938
 30
0.0
 10
206.7985485781185
 20
243.7095265106938
 30
0.0
 10
206.7985485781185
 20
243.674245237841
 30
0.0
 10
206.7985485781185
 20
243.6036948037965
 30
0.0
 10
206.7985485781185
 20
243.5331362953108
 30
0.0
 10
206.7985485781185
 20
243.4978630968986
 30
0.0
 10
206.7985485781185
 20
243.4978630968986
 30
0.0
 10
206.7985485781185
 20
243.4978630968986
 30
0.0
 10
208.7353003046703
 20
243.4978630968986
 30
0.0
 10
208.7353003046703
 20
243.4978630968986
 30
0.0
 10
208.7353003046703
 20
243.4978630968986
 30
0.0
 10
208.7353003046703
 20
243.5331362953108
 30
0.0
 10
208.7353003046703
 20
243.6036948037965
 30
0.0
 10
208.7353003046703
 20
243.674245237841
 30
0.0
 10
208.7353003046703
 20
243.7095265106938
 30
0.0
 10
208.7353003046703
 20
243.7095265106938
 30
0.0
 10
208.7353003046703
 20
243.7095265106938
 30
0.0
 10
206.7985485781185
 20
243.7095265106938
 30
0.0
 10
206.7985485781185
 20
243.7095265106938
 30
0.0
  0
SPLINE
  5
9B
330
95
100
AcDbEntity
  8
svg1789
100
AcDbSpline
210
0.0
220
0.0
230
1.0
 70
     9
 71
     3
 72
   143
 73
   139
 74
     0
 42
0.0000000001
 43
0.0000000001
 40
0.0
 40
0.0
 40
0.0
 40
0.0
 40
1.0
 40
1.0
 40
1.0
 40
2.0
 40
2.0
 40
2.0
 40
3.0
 40
3.0
 40
3.0
 40
4.0
 40
4.0
 40
4.0
 40
5.0
 40
5.0
 40
5.0
 40
6.0
 40
6.0
 40
6.0
 40
7.0
 40
7.0
 40
7.0
 40
8.0
 40
8.0
 40
8.0
 40
9.0
 40
9.0
 40
9.0
 40
10.0
 40
10.0
 40
10.0
 40
11.0
 40
11.0
 40
11.0
 40
12.0
 40
12.0
 40
12.0
 40
13.0
 40
13.0
 40
13.0
 40
14.0
 40
14.0
 40
14.0
 40
15.0
 40
15.0
 40
15.0
 40
16.0
 40
16.0
 40
16.0
 40
17.0
 40
17.0
 40
17.0
 40
18.0
 40
18.0
 40
18.0
 40
19.0
 40
19.0
 40
19.0
 40
20.0
 40
20.0
 40
20.0
 40
21.0
 40
21.0
 40
21.0
 40
22.0
 40
22.0
 40
22.0
 40
23.0
 40
23.0
 40
23.0
 40
24.0
 40
24.0
 40
24.0
 40
25.0
 40
25.0
 40
25.0
 40
26.0
 40
26.0
 40
26.0
 40
27.0
 40
27.0
 40
27.0
 40
28.0
 40
28.0
 40
28.0
 40
29.0
 40
29.0
 40
29.0
 40
30.0
 40
30.0
 40
30.0
 40
31.0
 40
31.0
 40
31.0
 40
32.0
 40
32.0
 40
32.0
 40
33.0
 40
33.0
 40
33.0
 40
34.0
 40
34.0
 40
34.0
 40
35.0
 40
35.0
 40
35.0
 40
36.0
 40
36.0
 40
36.0
 40
37.0
 40
37.0
 40
37.0
 40
38.0
 40
38.0
 40
38.0
 40
39.0
 40
39.0
 40
39.0
 40
40.0
 40
40.0
 40
40.0
 40
41.0
 40
41.0
 40
41.0
 40
42.0
 40
42.0
 40
42.0
 40
43.0
 40
43.0
 40
43.0
 40
44.0
 40
44.0
 40
44.0
 40
45.0
 40
45.0
 40
45.0
 40
46.0
 40
46.0
 40
46.0
 40
46.0
 10
204.9782141514874
 20
247.3290282151324
 30
0.0
 10
205.006434325106
 20
247.0820875657043
 30
0.0
 10
205.0275974367089
 20
246.8421959038499
 30
0.0
 10
205.0417115607375
 20
246.6093613040098
 30
0.0
 10
205.0487686227531
 20
246.3765267041697
 30
0.0
 10
205.0522971537609
 20
246.2001364887854
 30
0.0
 10
205.0522971537609
 20
246.0801946950795
 30
0.0
 10
205.0522971537609
 20
245.9531918021367
 30
0.0
 10
205.0487686227531
 20
245.8297255146436
 30
0.0
 10
205.0417115607375
 20
245.7097796837164
 30
0.0
 10
205.0346544987232
 20
245.5968909148041
 30
0.0
 10
205.0275974367089
 20
245.5016448009283
 30
0.0
 10
205.0205484491359
 20
245.4240292304276
 30
0.0
 10
205.0205484491359
 20
245.4240292304276
 30
0.0
 10
205.2639686419981
 20
245.4240292304276
 30
0.0
 10
205.2639686419981
 20
245.4240292304276
 30
0.0
 10
205.3062948652027
 20
245.840307070445
 30
0.0
 10
205.3662718178876
 20
246.1683877841603
 30
0.0
 10
205.4438833511676
 20
246.4082794460154
 30
0.0
 10
205.5214948844477
 20
246.6552241326648
 30
0.0
 10
205.6555467649635
 20
246.8280858170406
 30
0.0
 10
205.8460470671565
 20
246.9268644991442
 30
0.0
 10
206.0294903073338
 20
247.0326962060422
 30
0.0
 10
206.3081877358289
 20
247.0856160967121
 30
0.0
 10
206.6821312781991
 20
247.0856160967121
 30
0.0
 10
206.6821312781991
 20
247.0856160967121
 30
0.0
 10
207.560549786889
 20
247.0856160967121
 30
0.0
 10
207.560549786889
 20
247.0856160967121
 30
0.0
 10
207.8004414487446
 20
247.0856160967121
 30
0.0
 10
207.9838766144807
 20
247.0644449106672
 30
0.0
 10
208.1108795074222
 20
247.0221146502407
 30
0.0
 10
208.2308253383494
 20
246.9868333773872
 30
0.0
 10
208.311957328196
 20
246.9056973503207
 30
0.0
 10
208.3542997002845
 20
246.7786984945991
 30
0.0
 10
208.3966339979316
 20
246.6587526636719
 30
0.0
 10
208.4177971095346
 20
246.4682563986996
 30
0.0
 10
208.4177971095346
 20
246.2071975880216
 30
0.0
 10
208.4177971095346
 20
246.2071975880216
 30
0.0
 10
208.4177971095346
 20
240.9578657963654
 30
0.0
 10
208.4177971095346
 20
240.9578657963654
 30
0.0
 10
208.4177971095346
 20
240.7038640477018
 30
0.0
 10
208.3966339979316
 20
240.5133677827301
 30
0.0
 10
208.3542997002845
 20
240.3863648897873
 30
0.0
 10
208.3119734770785
 20
240.2593660340658
 30
0.0
 10
208.2308253383494
 20
240.1746974387714
 30
0.0
 10
208.1108795074222
 20
240.1323631411242
 30
0.0
 10
207.9838766144807
 20
240.0970859054914
 30
0.0
 10
207.8004414487446
 20
240.079447287675
 30
0.0
 10
207.560549786889
 20
240.079447287675
 30
0.0
 10
207.560549786889
 20
240.079447287675
 30
0.0
 10
206.7879629850964
 20
240.079447287675
 30
0.0
 10
206.7879629850964
 20
240.079447287675
 30
0.0
 10
206.3434649714617
 20
240.079447287675
 30
0.0
 10
206.0083271957308
 20
240.139416165918
 30
0.0
 10
205.782549657905
 20
240.2593619968458
 30
0.0
 10
205.5497150580662
 20
240.3793037905517
 30
0.0
 10
205.3839063984827
 20
240.5733326237518
 30
0.0
 10
205.285131753601
 20
240.8414444592241
 30
0.0
 10
205.1793000467025
 20
241.1166093194914
 30
0.0
 10
205.1016885134224
 20
241.4870243308539
 30
0.0
 10
205.0522971537609
 20
241.9526935305341
 30
0.0
 10
205.0522971537609
 20
241.9526935305341
 30
0.0
 10
204.8088769608987
 20
241.9526935305341
 30
0.0
 10
204.8088769608987
 20
241.9526935305341
 30
0.0
 10
204.8300481469429
 20
241.7621932283411
 30
0.0
 10
204.8406256655238
 20
241.5081914796781
 30
0.0
 10
204.8406256655238
 20
241.1906923217636
 30
0.0
 10
204.8406256655238
 20
241.0566364040278
 30
0.0
 10
204.837097134516
 20
240.8626075708271
 30
0.0
 10
204.8300400725004
 20
240.6086098593847
 30
0.0
 10
204.815934022913
 20
240.3616692099566
 30
0.0
 10
204.7947628368688
 20
240.1041389302857
 30
0.0
 10
204.7665426632502
 20
239.8360270948128
 30
0.0
 10
205.1263801560332
 20
239.8501371816214
 30
0.0
 10
205.5320724030285
 20
239.8571942436363
 30
0.0
 10
205.9836274786788
 20
239.8571942436363
 30
0.0
 10
206.4351825543291
 20
239.8642513056513
 30
0.0
 10
206.8373543447592
 20
239.8677757994378
 30
0.0
 10
207.1901267010852
 20
239.8677757994378
 30
0.0
 10
207.3453497676453
 20
239.8677757994378
 30
0.0
 10
207.546435662859
 20
239.8677757994378
 30
0.0
 10
207.7933763122878
 20
239.8677757994378
 30
0.0
 10
208.033259899701
 20
239.8677757994378
 30
0.0
 10
208.2943146731583
 20
239.8642513056513
 30
0.0
 10
208.5765406326612
 20
239.8571942436363
 30
0.0
 10
208.8587585177215
 20
239.8571942436363
 30
0.0
 10
209.1445130082309
 20
239.8536697498498
 30
0.0
 10
209.4337879553068
 20
239.8466126878349
 30
0.0
 10
209.723070976824
 20
239.8466126878349
 30
0.0
 10
209.9982398743113
 20
239.8430841568277
 30
0.0
 10
210.2592865733274
 20
239.836031132034
 30
0.0
 10
210.2592865733274
 20
239.836031132034
 30
0.0
 10
210.2592865733274
 20
240.0476985830499
 30
0.0
 10
210.2592865733274
 20
240.0476985830499
 30
0.0
 10
210.0194029859142
 20
240.0618127070798
 30
0.0
 10
209.8394802023022
 20
240.0900328806971
 30
0.0
 10
209.719534371375
 20
240.1323671783449
 30
0.0
 10
209.5925314784321
 20
240.174701475992
 30
0.0
 10
209.5078709575791
 20
240.259370071287
 30
0.0
 10
209.4655366599319
 20
240.3863689270086
 30
0.0
 10
209.423210436726
 20
240.5133718199507
 30
0.0
 10
209.4020392506818
 20
240.7038680849224
 30
0.0
 10
209.4020392506818
 20
240.9578698335861
 30
0.0
 10
209.4020392506818
 20
240.9578698335861
 30
0.0
 10
209.4020392506818
 20
246.2072016252423
 30
0.0
 10
209.4020392506818
 20
246.2072016252423
 30
0.0
 10
209.4020392506818
 20
246.4682563986996
 30
0.0
 10
209.423210436726
 20
246.6587526636719
 30
0.0
 10
209.4655366599319
 20
246.7787025318198
 30
0.0
 10
209.5078709575791
 20
246.9057013875413
 30
0.0
 10
209.5925314784321
 20
246.9903699828363
 30
0.0
 10
209.719534371375
 20
247.0327042804841
 30
0.0
 10
209.8394802023022
 20
247.0820916029256
 30
0.0
 10
210.019394911473
 20
247.1103158137641
 30
0.0
 10
210.2592865733274
 20
247.1173728757785
 30
0.0
 10
210.2592865733274
 20
247.1173728757785
 30
0.0
 10
210.2592865733274
 20
247.329040326795
 30
0.0
 10
210.2592865733274
 20
247.329040326795
 30
0.0
 10
209.9982237254275
 20
247.3219873020013
 30
0.0
 10
209.7230629023827
 20
247.3149302399857
 30
0.0
 10
209.4337879553068
 20
247.3078731779714
 30
0.0
 10
209.1445130082309
 20
247.3078731779714
 30
0.0
 10
208.8587585177215
 20
247.3043446469636
 30
0.0
 10
208.5765406326612
 20
247.2972916221699
 30
0.0
 10
208.2943146731583
 20
247.2972916221699
 30
0.0
 10
208.033259899701
 20
247.2972916221699
 30
0.0
 10
207.7933763122878
 20
247.2972916221699
 30
0.0
 10
207.546435662859
 20
247.2972916221699
 30
0.0
 10
207.3453497676453
 20
247.2972916221699
 30
0.0
 10
207.1901267010852
 20
247.2972916221699
 30
0.0
 10
206.8655664439352
 20
247.2972916221699
 30
0.0
 10
206.4986799635792
 20
247.2972916221699
 30
0.0
 10
206.0894591855761
 20
247.2972916221699
 30
0.0
 10
205.6731813455587
 20
247.3043446469636
 30
0.0
 10
205.3027663341962
 20
247.3149262027657
 30
0.0
 10
204.9782060770461
 20
247.329040326795
 30
0.0
 10
204.9782060770461
 20
247.329040326795
 30
0.0
 10
204.9782141514874
 20
247.3290282151324
 30
0.0
 10
204.9782141514874
 20
247.3290282151324
 30
0.0
  0
HATCH
  5
9C
330
95
100
AcDbEntity
  8
svg1789
 62
    18
420
        0
440
 33554687
100
AcDbHatch
 10
0.0
 20
0.0
 30
0.0
210
0.0
220
0.0
230
1.0
  2
SOLID
 70
     1
 71
     1
 91
        3
 92
        1
 93
        1
 72
     4
 94
        3
 73
     0
 74
     0
 95
       47
 96
       43
 40
0.0
 40
0.0
 40
0.0
 40
0.0
 40
1.0
 40
1.0
 40
1.0
 40
2.0
 40
2.0
 40
2.0
 40
3.0
 40
3.0
 40
3.0
 40
4.0
 40
4.0
 40
4.0
 40
5.0
 40
5.0
 40
5.0
 40
6.0
 40
6.0
 40
6.0
 40
7.0
 40
7.0
 40
7.0
 40
8.0
 40
8.0
 40
8.0
 40
9.0
 40
9.0
 40
9.0
 40
10.0
 40
10.0
 40
10.0
 40
11.0
 40
11.0
 40
11.0
 40
12.0
 40
12.0
 40
12.0
 40
13.0
 40
13.0
 40
13.0
 40
14.0
 40
14.0
 40
14.0
 40
14.0
 10
206.4916309760062
 20
245.1065260352925
 10
206.5198511496234
 20
244.7043623193043
 10
206.5339652736533
 20
244.3974406799707
 10
206.5339652736533
 20
244.1857772661755
 10
206.526908211639
 20
243.974109815159
 10
206.5233796806313
 20
243.7800850191802
 10
206.5233796806313
 20
243.6036948037965
 10
206.5233796806313
 20
243.4273086256335
 10
206.5198511496234
 20
243.2332797924334
 10
206.5127940876091
 20
243.0216123414169
 10
206.5057370255948
 20
242.8099489276216
 10
206.4880943705571
 20
242.5030313255086
 10
206.4598741969398
 20
242.1008635722998
 10
206.4598741969398
 20
242.1008635722998
 10
206.7032943898021
 20
242.1008635722998
 10
206.7032943898021
 20
242.1008635722998
 10
206.7315145634193
 20
242.3266451473462
 10
206.7667917990522
 20
242.5453656231564
 10
206.8091260966994
 20
242.7570290369517
 10
206.8444033323322
 20
242.9757535499831
 10
206.9290719276266
 20
243.1521437653668
 10
207.0631238081424
 20
243.286195645882
 10
207.1901267010852
 20
243.4273086256335
 10
207.4088471768954
 20
243.4978630968986
 10
207.7192933100155
 20
243.4978630968986
 10
207.7192933100155
 20
243.4978630968986
 10
207.7192933100155
 20
243.7095305479151
 10
207.7192933100155
 20
243.7095305479151
 10
207.4864587101755
 20
243.7095305479151
 10
207.3100725320125
 20
243.7553893393488
 10
207.1901267010852
 20
243.8471149966587
 10
207.0631238081424
 20
243.9458936787623
 10
206.9714062252737
 20
244.0693680406973
 10
206.9149578035967
 20
244.2175300080212
 10
206.8585093819196
 20
244.3657000497875
 10
206.8197036152802
 20
244.5173905481192
 10
206.7985405036773
 20
244.6726136146793
 10
206.7773773920743
 20
244.8348897060337
 10
206.7562062060301
 20
244.979527179571
 10
206.7350430944272
 20
245.1065300725132
 10
206.7350430944272
 20
245.1065300725132
 10
206.4916309760062
 20
245.1065260352925
 10
206.4916309760062
 20
245.1065260352925
 97
        0
 97
        1
330
99
 92
        1
 93
        1
 72
     4
 94
        3
 73
     0
 74
     0
 95
       23
 96
       19
 40
0.0
 40
0.0
 40
0.0
 40
0.0
 40
1.0
 40
1.0
 40
1.0
 40
2.0
 40
2.0
 40
2.0
 40
3.0
 40
3.0
 40
3.0
 40
4.0
 40
4.0
 40
4.0
 40
5.0
 40
5.0
 40
5.0
 40
6.0
 40
6.0
 40
6.0
 40
6.0
 10
206.7985485781185
 20
243.7095265106938
 10
206.7985485781185
 20
243.7095265106938
 10
206.7985485781185
 20
243.674245237841
 10
206.7985485781185
 20
243.6036948037965
 10
206.7985485781185
 20
243.5331362953108
 10
206.7985485781185
 20
243.4978630968986
 10
206.7985485781185
 20
243.4978630968986
 10
206.7985485781185
 20
243.4978630968986
 10
208.7353003046703
 20
243.4978630968986
 10
208.7353003046703
 20
243.4978630968986
 10
208.7353003046703
 20
243.4978630968986
 10
208.7353003046703
 20
243.5331362953108
 10
208.7353003046703
 20
243.6036948037965
 10
208.7353003046703
 20
243.674245237841
 10
208.7353003046703
 20
243.7095265106938
 10
208.7353003046703
 20
243.7095265106938
 10
208.7353003046703
 20
243.7095265106938
 10
206.7985485781185
 20
243.7095265106938
 10
206.7985485781185
 20
243.7095265106938
 97
        0
 97
        1
330
9A
 92
        1
 93
        1
 72
     4
 94
        3
 73
     0
 74
     0
 95
      143
 96
      139
 40
0.0
 40
0.0
 40
0.0
 40
0.0
 40
1.0
 40
1.0
 40
1.0
 40
2.0
 40
2.0
 40
2.0
 40
3.0
 40
3.0
 40
3.0
 40
4.0
 40
4.0
 40
4.0
 40
5.0
 40
5.0
 40
5.0
 40
6.0
 40
6.0
 40
6.0
 40
7.0
 40
7.0
 40
7.0
 40
8.0
 40
8.0
 40
8.0
 40
9.0
 40
9.0
 40
9.0
 40
10.0
 40
10.0
 40
10.0
 40
11.0
 40
11.0
 40
11.0
 40
12.0
 40
12.0
 40
12.0
 40
13.0
 40
13.0
 40
13.0
 40
14.0
 40
14.0
 40
14.0
 40
15.0
 40
15.0
 40
15.0
 40
16.0
 40
16.0
 40
16.0
 40
17.0
 40
17.0
 40
17.0
 40
18.0
 40
18.0
 40
18.0
 40
19.0
 40
19.0
 40
19.0
 40
20.0
 40
20.0
 40
20.0
 40
21.0
 40
21.0
 40
21.0
 40
22.0
 40
22.0
 40
22.0
 40
23.0
 40
23.0
 40
23.0
 40
24.0
 40
24.0
 40
24.0
 40
25.0
 40
25.0
 40
25.0
 40
26.0
 40
26.0
 40
26.0
 40
27.0
 40
27.0
 40
27.0
 40
28.0
 40
28.0
 40
28.0
 40
29.0
 40
29.0
 40
29.0
 40
30.0
 40
30.0
 40
30.0
 40
31.0
 40
31.0
 40
31.0
 40
32.0
 40
32.0
 40
32.0
 40
33.0
 40
33.0
 40
33.0
 40
34.0
 40
34.0
 40
34.0
 40
35.0
 40
35.0
 40
35.0
 40
36.0
 40
36.0
 40
36.0
 40
37.0
 40
37.0
 40
37.0
 40
38.0
 40
38.0
 40
38.0
 40
39.0
 40
39.0
 40
39.0
 40
40.0
 40
40.0
 40
40.0
 40
41.0
 40
41.0
 40
41.0
 40
42.0
 40
42.0
 40
42.0
 40
43.0
 40
43.0
 40
43.0
 40
44.0
 40
44.0
 40
44.0
 40
45.0
 40
45.0
 40
45.0
 40
46.0
 40
46.0
 40
46.0
 40
46.0
 10
204.9782141514874
 20
247.3290282151324
 10
205.006434325106
 20
247.0820875657043
 10
205.0275974367089
 20
246.8421959038499
 10
205.0417115607375
 20
246.6093613040098
 10
205.0487686227531
 20
246.3765267041697
 10
205.0522971537609
 20
246.2001364887854
 10
205.0522971537609
 20
246.0801946950795
 10
205.0522971537609
 20
245.9531918021367
 10
205.0487686227531
 20
245.8297255146436
 10
205.0417115607375
 20
245.7097796837164
 10
205.0346544987232
 20
245.5968909148041
 10
205.0275974367089
 20
245.5016448009283
 10
205.0205484491359
 20
245.4240292304276
 10
205.0205484491359
 20
245.4240292304276
 10
205.2639686419981
 20
245.4240292304276
 10
205.2639686419981
 20
245.4240292304276
 10
205.3062948652027
 20
245.840307070445
 10
205.3662718178876
 20
246.1683877841603
 10
205.4438833511676
 20
246.4082794460154
 10
205.5214948844477
 20
246.6552241326648
 10
205.6555467649635
 20
246.8280858170406
 10
205.8460470671565
 20
246.9268644991442
 10
206.0294903073338
 20
247.0326962060422
 10
206.3081877358289
 20
247.0856160967121
 10
206.6821312781991
 20
247.0856160967121
 10
206.6821312781991
 20
247.0856160967121
 10
207.560549786889
 20
247.0856160967121
 10
207.560549786889
 20
247.0856160967121
 10
207.8004414487446
 20
247.0856160967121
 10
207.9838766144807
 20
247.0644449106672
 10
208.1108795074222
 20
247.0221146502407
 10
208.2308253383494
 20
246.9868333773872
 10
208.311957328196
 20
246.9056973503207
 10
208.3542997002845
 20
246.7786984945991
 10
208.3966339979316
 20
246.6587526636719
 10
208.4177971095346
 20
246.4682563986996
 10
208.4177971095346
 20
246.2071975880216
 10
208.4177971095346
 20
246.2071975880216
 10
208.4177971095346
 20
240.9578657963654
 10
208.4177971095346
 20
240.9578657963654
 10
208.4177971095346
 20
240.7038640477018
 10
208.3966339979316
 20
240.5133677827301
 10
208.3542997002845
 20
240.3863648897873
 10
208.3119734770785
 20
240.2593660340658
 10
208.2308253383494
 20
240.1746974387714
 10
208.1108795074222
 20
240.1323631411242
 10
207.9838766144807
 20
240.0970859054914
 10
207.8004414487446
 20
240.079447287675
 10
207.560549786889
 20
240.079447287675
 10
207.560549786889
 20
240.079447287675
 10
206.7879629850964
 20
240.079447287675
 10
206.7879629850964
 20
240.079447287675
 10
206.3434649714617
 20
240.079447287675
 10
206.0083271957308
 20
240.139416165918
 10
205.782549657905
 20
240.2593619968458
 10
205.5497150580662
 20
240.3793037905517
 10
205.3839063984827
 20
240.5733326237518
 10
205.285131753601
 20
240.8414444592241
 10
205.1793000467025
 20
241.1166093194914
 10
205.1016885134224
 20
241.4870243308539
 10
205.0522971537609
 20
241.9526935305341
 10
205.0522971537609
 20
241.9526935305341
 10
204.8088769608987
 20
241.9526935305341
 10
204.8088769608987
 20
241.9526935305341
 10
204.8300481469429
 20
241.7621932283411
 10
204.8406256655238
 20
241.5081914796781
 10
204.8406256655238
 20
241.1906923217636
 10
204.8406256655238
 20
241.0566364040278
 10
204.837097134516
 20
240.8626075708271
 10
204.8300400725004
 20
240.6086098593847
 10
204.815934022913
 20
240.3616692099566
 10
204.7947628368688
 20
240.1041389302857
 10
204.7665426632502
 20
239.8360270948128
 10
205.1263801560332
 20
239.8501371816214
 10
205.5320724030285
 20
239.8571942436363
 10
205.9836274786788
 20
239.8571942436363
 10
206.4351825543291
 20
239.8642513056513
 10
206.8373543447592
 20
239.8677757994378
 10
207.1901267010852
 20
239.8677757994378
 10
207.3453497676453
 20
239.8677757994378
 10
207.546435662859
 20
239.8677757994378
 10
207.7933763122878
 20
239.8677757994378
 10
208.033259899701
 20
239.8677757994378
 10
208.2943146731583
 20
239.8642513056513
 10
208.5765406326612
 20
239.8571942436363
 10
208.8587585177215
 20
239.8571942436363
 10
209.1445130082309
 20
239.8536697498498
 10
209.4337879553068
 20
239.8466126878349
 10
209.723070976824
 20
239.8466126878349
 10
209.9982398743113
 20
239.8430841568277
 10
210.2592865733274
 20
239.836031132034
 10
210.2592865733274
 20
239.836031132034
 10
210.2592865733274
 20
240.0476985830499
 10
210.2592865733274
 20
240.0476985830499
 10
210.0194029859142
 20
240.0618127070798
 10
209.8394802023022
 20
240.0900328806971
 10
209.719534371375
 20
240.1323671783449
 10
209.5925314784321
 20
240.174701475992
 10
209.5078709575791
 20
240.259370071287
 10
209.4655366599319
 20
240.3863689270086
 10
209.423210436726
 20
240.5133718199507
 10
209.4020392506818
 20
240.7038680849224
 10
209.4020392506818
 20
240.9578698335861
 10
209.4020392506818
 20
240.9578698335861
 10
209.4020392506818
 20
246.2072016252423
 10
209.4020392506818
 20
246.2072016252423
 10
209.4020392506818
 20
246.4682563986996
 10
209.423210436726
 20
246.6587526636719
 10
209.4655366599319
 20
246.7787025318198
 10
209.5078709575791
 20
246.9057013875413
 10
209.5925314784321
 20
246.9903699828363
 10
209.719534371375
 20
247.0327042804841
 10
209.8394802023022
 20
247.0820916029256
 10
210.019394911473
 20
247.1103158137641
 10
210.2592865733274
 20
247.1173728757785
 10
210.2592865733274
 20
247.1173728757785
 10
210.2592865733274
 20
247.329040326795
 10
210.2592865733274
 20
247.329040326795
 10
209.9982237254275
 20
247.3219873020013
 10
209.7230629023827
 20
247.3149302399857
 10
209.4337879553068
 20
247.3078731779714
 10
209.1445130082309
 20
247.3078731779714
 10
208.8587585177215
 20
247.3043446469636
 10
208.5765406326612
 20
247.2972916221699
 10
208.2943146731583
 20
247.2972916221699
 10
208.033259899701
 20
247.2972916221699
 10
207.7933763122878
 20
247.2972916221699
 10
207.546435662859
 20
247.2972916221699
 10
207.3453497676453
 20
247.2972916221699
 10
207.1901267010852
 20
247.2972916221699
 10
206.8655664439352
 20
247.2972916221699
 10
206.4986799635792
 20
247.2972916221699
 10
206.0894591855761
 20
247.2972916221699
 10
205.6731813455587
 20
247.3043446469636
 10
205.3027663341962
 20
247.3149262027657
 10
204.9782060770461
 20
247.329040326795
 10
204.9782060770461
 20
247.329040326795
 10
204.9782141514874
 20
247.3290282151324
 10
204.9782141514874
 20
247.3290282151324
 97
        0
 97
        1
330
9B
 75
     2
 76
     1
 98
        1
 10
0.0
 20
0.0
450
        0
451
        0
460
0.0
461
0.0
452
        0
462
0.0
453
        0
470

  0
SPLINE
  5
9D
330
95
100
AcDbEntity
  8
svg1789
100
AcDbSpline
210
0.0
220
0.0
230
1.0
 70
    11
 71
     3
 72
    77
 73
    73
 74
     0
 42
0.0000000001
 43
0.0000000001
 40
0.0
 40
0.0
 40
0.0
 40
0.0
 40
1.0
 40
1.0
 40
1.0
 40
2.0
 40
2.0
 40
2.0
 40
3.0
 40
3.0
 40
3.0
 40
4.0
 40
4.0
 40
4.0
 40
5.0
 40
5.0
 40
5.0
 40
6.0
 40
6.0
 40
6.0
 40
7.0
 40
7.0
 40
7.0
 40
8.0
 40
8.0
 40
8.0
 40
9.0
 40
9.0
 40
9.0
 40
10.0
 40
10.0
 40
10.0
 40
11.0
 40
11.0
 40
11.0
 40
12.0
 40
12.0
 40
12.0
 40
13.0
 40
13.0
 40
13.0
 40
14.0
 40
14.0
 40
14.0
 40
15.0
 40
15.0
 40
15.0
 40
16.0
 40
16.0
 40
16.0
 40
17.0
 40
17.0
 40
17.0
 40
18.0
 40
18.0
 40
18.0
 40
19.0
 40
19.0
 40
19.0
 40
20.0
 40
20.0
 40
20.0
 40
21.0
 40
21.0
 40
21.0
 40
22.0
 40
22.0
 40
22.0
 40
23.0
 40
23.0
 40
23.0
 40
24.0
 40
24.0
 40
24.0
 40
24.0
 10
202.2477205859826
 20
247.0432777618437
 30
0.0
 10
202.2477205859826
 20
247.0432777618437
 30
0.0
 10
202.2477205859826
 20
245.2758632258818
 30
0.0
 10
202.2477205859826
 20
245.2758632258818
 30
0.0
 10
202.2477205859826
 20
245.2758632258818
 30
0.0
 10
200.6813838707946
 20
245.2758632258818
 30
0.0
 10
200.6813838707946
 20
245.2758632258818
 30
0.0
 10
200.6813838707946
 20
245.2758632258818
 30
0.0
 10
200.6813838707946
 20
245.064195774866
 30
0.0
 10
200.6813838707946
 20
245.064195774866
 30
0.0
 10
200.6813838707946
 20
245.064195774866
 30
0.0
 10
202.2477205859826
 20
245.064195774866
 30
0.0
 10
202.2477205859826
 20
245.064195774866
 30
0.0
 10
202.2477205859826
 20
245.064195774866
 30
0.0
 10
202.2477205859826
 20
240.9684473521669
 30
0.0
 10
202.2477205859826
 20
240.9684473521669
 30
0.0
 10
202.2477205859826
 20
240.6368340702232
 30
0.0
 10
202.1877517077403
 20
240.4039994703831
 30
0.0
 10
202.0678058768131
 20
240.2699475898679
 30
0.0
 10
201.9478600458846
 20
240.1358916721314
 30
0.0
 10
201.782059460745
 20
240.0688697690941
 30
0.0
 10
201.5703879725078
 20
240.0688657318735
 30
0.0
 10
201.3587164842707
 20
240.0688697690941
 30
0.0
 10
201.1752732440921
 20
240.1535302899472
 30
0.0
 10
201.0200582519745
 20
240.3228674805371
 30
0.0
 10
200.8648351854145
 20
240.4992576959215
 30
0.0
 10
200.7307833048986
 20
240.7920652112252
 30
0.0
 10
200.6178945359857
 20
241.2012859892276
 30
0.0
 10
200.6178945359857
 20
241.2012859892276
 30
0.0
 10
200.4062311221911
 20
241.148370135779
 30
0.0
 10
200.4062311221911
 20
241.148370135779
 30
0.0
 10
200.4767855934555
 20
240.7391453205553
 30
0.0
 10
200.6179026104283
 20
240.3934219518029
 30
0.0
 10
200.8295660242229
 20
240.1112040667419
 30
0.0
 10
201.0341723760045
 20
239.8289821444603
 30
0.0
 10
201.3516755711389
 20
239.6878691647095
 30
0.0
 10
201.7820675351862
 20
239.6878691647095
 30
0.0
 10
202.0219511225994
 20
239.6878691647095
 30
0.0
 10
202.2195084868066
 20
239.7196219065552
 30
0.0
 10
202.3747315533667
 20
239.7831193158054
 30
0.0
 10
202.5299546199267
 20
239.8395637002618
 30
0.0
 10
202.6675350314492
 20
239.9242322955568
 30
0.0
 10
202.7874808623777
 20
240.037121064469
 30
0.0
 10
202.9427039289377
 20
240.199401193044
 30
0.0
 10
203.0520641668428
 20
240.3934300262442
 30
0.0
 10
203.1155615760929
 20
240.6192035268487
 30
0.0
 10
203.17200999777
 20
240.8449851018945
 30
0.0
 10
203.2002301713873
 20
241.1448416047712
 30
0.0
 10
203.2002301713873
 20
241.5187851471415
 30
0.0
 10
203.2002301713873
 20
241.5187851471415
 30
0.0
 10
203.2002301713873
 20
245.0641998120866
 30
0.0
 10
203.2002301713873
 20
245.0641998120866
 30
0.0
 10
203.2002301713873
 20
245.0641998120866
 30
0.0
 10
204.2162290916008
 20
245.0641998120866
 30
0.0
 10
204.2162290916008
 20
245.0641998120866
 30
0.0
 10
204.2162290916008
 20
245.0641998120866
 30
0.0
 10
204.2162290916008
 20
245.2758672631031
 30
0.0
 10
204.2162290916008
 20
245.2758672631031
 30
0.0
 10
204.2162290916008
 20
245.2758672631031
 30
0.0
 10
203.2002301713873
 20
245.2758672631031
 30
0.0
 10
203.2002301713873
 20
245.2758672631031
 30
0.0
 10
203.2002301713873
 20
245.2758672631031
 30
0.0
 10
203.2002301713873
 20
246.8951157945192
 30
0.0
 10
203.2002301713873
 20
246.8951157945192
 30
0.0
 10
203.0238439932243
 20
246.9021728565341
 30
0.0
 10
202.8545068026343
 20
246.9162789061221
 30
0.0
 10
202.6922266740599
 20
246.9374500921663
 30
0.0
 10
202.5299465454855
 20
246.9586172409906
 30
0.0
 10
202.3817805409398
 20
246.9938904394022
 30
0.0
 10
202.2477286604252
 20
247.0432817990643
 30
0.0
 10
202.2477286604252
 20
247.0432817990643
 30
0.0
 10
202.2477205859826
 20
247.0432777618437
 30
0.0
 10
202.2477205859826
 20
247.0432777618437
 30
0.0
  0
HATCH
  5
9E
330
95
100
AcDbEntity
  8
svg1789
 62
    18
420
        0
440
 33554687
100
AcDbHatch
 10
0.0
 20
0.0
 30
0.0
210
0.0
220
0.0
230
1.0
  2
SOLID
 70
     1
 71
     1
 91
        1
 92
        1
 93
        1
 72
     4
 94
        3
 73
     0
 74
     0
 95
       77
 96
       73
 40
0.0
 40
0.0
 40
0.0
 40
0.0
 40
1.0
 40
1.0
 40
1.0
 40
2.0
 40
2.0
 40
2.0
 40
3.0
 40
3.0
 40
3.0
 40
4.0
 40
4.0
 40
4.0
 40
5.0
 40
5.0
 40
5.0
 40
6.0
 40
6.0
 40
6.0
 40
7.0
 40
7.0
 40
7.0
 40
8.0
 40
8.0
 40
8.0
 40
9.0
 40
9.0
 40
9.0
 40
10.0
 40
10.0
 40
10.0
 40
11.0
 40
11.0
 40
11.0
 40
12.0
 40
12.0
 40
12.0
 40
13.0
 40
13.0
 40
13.0
 40
14.0
 40
14.0
 40
14.0
 40
15.0
 40
15.0
 40
15.0
 40
16.0
 40
16.0
 40
16.0
 40
17.0
 40
17.0
 40
17.0
 40
18.0
 40
18.0
 40
18.0
 40
19.0
 40
19.0
 40
19.0
 40
20.0
 40
20.0
 40
20.0
 40
21.0
 40
21.0
 40
21.0
 40
22.0
 40
22.0
 40
22.0
 40
23.0
 40
23.0
 40
23.0
 40
24.0
 40
24.0
 40
24.0
 40
24.0
 10
202.2477205859826
 20
247.0432777618437
 10
202.2477205859826
 20
247.0432777618437
 10
202.2477205859826
 20
245.2758632258818
 10
202.2477205859826
 20
245.2758632258818
 10
202.2477205859826
 20
245.2758632258818
 10
200.6813838707946
 20
245.2758632258818
 10
200.6813838707946
 20
245.2758632258818
 10
200.6813838707946
 20
245.2758632258818
 10
200.6813838707946
 20
245.064195774866
 10
200.6813838707946
 20
245.064195774866
 10
200.6813838707946
 20
245.064195774866
 10
202.2477205859826
 20
245.064195774866
 10
202.2477205859826
 20
245.064195774866
 10
202.2477205859826
 20
245.064195774866
 10
202.2477205859826
 20
240.9684473521669
 10
202.2477205859826
 20
240.9684473521669
 10
202.2477205859826
 20
240.6368340702232
 10
202.1877517077403
 20
240.4039994703831
 10
202.0678058768131
 20
240.2699475898679
 10
201.9478600458846
 20
240.1358916721314
 10
201.782059460745
 20
240.0688697690941
 10
201.5703879725078
 20
240.0688657318735
 10
201.3587164842707
 20
240.0688697690941
 10
201.1752732440921
 20
240.1535302899472
 10
201.0200582519745
 20
240.3228674805371
 10
200.8648351854145
 20
240.4992576959215
 10
200.7307833048986
 20
240.7920652112252
 10
200.6178945359857
 20
241.2012859892276
 10
200.6178945359857
 20
241.2012859892276
 10
200.4062311221911
 20
241.148370135779
 10
200.4062311221911
 20
241.148370135779
 10
200.4767855934555
 20
240.7391453205553
 10
200.6179026104283
 20
240.3934219518029
 10
200.8295660242229
 20
240.1112040667419
 10
201.0341723760045
 20
239.8289821444603
 10
201.3516755711389
 20
239.6878691647095
 10
201.7820675351862
 20
239.6878691647095
 10
202.0219511225994
 20
239.6878691647095
 10
202.2195084868066
 20
239.7196219065552
 10
202.3747315533667
 20
239.7831193158054
 10
202.5299546199267
 20
239.8395637002618
 10
202.6675350314492
 20
239.9242322955568
 10
202.7874808623777
 20
240.037121064469
 10
202.9427039289377
 20
240.199401193044
 10
203.0520641668428
 20
240.3934300262442
 10
203.1155615760929
 20
240.6192035268487
 10
203.17200999777
 20
240.8449851018945
 10
203.2002301713873
 20
241.1448416047712
 10
203.2002301713873
 20
241.5187851471415
 10
203.2002301713873
 20
241.5187851471415
 10
203.2002301713873
 20
245.0641998120866
 10
203.2002301713873
 20
245.0641998120866
 10
203.2002301713873
 20
245.0641998120866
 10
204.2162290916008
 20
245.0641998120866
 10
204.2162290916008
 20
245.0641998120866
 10
204.2162290916008
 20
245.0641998120866
 10
204.2162290916008
 20
245.2758672631031
 10
204.2162290916008
 20
245.2758672631031
 10
204.2162290916008
 20
245.2758672631031
 10
203.2002301713873
 20
245.2758672631031
 10
203.2002301713873
 20
245.2758672631031
 10
203.2002301713873
 20
245.2758672631031
 10
203.2002301713873
 20
246.8951157945192
 10
203.2002301713873
 20
246.8951157945192
 10
203.0238439932243
 20
246.9021728565341
 10
202.8545068026343
 20
246.9162789061221
 10
202.6922266740599
 20
246.9374500921663
 10
202.5299465454855
 20
246.9586172409906
 10
202.3817805409398
 20
246.9938904394022
 10
202.2477286604252
 20
247.0432817990643
 10
202.2477286604252
 20
247.0432817990643
 10
202.2477205859826
 20
247.0432777618437
 10
202.2477205859826
 20
247.0432777618437
 97
        0
 97
        1
330
9D
 75
     2
 76
     1
 98
        1
 10
0.0
 20
0.0
450
        0
451
        0
460
0.0
461
0.0
452
        0
462
0.0
453
        0
470

  0
SPLINE
  5
9F
330
95
100
AcDbEntity
  8
svg1789
100
AcDbSpline
210
0.0
220
0.0
230
1.0
 70
    11
 71
     3
 72
    62
 73
    58
 74
     0
 42
0.0000000001
 43
0.0000000001
 40
0.0
 40
0.0
 40
0.0
 40
0.0
 40
1.0
 40
1.0
 40
1.0
 40
2.0
 40
2.0
 40
2.0
 40
3.0
 40
3.0
 40
3.0
 40
4.0
 40
4.0
 40
4.0
 40
5.0
 40
5.0
 40
5.0
 40
6.0
 40
6.0
 40
6.0
 40
7.0
 40
7.0
 40
7.0
 40
8.0
 40
8.0
 40
8.0
 40
9.0
 40
9.0
 40
9.0
 40
10.0
 40
10.0
 40
10.0
 40
11.0
 40
11.0
 40
11.0
 40
12.0
 40
12.0
 40
12.0
 40
13.0
 40
13.0
 40
13.0
 40
14.0
 40
14.0
 40
14.0
 40
15.0
 40
15.0
 40
15.0
 40
16.0
 40
16.0
 40
16.0
 40
17.0
 40
17.0
 40
17.0
 40
18.0
 40
18.0
 40
18.0
 40
19.0
 40
19.0
 40
19.0
 40
19.0
 10
198.4483082095944
 20
245.4028620816034
 30
0.0
 10
198.4483082095944
 20
245.4028620816034
 30
0.0
 10
198.4483082095944
 20
240.8202813476218
 30
0.0
 10
198.4483082095944
 20
240.8202813476218
 30
0.0
 10
198.4483082095944
 20
240.5239493385309
 30
0.0
 10
198.3883393313515
 20
240.3228674805371
 30
0.0
 10
198.2683935004243
 20
240.2170317364186
 30
0.0
 10
198.1413906074821
 20
240.1112000295213
 30
0.0
 10
197.933255724694
 20
240.0582801388514
 30
0.0
 10
197.6439807776187
 20
240.0582801388514
 30
0.0
 10
197.6439807776187
 20
240.0582801388514
 30
0.0
 10
197.6439807776187
 20
239.836031132034
 30
0.0
 10
197.6439807776187
 20
239.836031132034
 30
0.0
 10
197.7639266085459
 20
239.8430841568277
 30
0.0
 10
197.9473698487239
 20
239.8501412188426
 30
0.0
 10
198.194310498152
 20
239.857198280857
 30
0.0
 10
198.4341940855652
 20
239.8713083676662
 30
0.0
 10
198.6776142784271
 20
239.8783654296812
 30
0.0
 10
198.9245630022971
 20
239.8783654296812
 30
0.0
 10
199.1644465897102
 20
239.8783654296812
 30
0.0
 10
199.4078667825724
 20
239.8713083676662
 30
0.0
 10
199.6548155064425
 20
239.857198280857
 30
0.0
 10
199.9017642303124
 20
239.8501412188426
 30
0.0
 10
200.0851993960488
 20
239.8430841568277
 30
0.0
 10
200.2051452269761
 20
239.836031132034
 30
0.0
 10
200.2051452269761
 20
239.836031132034
 30
0.0
 10
200.2051452269761
 20
240.0582801388514
 30
0.0
 10
200.2051452269761
 20
240.0582801388514
 30
0.0
 10
199.9158622054586
 20
240.0582801388514
 30
0.0
 10
199.711255853677
 20
240.1112000295213
 30
0.0
 10
199.5913100227498
 20
240.2170317364186
 30
0.0
 10
199.4643071298082
 20
240.3228674805371
 30
0.0
 10
199.4008097205581
 20
240.5239493385309
 30
0.0
 10
199.4008097205581
 20
240.8202813476218
 30
0.0
 10
199.4008097205581
 20
240.8202813476218
 30
0.0
 10
199.4008097205581
 20
244.1328654499475
 30
0.0
 10
199.4008097205581
 20
244.1328654499475
 30
0.0
 10
199.4008097205581
 20
244.4503686450826
 30
0.0
 10
199.4572581422352
 20
244.6831951704808
 30
0.0
 10
199.5701469111468
 20
244.8313652122471
 30
0.0
 10
199.683043754501
 20
244.9865923160272
 30
0.0
 10
199.8947071682969
 20
245.0642038493072
 30
0.0
 10
200.2051452269761
 20
245.0641998120866
 30
0.0
 10
200.2051452269761
 20
245.0641998120866
 30
0.0
 10
200.2051452269761
 20
245.2864488189046
 30
0.0
 10
200.2051452269761
 20
245.2864488189046
 30
0.0
 10
199.9793676891499
 20
245.265281670081
 30
0.0
 10
199.7606391388985
 20
245.2547001142795
 30
0.0
 10
199.5489757251026
 20
245.2547001142795
 30
0.0
 10
199.3443693733223
 20
245.2547001142795
 30
0.0
 10
199.1503324656803
 20
245.265281670081
 30
0.0
 10
198.966889225503
 20
245.2864488189046
 30
0.0
 10
198.77638892331
 20
245.3146730297432
 30
0.0
 10
198.6035312761545
 20
245.3534787963831
 30
0.0
 10
198.4483082095944
 20
245.4028661188246
 30
0.0
 10
198.4483082095944
 20
245.4028661188246
 30
0.0
 10
198.4483082095944
 20
245.4028620816034
 30
0.0
 10
198.4483082095944
 20
245.4028620816034
 30
0.0
  0
SPLINE
  5
A0
330
95
100
AcDbEntity
  8
svg1789
100
AcDbSpline
210
0.0
220
0.0
230
1.0
 70
     9
 71
     3
 72
    29
 73
    25
 74
     0
 42
0.0000000001
 43
0.0000000001
 40
0.0
 40
0.0
 40
0.0
 40
0.0
 40
1.0
 40
1.0
 40
1.0
 40
2.0
 40
2.0
 40
2.0
 40
3.0
 40
3.0
 40
3.0
 40
4.0
 40
4.0
 40
4.0
 40
5.0
 40
5.0
 40
5.0
 40
6.0
 40
6.0
 40
6.0
 40
7.0
 40
7.0
 40
7.0
 40
8.0
 40
8.0
 40
8.0
 40
8.0
 10
198.998637930128
 20
247.9322778263357
 30
0.0
 10
198.8151866155082
 20
247.9322778263357
 30
0.0
 10
198.6564430923828
 20
247.8652478488565
 30
0.0
 10
198.5223912118673
 20
247.7311959683413
 30
0.0
 10
198.3883312569102
 20
247.597144087826
 30
0.0
 10
198.3213053166523
 20
247.4383884530375
 30
0.0
 10
198.3213053166523
 20
247.2549452128596
 30
0.0
 10
198.3213053166523
 20
247.0715019726822
 30
0.0
 10
198.3883312569102
 20
246.9127544123356
 30
0.0
 10
198.5223912118673
 20
246.7786944573785
 30
0.0
 10
198.6564430923828
 20
246.644638539642
 30
0.0
 10
198.815202764392
 20
246.5776125993847
 30
0.0
 10
198.998637930128
 20
246.5776125993847
 30
0.0
 10
199.1820811703054
 20
246.5776125993847
 30
0.0
 10
199.3408327678733
 20
246.644638539642
 30
0.0
 10
199.4748846483891
 20
246.7786944573785
 30
0.0
 10
199.6089365289036
 20
246.9127503751143
 30
0.0
 10
199.6759705436029
 20
247.0714979354609
 30
0.0
 10
199.6759705436029
 20
247.2549452128596
 30
0.0
 10
199.6759705436029
 20
247.4383884530375
 30
0.0
 10
199.6089365289036
 20
247.5971400506048
 30
0.0
 10
199.4748846483891
 20
247.7311959683413
 30
0.0
 10
199.340824693432
 20
247.8652478488565
 30
0.0
 10
199.1820811703054
 20
247.9322778263357
 30
0.0
 10
198.998637930128
 20
247.9322778263357
 30
0.0
  0
HATCH
  5
A1
330
95
100
AcDbEntity
  8
svg1789
 62
    18
420
        0
440
 33554687
100
AcDbHatch
 10
0.0
 20
0.0
 30
0.0
210
0.0
220
0.0
230
1.0
  2
SOLID
 70
     1
 71
     1
 91
        2
 92
        1
 93
        1
 72
     4
 94
        3
 73
     0
 74
     0
 95
       62
 96
       58
 40
0.0
 40
0.0
 40
0.0
 40
0.0
 40
1.0
 40
1.0
 40
1.0
 40
2.0
 40
2.0
 40
2.0
 40
3.0
 40
3.0
 40
3.0
 40
4.0
 40
4.0
 40
4.0
 40
5.0
 40
5.0
 40
5.0
 40
6.0
 40
6.0
 40
6.0
 40
7.0
 40
7.0
 40
7.0
 40
8.0
 40
8.0
 40
8.0
 40
9.0
 40
9.0
 40
9.0
 40
10.0
 40
10.0
 40
10.0
 40
11.0
 40
11.0
 40
11.0
 40
12.0
 40
12.0
 40
12.0
 40
13.0
 40
13.0
 40
13.0
 40
14.0
 40
14.0
 40
14.0
 40
15.0
 40
15.0
 40
15.0
 40
16.0
 40
16.0
 40
16.0
 40
17.0
 40
17.0
 40
17.0
 40
18.0
 40
18.0
 40
18.0
 40
19.0
 40
19.0
 40
19.0
 40
19.0
 10
198.4483082095944
 20
245.4028620816034
 10
198.4483082095944
 20
245.4028620816034
 10
198.4483082095944
 20
240.8202813476218
 10
198.4483082095944
 20
240.8202813476218
 10
198.4483082095944
 20
240.5239493385309
 10
198.3883393313515
 20
240.3228674805371
 10
198.2683935004243
 20
240.2170317364186
 10
198.1413906074821
 20
240.1112000295213
 10
197.933255724694
 20
240.0582801388514
 10
197.6439807776187
 20
240.0582801388514
 10
197.6439807776187
 20
240.0582801388514
 10
197.6439807776187
 20
239.836031132034
 10
197.6439807776187
 20
239.836031132034
 10
197.7639266085459
 20
239.8430841568277
 10
197.9473698487239
 20
239.8501412188426
 10
198.194310498152
 20
239.857198280857
 10
198.4341940855652
 20
239.8713083676662
 10
198.6776142784271
 20
239.8783654296812
 10
198.9245630022971
 20
239.8783654296812
 10
199.1644465897102
 20
239.8783654296812
 10
199.4078667825724
 20
239.8713083676662
 10
199.6548155064425
 20
239.857198280857
 10
199.9017642303124
 20
239.8501412188426
 10
200.0851993960488
 20
239.8430841568277
 10
200.2051452269761
 20
239.836031132034
 10
200.2051452269761
 20
239.836031132034
 10
200.2051452269761
 20
240.0582801388514
 10
200.2051452269761
 20
240.0582801388514
 10
199.9158622054586
 20
240.0582801388514
 10
199.711255853677
 20
240.1112000295213
 10
199.5913100227498
 20
240.2170317364186
 10
199.4643071298082
 20
240.3228674805371
 10
199.4008097205581
 20
240.5239493385309
 10
199.4008097205581
 20
240.8202813476218
 10
199.4008097205581
 20
240.8202813476218
 10
199.4008097205581
 20
244.1328654499475
 10
199.4008097205581
 20
244.1328654499475
 10
199.4008097205581
 20
244.4503686450826
 10
199.4572581422352
 20
244.6831951704808
 10
199.5701469111468
 20
244.8313652122471
 10
199.683043754501
 20
244.9865923160272
 10
199.8947071682969
 20
245.0642038493072
 10
200.2051452269761
 20
245.0641998120866
 10
200.2051452269761
 20
245.0641998120866
 10
200.2051452269761
 20
245.2864488189046
 10
200.2051452269761
 20
245.2864488189046
 10
199.9793676891499
 20
245.265281670081
 10
199.7606391388985
 20
245.2547001142795
 10
199.5489757251026
 20
245.2547001142795
 10
199.3443693733223
 20
245.2547001142795
 10
199.1503324656803
 20
245.265281670081
 10
198.966889225503
 20
245.2864488189046
 10
198.77638892331
 20
245.3146730297432
 10
198.6035312761545
 20
245.3534787963831
 10
198.4483082095944
 20
245.4028661188246
 10
198.4483082095944
 20
245.4028661188246
 10
198.4483082095944
 20
245.4028620816034
 10
198.4483082095944
 20
245.4028620816034
 97
        0
 97
        1
330
9F
 92
        1
 93
        1
 72
     4
 94
        3
 73
     0
 74
     0
 95
       29
 96
       25
 40
0.0
 40
0.0
 40
0.0
 40
0.0
 40
1.0
 40
1.0
 40
1.0
 40
2.0
 40
2.0
 40
2.0
 40
3.0
 40
3.0
 40
3.0
 40
4.0
 40
4.0
 40
4.0
 40
5.0
 40
5.0
 40
5.0
 40
6.0
 40
6.0
 40
6.0
 40
7.0
 40
7.0
 40
7.0
 40
8.0
 40
8.0
 40
8.0
 40
8.0
 10
198.998637930128
 20
247.9322778263357
 10
198.8151866155082
 20
247.9322778263357
 10
198.6564430923828
 20
247.8652478488565
 10
198.5223912118673
 20
247.7311959683413
 10
198.3883312569102
 20
247.597144087826
 10
198.3213053166523
 20
247.4383884530375
 10
198.3213053166523
 20
247.2549452128596
 10
198.3213053166523
 20
247.0715019726822
 10
198.3883312569102
 20
246.9127544123356
 10
198.5223912118673
 20
246.7786944573785
 10
198.6564430923828
 20
246.644638539642
 10
198.815202764392
 20
246.5776125993847
 10
198.998637930128
 20
246.5776125993847
 10
199.1820811703054
 20
246.5776125993847
 10
199.3408327678733
 20
246.644638539642
 10
199.4748846483891
 20
246.7786944573785
 10
199.6089365289036
 20
246.9127503751143
 10
199.6759705436029
 20
247.0714979354609
 10
199.6759705436029
 20
247.2549452128596
 10
199.6759705436029
 20
247.4383884530375
 10
199.6089365289036
 20
247.5971400506048
 10
199.4748846483891
 20
247.7311959683413
 10
199.340824693432
 20
247.8652478488565
 10
199.1820811703054
 20
247.9322778263357
 10
198.998637930128
 20
247.9322778263357
 97
        0
 97
        1
330
A0
 75
     2
 76
     1
 98
        1
 10
0.0
 20
0.0
450
        0
451
        0
460
0.0
461
0.0
452
        0
462
0.0
453
        0
470

  0
SPLINE
  5
A2
330
95
100
AcDbEntity
  8
svg1789
100
AcDbSpline
210
0.0
220
0.0
230
1.0
 70
     9
 71
     3
 72
    95
 73
    91
 74
     0
 42
0.0000000001
 43
0.0000000001
 40
0.0
 40
0.0
 40
0.0
 40
0.0
 40
1.0
 40
1.0
 40
1.0
 40
2.0
 40
2.0
 40
2.0
 40
3.0
 40
3.0
 40
3.0
 40
4.0
 40
4.0
 40
4.0
 40
5.0
 40
5.0
 40
5.0
 40
6.0
 40
6.0
 40
6.0
 40
7.0
 40
7.0
 40
7.0
 40
8.0
 40
8.0
 40
8.0
 40
9.0
 40
9.0
 40
9.0
 40
10.0
 40
10.0
 40
10.0
 40
11.0
 40
11.0
 40
11.0
 40
12.0
 40
12.0
 40
12.0
 40
13.0
 40
13.0
 40
13.0
 40
14.0
 40
14.0
 40
14.0
 40
15.0
 40
15.0
 40
15.0
 40
16.0
 40
16.0
 40
16.0
 40
17.0
 40
17.0
 40
17.0
 40
18.0
 40
18.0
 40
18.0
 40
19.0
 40
19.0
 40
19.0
 40
20.0
 40
20.0
 40
20.0
 40
21.0
 40
21.0
 40
21.0
 40
22.0
 40
22.0
 40
22.0
 40
23.0
 40
23.0
 40
23.0
 40
24.0
 40
24.0
 40
24.0
 40
25.0
 40
25.0
 40
25.0
 40
26.0
 40
26.0
 40
26.0
 40
27.0
 40
27.0
 40
27.0
 40
28.0
 40
28.0
 40
28.0
 40
29.0
 40
29.0
 40
29.0
 40
30.0
 40
30.0
 40
30.0
 40
30.0
 10
194.5324785332869
 20
245.4346107862285
 30
0.0
 10
193.9115943414885
 20
245.4346107862285
 30
0.0
 10
193.4282905612131
 20
245.2441104840362
 30
0.0
 10
193.0825591180188
 20
244.8631098796509
 30
0.0
 10
192.7297827244722
 20
244.4891663372807
 30
0.0
 10
192.5533965463091
 20
243.9035553438945
 30
0.0
 10
192.5533925090879
 20
243.1062768994912
 30
0.0
 10
192.5533925090879
 20
243.1062768994912
 30
0.0
 10
196.2893074762259
 20
243.1062768994912
 30
0.0
 10
196.2893074762259
 20
243.1062768994912
 30
0.0
 10
196.2893074762259
 20
243.1062768994912
 30
0.0
 10
196.299893069248
 20
243.307358757485
 30
0.0
 10
196.299893069248
 20
243.307358757485
 30
0.0
 10
196.299893069248
 20
243.307358757485
 30
0.0
 10
193.5693914293014
 20
243.307358757485
 30
0.0
 10
193.5693914293014
 20
243.307358757485
 30
0.0
 10
193.5552853797133
 20
243.653082126238
 30
0.0
 10
193.5835055533313
 20
243.9705853213724
 30
0.0
 10
193.6540600245963
 20
244.2598602684483
 30
0.0
 10
193.7246144958614
 20
244.5561922775386
 30
0.0
 10
193.8375032647743
 20
244.7925513711652
 30
0.0
 10
193.9927263313344
 20
244.9689415865489
 30
0.0
 10
194.1408923358795
 20
245.1453277647113
 30
0.0
 10
194.3349211690796
 20
245.2335248910141
 30
0.0
 10
194.574812830934
 20
245.2335248910141
 30
0.0
 10
194.8993650136421
 20
245.2335248910141
 30
0.0
 10
195.1886480351593
 20
245.0712487996603
 30
0.0
 10
195.4426457466024
 20
244.7466925797309
 30
0.0
 10
195.6895863960305
 20
244.4221403970227
 30
0.0
 10
195.8377524005756
 20
243.907079837681
 30
0.0
 10
195.8871437602377
 20
243.2015270505877
 30
0.0
 10
195.8871437602377
 20
243.2015270505877
 30
0.0
 10
195.8553950556127
 20
243.1591927529399
 30
0.0
 10
195.8553950556127
 20
243.1591927529399
 30
0.0
 10
195.8695011052007
 20
243.053361046042
 30
0.0
 10
195.8800866982228
 20
242.9369437461225
 30
0.0
 10
195.8871437602377
 20
242.8099408531797
 30
0.0
 10
195.8942008222527
 20
242.6829419974582
 30
0.0
 10
195.8977293532599
 20
242.5559431417366
 30
0.0
 10
195.8977293532599
 20
242.4289402487951
 30
0.0
 10
195.8977293532599
 20
241.9491649995263
 30
0.0
 10
195.8201178199798
 20
241.5364156905166
 30
0.0
 10
195.6648947534198
 20
241.1906923217636
 30
0.0
 10
195.5096716868597
 20
240.8449689530113
 30
0.0
 10
195.3085857916453
 20
240.5803856485461
 30
0.0
 10
195.0616451422172
 20
240.3969424083681
 30
0.0
 10
194.8076474307741
 20
240.2205562302051
 30
0.0
 10
194.5465845828748
 20
240.132359103903
 30
0.0
 10
194.2784808218438
 20
240.132359103903
 30
0.0
 10
194.0668174080485
 20
240.132359103903
 30
0.0
 10
193.8657315128335
 20
240.164107808528
 30
0.0
 10
193.6752312106412
 20
240.2276092549994
 30
0.0
 10
193.4847309084483
 20
240.2981596890439
 30
0.0
 10
193.3083447302853
 20
240.4110524951768
 30
0.0
 10
193.1460646017109
 20
240.5662755617368
 30
0.0
 10
192.9837844731358
 20
240.7214986282969
 30
0.0
 10
192.842675530605
 20
240.9296375483063
 30
0.0
 10
192.7227296996779
 20
241.1906923217636
 30
0.0
 10
192.7227296996779
 20
241.1906923217636
 30
0.0
 10
192.5110622486613
 20
241.1060237264693
 30
0.0
 10
192.5110622486613
 20
241.1060237264693
 30
0.0
 10
192.5886737819413
 20
240.8731891266292
 30
0.0
 10
192.7156686004423
 20
240.6474115888034
 30
0.0
 10
192.8920588158259
 20
240.4286911129932
 30
0.0
 10
193.0684449939889
 20
240.2099665999624
 30
0.0
 10
193.2907020752482
 20
240.0300518907922
 30
0.0
 10
193.5588058362793
 20
239.8889429482621
 30
0.0
 10
193.8269176717516
 20
239.7548910677462
 30
0.0
 10
194.1373557304304
 20
239.6878610902676
 30
0.0
 10
194.4901361611978
 20
239.6878610902676
 30
0.0
 10
194.9981396585251
 20
239.6878610902676
 30
0.0
 10
195.4355806101455
 20
239.8042783901877
 30
0.0
 10
195.8024670905015
 20
240.0371129900278
 30
0.0
 10
196.1623045832838
 20
240.2699475898679
 30
0.0
 10
196.440993937337
 20
240.5909712415682
 30
0.0
 10
196.6385513015442
 20
241.000196056792
 30
0.0
 10
196.8290516037365
 20
241.4164698595888
 30
0.0
 10
196.9242977176123
 20
241.8927246522911
 30
0.0
 10
196.9242977176123
 20
242.4289442860158
 30
0.0
 10
196.9242977176123
 20
243.0498325150348
 30
0.0
 10
196.8255149982874
 20
243.5825276549723
 30
0.0
 10
196.6279657085221
 20
244.0270256686082
 30
0.0
 10
196.4304083443142
 20
244.4785807442586
 30
0.0
 10
196.151718990261
 20
244.8243041130109
 30
0.0
 10
195.7918814974788
 20
245.0641917376447
 30
0.0
 10
195.4320440046965
 20
245.311136424294
 30
0.0
 10
195.0122376336713
 20
245.4346027117872
 30
0.0
 10
194.5324623844037
 20
245.4346067490085
 30
0.0
 10
194.5324623844037
 20
245.4346067490085
 30
0.0
 10
194.5324785332869
 20
245.4346107862285
 30
0.0
 10
194.5324785332869
 20
245.4346107862285
 30
0.0
  0
HATCH
  5
A3
330
95
100
AcDbEntity
  8
svg1789
 62
    18
420
        0
440
 33554687
100
AcDbHatch
 10
0.0
 20
0.0
 30
0.0
210
0.0
220
0.0
230
1.0
  2
SOLID
 70
     1
 71
     1
 91
        1
 92
        1
 93
        1
 72
     4
 94
        3
 73
     0
 74
     0
 95
       95
 96
       91
 40
0.0
 40
0.0
 40
0.0
 40
0.0
 40
1.0
 40
1.0
 40
1.0
 40
2.0
 40
2.0
 40
2.0
 40
3.0
 40
3.0
 40
3.0
 40
4.0
 40
4.0
 40
4.0
 40
5.0
 40
5.0
 40
5.0
 40
6.0
 40
6.0
 40
6.0
 40
7.0
 40
7.0
 40
7.0
 40
8.0
 40
8.0
 40
8.0
 40
9.0
 40
9.0
 40
9.0
 40
10.0
 40
10.0
 40
10.0
 40
11.0
 40
11.0
 40
11.0
 40
12.0
 40
12.0
 40
12.0
 40
13.0
 40
13.0
 40
13.0
 40
14.0
 40
14.0
 40
14.0
 40
15.0
 40
15.0
 40
15.0
 40
16.0
 40
16.0
 40
16.0
 40
17.0
 40
17.0
 40
17.0
 40
18.0
 40
18.0
 40
18.0
 40
19.0
 40
19.0
 40
19.0
 40
20.0
 40
20.0
 40
20.0
 40
21.0
 40
21.0
 40
21.0
 40
22.0
 40
22.0
 40
22.0
 40
23.0
 40
23.0
 40
23.0
 40
24.0
 40
24.0
 40
24.0
 40
25.0
 40
25.0
 40
25.0
 40
26.0
 40
26.0
 40
26.0
 40
27.0
 40
27.0
 40
27.0
 40
28.0
 40
28.0
 40
28.0
 40
29.0
 40
29.0
 40
29.0
 40
30.0
 40
30.0
 40
30.0
 40
30.0
 10
194.5324785332869
 20
245.4346107862285
 10
193.9115943414885
 20
245.4346107862285
 10
193.4282905612131
 20
245.2441104840362
 10
193.0825591180188
 20
244.8631098796509
 10
192.7297827244722
 20
244.4891663372807
 10
192.5533965463091
 20
243.9035553438945
 10
192.5533925090879
 20
243.1062768994912
 10
192.5533925090879
 20
243.1062768994912
 10
196.2893074762259
 20
243.1062768994912
 10
196.2893074762259
 20
243.1062768994912
 10
196.2893074762259
 20
243.1062768994912
 10
196.299893069248
 20
243.307358757485
 10
196.299893069248
 20
243.307358757485
 10
196.299893069248
 20
243.307358757485
 10
193.5693914293014
 20
243.307358757485
 10
193.5693914293014
 20
243.307358757485
 10
193.5552853797133
 20
243.653082126238
 10
193.5835055533313
 20
243.9705853213724
 10
193.6540600245963
 20
244.2598602684483
 10
193.7246144958614
 20
244.5561922775386
 10
193.8375032647743
 20
244.7925513711652
 10
193.9927263313344
 20
244.9689415865489
 10
194.1408923358795
 20
245.1453277647113
 10
194.3349211690796
 20
245.2335248910141
 10
194.574812830934
 20
245.2335248910141
 10
194.8993650136421
 20
245.2335248910141
 10
195.1886480351593
 20
245.0712487996603
 10
195.4426457466024
 20
244.7466925797309
 10
195.6895863960305
 20
244.4221403970227
 10
195.8377524005756
 20
243.907079837681
 10
195.8871437602377
 20
243.2015270505877
 10
195.8871437602377
 20
243.2015270505877
 10
195.8553950556127
 20
243.1591927529399
 10
195.8553950556127
 20
243.1591927529399
 10
195.8695011052007
 20
243.053361046042
 10
195.8800866982228
 20
242.9369437461225
 10
195.8871437602377
 20
242.8099408531797
 10
195.8942008222527
 20
242.6829419974582
 10
195.8977293532599
 20
242.5559431417366
 10
195.8977293532599
 20
242.4289402487951
 10
195.8977293532599
 20
241.9491649995263
 10
195.8201178199798
 20
241.5364156905166
 10
195.6648947534198
 20
241.1906923217636
 10
195.5096716868597
 20
240.8449689530113
 10
195.3085857916453
 20
240.5803856485461
 10
195.0616451422172
 20
240.3969424083681
 10
194.8076474307741
 20
240.2205562302051
 10
194.5465845828748
 20
240.132359103903
 10
194.2784808218438
 20
240.132359103903
 10
194.0668174080485
 20
240.132359103903
 10
193.8657315128335
 20
240.164107808528
 10
193.6752312106412
 20
240.2276092549994
 10
193.4847309084483
 20
240.2981596890439
 10
193.3083447302853
 20
240.4110524951768
 10
193.1460646017109
 20
240.5662755617368
 10
192.9837844731358
 20
240.7214986282969
 10
192.842675530605
 20
240.9296375483063
 10
192.7227296996779
 20
241.1906923217636
 10
192.7227296996779
 20
241.1906923217636
 10
192.5110622486613
 20
241.1060237264693
 10
192.5110622486613
 20
241.1060237264693
 10
192.5886737819413
 20
240.8731891266292
 10
192.7156686004423
 20
240.6474115888034
 10
192.8920588158259
 20
240.4286911129932
 10
193.0684449939889
 20
240.2099665999624
 10
193.2907020752482
 20
240.0300518907922
 10
193.5588058362793
 20
239.8889429482621
 10
193.8269176717516
 20
239.7548910677462
 10
194.1373557304304
 20
239.6878610902676
 10
194.4901361611978
 20
239.6878610902676
 10
194.9981396585251
 20
239.6878610902676
 10
195.4355806101455
 20
239.8042783901877
 10
195.8024670905015
 20
240.0371129900278
 10
196.1623045832838
 20
240.2699475898679
 10
196.440993937337
 20
240.5909712415682
 10
196.6385513015442
 20
241.000196056792
 10
196.8290516037365
 20
241.4164698595888
 10
196.9242977176123
 20
241.8927246522911
 10
196.9242977176123
 20
242.4289442860158
 10
196.9242977176123
 20
243.0498325150348
 10
196.8255149982874
 20
243.5825276549723
 10
196.6279657085221
 20
244.0270256686082
 10
196.4304083443142
 20
244.4785807442586
 10
196.151718990261
 20
244.8243041130109
 10
195.7918814974788
 20
245.0641917376447
 10
195.4320440046965
 20
245.311136424294
 10
195.0122376336713
 20
245.4346027117872
 10
194.5324623844037
 20
245.4346067490085
 10
194.5324623844037
 20
245.4346067490085
 10
194.5324785332869
 20
245.4346107862285
 10
194.5324785332869
 20
245.4346107862285
 97
        0
 97
        1
330
A2
 75
     2
 76
     1
 98
        1
 10
0.0
 20
0.0
450
        0
451
        0
460
0.0
461
0.0
452
        0
462
0.0
453
        0
470

  0
SPLINE
  5
A4
330
95
100
AcDbEntity
  8
svg1789
100
AcDbSpline
210
0.0
220
0.0
230
1.0
 70
     9
 71
     3
 72
   137
 73
   133
 74
     0
 42
0.0000000001
 43
0.0000000001
 40
0.0
 40
0.0
 40
0.0
 40
0.0
 40
1.0
 40
1.0
 40
1.0
 40
2.0
 40
2.0
 40
2.0
 40
3.0
 40
3.0
 40
3.0
 40
4.0
 40
4.0
 40
4.0
 40
5.0
 40
5.0
 40
5.0
 40
6.0
 40
6.0
 40
6.0
 40
7.0
 40
7.0
 40
7.0
 40
8.0
 40
8.0
 40
8.0
 40
9.0
 40
9.0
 40
9.0
 40
10.0
 40
10.0
 40
10.0
 40
11.0
 40
11.0
 40
11.0
 40
12.0
 40
12.0
 40
12.0
 40
13.0
 40
13.0
 40
13.0
 40
14.0
 40
14.0
 40
14.0
 40
15.0
 40
15.0
 40
15.0
 40
16.0
 40
16.0
 40
16.0
 40
17.0
 40
17.0
 40
17.0
 40
18.0
 40
18.0
 40
18.0
 40
19.0
 40
19.0
 40
19.0
 40
20.0
 40
20.0
 40
20.0
 40
21.0
 40
21.0
 40
21.0
 40
22.0
 40
22.0
 40
22.0
 40
23.0
 40
23.0
 40
23.0
 40
24.0
 40
24.0
 40
24.0
 40
25.0
 40
25.0
 40
25.0
 40
26.0
 40
26.0
 40
26.0
 40
27.0
 40
27.0
 40
27.0
 40
28.0
 40
28.0
 40
28.0
 40
29.0
 40
29.0
 40
29.0
 40
30.0
 40
30.0
 40
30.0
 40
31.0
 40
31.0
 40
31.0
 40
32.0
 40
32.0
 40
32.0
 40
33.0
 40
33.0
 40
33.0
 40
34.0
 40
34.0
 40
34.0
 40
35.0
 40
35.0
 40
35.0
 40
36.0
 40
36.0
 40
36.0
 40
37.0
 40
37.0
 40
37.0
 40
38.0
 40
38.0
 40
38.0
 40
39.0
 40
39.0
 40
39.0
 40
40.0
 40
40.0
 40
40.0
 40
41.0
 40
41.0
 40
41.0
 40
42.0
 40
42.0
 40
42.0
 40
43.0
 40
43.0
 40
43.0
 40
44.0
 40
44.0
 40
44.0
 40
44.0
 10
188.1930607819236
 20
245.4346107862285
 30
0.0
 10
187.9249489464513
 20
245.4346107862285
 30
0.0
 10
187.7026999396333
 20
245.3993335505962
 30
0.0
 10
187.5263097242497
 20
245.3287790793311
 30
0.0
 10
187.3428664840723
 20
245.2582246080661
 30
0.0
 10
187.1911679112988
 20
245.1594499631831
 30
0.0
 10
187.0712261175922
 20
245.0324470702409
 30
0.0
 10
186.9371701998557
 20
244.8913340904895
 30
0.0
 10
186.8419240859805
 20
244.7149438751058
 30
0.0
 10
186.7854756643034
 20
244.5032804613106
 30
0.0
 10
186.729031279847
 20
244.291613010294
 30
0.0
 10
186.7008070690085
 20
244.0058625570053
 30
0.0
 10
186.7008070690085
 20
243.6460291014437
 30
0.0
 10
186.7008070690085
 20
243.6460291014437
 30
0.0
 10
186.7008070690085
 20
240.8202813476218
 30
0.0
 10
186.7008070690085
 20
240.8202813476218
 30
0.0
 10
186.7008070690085
 20
240.5239493385309
 30
0.0
 10
186.6408381907655
 20
240.3228674805371
 30
0.0
 10
186.5208923598383
 20
240.2170317364186
 30
0.0
 10
186.3938935041168
 20
240.1112000295213
 30
0.0
 10
186.1857505468868
 20
240.0582801388514
 30
0.0
 10
185.8964755998115
 20
240.0582801388514
 30
0.0
 10
185.8964755998115
 20
240.0582801388514
 30
0.0
 10
185.8964755998115
 20
239.836031132034
 30
0.0
 10
185.8964755998115
 20
239.836031132034
 30
0.0
 10
186.0164173935181
 20
239.8430841568277
 30
0.0
 10
186.1998646709167
 20
239.8501412188426
 30
0.0
 10
186.4468093575654
 20
239.857198280857
 30
0.0
 10
186.6937500069935
 20
239.8713083676662
 30
0.0
 10
186.9336416688486
 20
239.8783654296812
 30
0.0
 10
187.1664762686887
 20
239.8783654296812
 30
0.0
 10
187.3993108685281
 20
239.8783654296812
 30
0.0
 10
187.6286169373611
 20
239.8713083676662
 30
0.0
 10
187.8543944751863
 20
239.857198280857
 30
0.0
 10
188.0731189882171
 20
239.8501412188426
 30
0.0
 10
188.2389236105786
 20
239.8430841568277
 30
0.0
 10
188.3518123794915
 20
239.836031132034
 30
0.0
 10
188.3518123794915
 20
239.836031132034
 30
0.0
 10
188.3518123794915
 20
240.0582801388514
 30
0.0
 10
188.3518123794915
 20
240.0582801388514
 30
0.0
 10
188.0978106308278
 20
240.0582801388514
 30
0.0
 10
187.9178959216577
 20
240.1112000295213
 30
0.0
 10
187.8120642147597
 20
240.2170317364186
 30
0.0
 10
187.7062325078617
 20
240.3228674805371
 30
0.0
 10
187.6533126171925
 20
240.5239493385309
 30
0.0
 10
187.6533126171925
 20
240.8202813476218
 30
0.0
 10
187.6533126171925
 20
240.8202813476218
 30
0.0
 10
187.6533126171925
 20
243.8788637012838
 30
0.0
 10
187.6533126171925
 20
243.8788637012838
 30
0.0
 10
187.6533126171925
 20
244.097584177094
 30
0.0
 10
187.6709512350083
 20
244.298670072309
 30
0.0
 10
187.7062284706411
 20
244.4821133124864
 30
0.0
 10
187.7415057062734
 20
244.6655565526643
 30
0.0
 10
187.8226457705612
 20
244.8137225572094
 30
0.0
 10
187.9496446262827
 20
244.9266113261223
 30
0.0
 10
188.0695864199893
 20
245.0395000950353
 30
0.0
 10
188.2565581911744
 20
245.095944479491
 30
0.0
 10
188.5105599398381
 20
245.095944479491
 30
0.0
 10
188.8068919489283
 20
245.095944479491
 30
0.0
 10
189.067950759607
 20
245.0112758841967
 30
0.0
 10
189.2937282974321
 20
244.8419427308273
 30
0.0
 10
189.512452810463
 20
244.6726095774586
 30
0.0
 10
189.6853104576188
 20
244.4397749776185
 30
0.0
 10
189.812313350561
 20
244.1434429685283
 30
0.0
 10
189.9322591814882
 20
243.854168021453
 30
0.0
 10
189.9922240225105
 20
243.5296118015236
 30
0.0
 10
189.9922280597312
 20
243.1697783459626
 30
0.0
 10
189.9922280597312
 20
243.1697783459626
 30
0.0
 10
189.9922280597312
 20
240.8202773104012
 30
0.0
 10
189.9922280597312
 20
240.8202773104012
 30
0.0
 10
189.9922240225105
 20
240.5239453013109
 30
0.0
 10
189.9393122062825
 20
240.3228634433165
 30
0.0
 10
189.833476462164
 20
240.2170276991979
 30
0.0
 10
189.7276407180454
 20
240.1111959923
 30
0.0
 10
189.5477260088752
 20
240.0582761016307
 30
0.0
 10
189.2937282974321
 20
240.0582761016307
 30
0.0
 10
189.2937282974321
 20
240.0582761016307
 30
0.0
 10
189.2937282974321
 20
239.8360270948128
 30
0.0
 10
189.2937282974321
 20
239.8360270948128
 30
0.0
 10
189.4066170663444
 20
239.8430801196071
 30
0.0
 10
189.5759502197137
 20
239.8501371816214
 30
0.0
 10
189.8017277575389
 20
239.8571942436363
 30
0.0
 10
190.0204522705697
 20
239.8713043304456
 30
0.0
 10
190.2462257711743
 20
239.8783613924599
 30
0.0
 10
190.4790603710143
 20
239.8783613924599
 30
0.0
 10
190.7118949708545
 20
239.8783613924599
 30
0.0
 10
190.9517825954882
 20
239.8713043304456
 30
0.0
 10
191.1987272821369
 20
239.8571942436363
 30
0.0
 10
191.4456679315651
 20
239.8501371816214
 30
0.0
 10
191.6291152089637
 20
239.8430841568277
 30
0.0
 10
191.7490610398915
 20
239.8360270948128
 30
0.0
 10
191.7490610398915
 20
239.8360270948128
 30
0.0
 10
191.7490610398915
 20
240.0582761016307
 30
0.0
 10
191.7490610398915
 20
240.0582761016307
 30
0.0
 10
191.459782055595
 20
240.0582761016307
 30
0.0
 10
191.2551716665934
 20
240.1111959923
 30
0.0
 10
191.1352258356662
 20
240.2170276991979
 30
0.0
 10
191.0082269799447
 20
240.3228634433165
 30
0.0
 10
190.9447255334733
 20
240.5239453013109
 30
0.0
 10
190.9447255334733
 20
240.8202773104012
 30
0.0
 10
190.9447255334733
 20
240.8202773104012
 30
0.0
 10
190.9447255334733
 20
244.1328614127268
 30
0.0
 10
190.9447255334733
 20
244.1328614127268
 30
0.0
 10
190.9447255334733
 20
244.4503605706406
 30
0.0
 10
191.0011699179297
 20
244.6831951704808
 30
0.0
 10
191.1140586868426
 20
244.8313611750259
 30
0.0
 10
191.2269474557549
 20
244.986584241586
 30
0.0
 10
191.4386149067714
 20
245.064195774866
 30
0.0
 10
191.7490570026702
 20
245.064195774866
 30
0.0
 10
191.7490570026702
 20
245.064195774866
 30
0.0
 10
191.7490570026702
 20
245.2864447816839
 30
0.0
 10
191.7490570026702
 20
245.2864447816839
 30
0.0
 10
191.5232794648451
 20
245.2652776328597
 30
0.0
 10
191.3045589890349
 20
245.2546960770589
 30
0.0
 10
191.0928915380184
 20
245.2546960770589
 30
0.0
 10
190.8882771117962
 20
245.2546960770589
 30
0.0
 10
190.6942482785961
 20
245.2652776328597
 30
0.0
 10
190.5108090756394
 20
245.2864447816839
 30
0.0
 10
190.3203047362259
 20
245.3146649553012
 30
0.0
 10
190.1474470890706
 20
245.3534707219413
 30
0.0
 10
189.9922240225105
 20
245.4028620816034
 30
0.0
 10
189.9922240225105
 20
245.4028620816034
 30
0.0
 10
189.9922240225105
 20
244.1540285615504
 30
0.0
 10
189.9922240225105
 20
244.1540285615504
 30
0.0
 10
189.8087807823326
 20
244.6338078480393
 30
0.0
 10
189.5547790336689
 20
244.9654130555417
 30
0.0
 10
189.2302228137401
 20
245.1488603329403
 30
0.0
 10
188.898613569017
 20
245.339356597912
 30
0.0
 10
188.552886163044
 20
245.4346107862285
 30
0.0
 10
188.193056744703
 20
245.4346107862285
 30
0.0
 10
188.193056744703
 20
245.4346107862285
 30
0.0
 10
188.1930607819236
 20
245.4346107862285
 30
0.0
 10
188.1930607819236
 20
245.4346107862285
 30
0.0
  0
HATCH
  5
A5
330
95
100
AcDbEntity
  8
svg1789
 62
    18
420
        0
440
 33554687
100
AcDbHatch
 10
0.0
 20
0.0
 30
0.0
210
0.0
220
0.0
230
1.0
  2
SOLID
 70
     1
 71
     1
 91
        1
 92
        1
 93
        1
 72
     4
 94
        3
 73
     0
 74
     0
 95
      137
 96
      133
 40
0.0
 40
0.0
 40
0.0
 40
0.0
 40
1.0
 40
1.0
 40
1.0
 40
2.0
 40
2.0
 40
2.0
 40
3.0
 40
3.0
 40
3.0
 40
4.0
 40
4.0
 40
4.0
 40
5.0
 40
5.0
 40
5.0
 40
6.0
 40
6.0
 40
6.0
 40
7.0
 40
7.0
 40
7.0
 40
8.0
 40
8.0
 40
8.0
 40
9.0
 40
9.0
 40
9.0
 40
10.0
 40
10.0
 40
10.0
 40
11.0
 40
11.0
 40
11.0
 40
12.0
 40
12.0
 40
12.0
 40
13.0
 40
13.0
 40
13.0
 40
14.0
 40
14.0
 40
14.0
 40
15.0
 40
15.0
 40
15.0
 40
16.0
 40
16.0
 40
16.0
 40
17.0
 40
17.0
 40
17.0
 40
18.0
 40
18.0
 40
18.0
 40
19.0
 40
19.0
 40
19.0
 40
20.0
 40
20.0
 40
20.0
 40
21.0
 40
21.0
 40
21.0
 40
22.0
 40
22.0
 40
22.0
 40
23.0
 40
23.0
 40
23.0
 40
24.0
 40
24.0
 40
24.0
 40
25.0
 40
25.0
 40
25.0
 40
26.0
 40
26.0
 40
26.0
 40
27.0
 40
27.0
 40
27.0
 40
28.0
 40
28.0
 40
28.0
 40
29.0
 40
29.0
 40
29.0
 40
30.0
 40
30.0
 40
30.0
 40
31.0
 40
31.0
 40
31.0
 40
32.0
 40
32.0
 40
32.0
 40
33.0
 40
33.0
 40
33.0
 40
34.0
 40
34.0
 40
34.0
 40
35.0
 40
35.0
 40
35.0
 40
36.0
 40
36.0
 40
36.0
 40
37.0
 40
37.0
 40
37.0
 40
38.0
 40
38.0
 40
38.0
 40
39.0
 40
39.0
 40
39.0
 40
40.0
 40
40.0
 40
40.0
 40
41.0
 40
41.0
 40
41.0
 40
42.0
 40
42.0
 40
42.0
 40
43.0
 40
43.0
 40
43.0
 40
44.0
 40
44.0
 40
44.0
 40
44.0
 10
188.1930607819236
 20
245.4346107862285
 10
187.9249489464513
 20
245.4346107862285
 10
187.7026999396333
 20
245.3993335505962
 10
187.5263097242497
 20
245.3287790793311
 10
187.3428664840723
 20
245.2582246080661
 10
187.1911679112988
 20
245.1594499631831
 10
187.0712261175922
 20
245.0324470702409
 10
186.9371701998557
 20
244.8913340904895
 10
186.8419240859805
 20
244.7149438751058
 10
186.7854756643034
 20
244.5032804613106
 10
186.729031279847
 20
244.291613010294
 10
186.7008070690085
 20
244.0058625570053
 10
186.7008070690085
 20
243.6460291014437
 10
186.7008070690085
 20
243.6460291014437
 10
186.7008070690085
 20
240.8202813476218
 10
186.7008070690085
 20
240.8202813476218
 10
186.7008070690085
 20
240.5239493385309
 10
186.6408381907655
 20
240.3228674805371
 10
186.5208923598383
 20
240.2170317364186
 10
186.3938935041168
 20
240.1112000295213
 10
186.1857505468868
 20
240.0582801388514
 10
185.8964755998115
 20
240.0582801388514
 10
185.8964755998115
 20
240.0582801388514
 10
185.8964755998115
 20
239.836031132034
 10
185.8964755998115
 20
239.836031132034
 10
186.0164173935181
 20
239.8430841568277
 10
186.1998646709167
 20
239.8501412188426
 10
186.4468093575654
 20
239.857198280857
 10
186.6937500069935
 20
239.8713083676662
 10
186.9336416688486
 20
239.8783654296812
 10
187.1664762686887
 20
239.8783654296812
 10
187.3993108685281
 20
239.8783654296812
 10
187.6286169373611
 20
239.8713083676662
 10
187.8543944751863
 20
239.857198280857
 10
188.0731189882171
 20
239.8501412188426
 10
188.2389236105786
 20
239.8430841568277
 10
188.3518123794915
 20
239.836031132034
 10
188.3518123794915
 20
239.836031132034
 10
188.3518123794915
 20
240.0582801388514
 10
188.3518123794915
 20
240.0582801388514
 10
188.0978106308278
 20
240.0582801388514
 10
187.9178959216577
 20
240.1112000295213
 10
187.8120642147597
 20
240.2170317364186
 10
187.7062325078617
 20
240.3228674805371
 10
187.6533126171925
 20
240.5239493385309
 10
187.6533126171925
 20
240.8202813476218
 10
187.6533126171925
 20
240.8202813476218
 10
187.6533126171925
 20
243.8788637012838
 10
187.6533126171925
 20
243.8788637012838
 10
187.6533126171925
 20
244.097584177094
 10
187.6709512350083
 20
244.298670072309
 10
187.7062284706411
 20
244.4821133124864
 10
187.7415057062734
 20
244.6655565526643
 10
187.8226457705612
 20
244.8137225572094
 10
187.9496446262827
 20
244.9266113261223
 10
188.0695864199893
 20
245.0395000950353
 10
188.2565581911744
 20
245.095944479491
 10
188.5105599398381
 20
245.095944479491
 10
188.8068919489283
 20
245.095944479491
 10
189.067950759607
 20
245.0112758841967
 10
189.2937282974321
 20
244.8419427308273
 10
189.512452810463
 20
244.6726095774586
 10
189.6853104576188
 20
244.4397749776185
 10
189.812313350561
 20
244.1434429685283
 10
189.9322591814882
 20
243.854168021453
 10
189.9922240225105
 20
243.5296118015236
 10
189.9922280597312
 20
243.1697783459626
 10
189.9922280597312
 20
243.1697783459626
 10
189.9922280597312
 20
240.8202773104012
 10
189.9922280597312
 20
240.8202773104012
 10
189.9922240225105
 20
240.5239453013109
 10
189.9393122062825
 20
240.3228634433165
 10
189.833476462164
 20
240.2170276991979
 10
189.7276407180454
 20
240.1111959923
 10
189.5477260088752
 20
240.0582761016307
 10
189.2937282974321
 20
240.0582761016307
 10
189.2937282974321
 20
240.0582761016307
 10
189.2937282974321
 20
239.8360270948128
 10
189.2937282974321
 20
239.8360270948128
 10
189.4066170663444
 20
239.8430801196071
 10
189.5759502197137
 20
239.8501371816214
 10
189.8017277575389
 20
239.8571942436363
 10
190.0204522705697
 20
239.8713043304456
 10
190.2462257711743
 20
239.8783613924599
 10
190.4790603710143
 20
239.8783613924599
 10
190.7118949708545
 20
239.8783613924599
 10
190.9517825954882
 20
239.8713043304456
 10
191.1987272821369
 20
239.8571942436363
 10
191.4456679315651
 20
239.8501371816214
 10
191.6291152089637
 20
239.8430841568277
 10
191.7490610398915
 20
239.8360270948128
 10
191.7490610398915
 20
239.8360270948128
 10
191.7490610398915
 20
240.0582761016307
 10
191.7490610398915
 20
240.0582761016307
 10
191.459782055595
 20
240.0582761016307
 10
191.2551716665934
 20
240.1111959923
 10
191.1352258356662
 20
240.2170276991979
 10
191.0082269799447
 20
240.3228634433165
 10
190.9447255334733
 20
240.5239453013109
 10
190.9447255334733
 20
240.8202773104012
 10
190.9447255334733
 20
240.8202773104012
 10
190.9447255334733
 20
244.1328614127268
 10
190.9447255334733
 20
244.1328614127268
 10
190.9447255334733
 20
244.4503605706406
 10
191.0011699179297
 20
244.6831951704808
 10
191.1140586868426
 20
244.8313611750259
 10
191.2269474557549
 20
244.986584241586
 10
191.4386149067714
 20
245.064195774866
 10
191.7490570026702
 20
245.064195774866
 10
191.7490570026702
 20
245.064195774866
 10
191.7490570026702
 20
245.2864447816839
 10
191.7490570026702
 20
245.2864447816839
 10
191.5232794648451
 20
245.2652776328597
 10
191.3045589890349
 20
245.2546960770589
 10
191.0928915380184
 20
245.2546960770589
 10
190.8882771117962
 20
245.2546960770589
 10
190.6942482785961
 20
245.2652776328597
 10
190.5108090756394
 20
245.2864447816839
 10
190.3203047362259
 20
245.3146649553012
 10
190.1474470890706
 20
245.3534707219413
 10
189.9922240225105
 20
245.4028620816034
 10
189.9922240225105
 20
245.4028620816034
 10
189.9922240225105
 20
244.1540285615504
 10
189.9922240225105
 20
244.1540285615504
 10
189.8087807823326
 20
244.6338078480393
 10
189.5547790336689
 20
244.9654130555417
 10
189.2302228137401
 20
245.1488603329403
 10
188.898613569017
 20
245.339356597912
 10
188.552886163044
 20
245.4346107862285
 10
188.193056744703
 20
245.4346107862285
 10
188.193056744703
 20
245.4346107862285
 10
188.1930607819236
 20
245.4346107862285
 10
188.1930607819236
 20
245.4346107862285
 97
        0
 97
        1
330
A4
 75
     2
 76
     1
 98
        1
 10
0.0
 20
0.0
450
        0
451
        0
460
0.0
461
0.0
452
        0
462
0.0
453
        0
470

  0
SPLINE
  5
A6
330
95
100
AcDbEntity
  8
svg1789
100
AcDbSpline
210
0.0
220
0.0
230
1.0
 70
     9
 71
     3
 72
   137
 73
   133
 74
     0
 42
0.0000000001
 43
0.0000000001
 40
0.0
 40
0.0
 40
0.0
 40
0.0
 40
1.0
 40
1.0
 40
1.0
 40
2.0
 40
2.0
 40
2.0
 40
3.0
 40
3.0
 40
3.0
 40
4.0
 40
4.0
 40
4.0
 40
5.0
 40
5.0
 40
5.0
 40
6.0
 40
6.0
 40
6.0
 40
7.0
 40
7.0
 40
7.0
 40
8.0
 40
8.0
 40
8.0
 40
9.0
 40
9.0
 40
9.0
 40
10.0
 40
10.0
 40
10.0
 40
11.0
 40
11.0
 40
11.0
 40
12.0
 40
12.0
 40
12.0
 40
13.0
 40
13.0
 40
13.0
 40
14.0
 40
14.0
 40
14.0
 40
15.0
 40
15.0
 40
15.0
 40
16.0
 40
16.0
 40
16.0
 40
17.0
 40
17.0
 40
17.0
 40
18.0
 40
18.0
 40
18.0
 40
19.0
 40
19.0
 40
19.0
 40
20.0
 40
20.0
 40
20.0
 40
21.0
 40
21.0
 40
21.0
 40
22.0
 40
22.0
 40
22.0
 40
23.0
 40
23.0
 40
23.0
 40
24.0
 40
24.0
 40
24.0
 40
25.0
 40
25.0
 40
25.0
 40
26.0
 40
26.0
 40
26.0
 40
27.0
 40
27.0
 40
27.0
 40
28.0
 40
28.0
 40
28.0
 40
29.0
 40
29.0
 40
29.0
 40
30.0
 40
30.0
 40
30.0
 40
31.0
 40
31.0
 40
31.0
 40
32.0
 40
32.0
 40
32.0
 40
33.0
 40
33.0
 40
33.0
 40
34.0
 40
34.0
 40
34.0
 40
35.0
 40
35.0
 40
35.0
 40
36.0
 40
36.0
 40
36.0
 40
37.0
 40
37.0
 40
37.0
 40
38.0
 40
38.0
 40
38.0
 40
39.0
 40
39.0
 40
39.0
 40
40.0
 40
40.0
 40
40.0
 40
41.0
 40
41.0
 40
41.0
 40
42.0
 40
42.0
 40
42.0
 40
43.0
 40
43.0
 40
43.0
 40
44.0
 40
44.0
 40
44.0
 40
44.0
 10
181.8748061421641
 20
245.4346107862285
 30
0.0
 10
181.6066902694704
 20
245.4346107862285
 30
0.0
 10
181.3844452998737
 20
245.3993335505962
 30
0.0
 10
181.2080550844901
 20
245.3287790793311
 30
0.0
 10
181.0246118443121
 20
245.2582246080661
 30
0.0
 10
180.8729173087598
 20
245.1594499631831
 30
0.0
 10
180.752971477832
 20
245.0324470702409
 30
0.0
 10
180.6189195973168
 20
244.8913340904895
 30
0.0
 10
180.5236654089997
 20
244.7149438751058
 30
0.0
 10
180.4672210245432
 20
244.5032804613106
 30
0.0
 10
180.4107766400868
 20
244.291613010294
 30
0.0
 10
180.3825524292482
 20
244.0058625570053
 30
0.0
 10
180.3825524292482
 20
243.6460291014437
 30
0.0
 10
180.3825524292482
 20
243.6460291014437
 30
0.0
 10
180.3825524292482
 20
240.8202813476218
 30
0.0
 10
180.3825524292482
 20
240.8202813476218
 30
0.0
 10
180.3825524292482
 20
240.5239493385309
 30
0.0
 10
180.3225795137846
 20
240.3228674805371
 30
0.0
 10
180.2026377200781
 20
240.2170317364186
 30
0.0
 10
180.0756388643565
 20
240.1112000295213
 30
0.0
 10
179.8674999443478
 20
240.0582801388514
 30
0.0
 10
179.5782209600513
 20
240.0582801388514
 30
0.0
 10
179.5782209600513
 20
240.0582801388514
 30
0.0
 10
179.5782209600513
 20
239.836031132034
 30
0.0
 10
179.5782209600513
 20
239.836031132034
 30
0.0
 10
179.6981627537578
 20
239.8430841568277
 30
0.0
 10
179.8816100311564
 20
239.8501412188426
 30
0.0
 10
180.1285547178058
 20
239.857198280857
 30
0.0
 10
180.3754994044546
 20
239.8713083676662
 30
0.0
 10
180.6153870290883
 20
239.8783654296812
 30
0.0
 10
180.8482216289285
 20
239.8783654296812
 30
0.0
 10
181.0810562287685
 20
239.8783654296812
 30
0.0
 10
181.3103582603802
 20
239.8713083676662
 30
0.0
 10
181.536139835426
 20
239.857198280857
 30
0.0
 10
181.7548643484575
 20
239.8501412188426
 30
0.0
 10
181.920668970819
 20
239.8430841568277
 30
0.0
 10
182.0335577397313
 20
239.836031132034
 30
0.0
 10
182.0335577397313
 20
239.836031132034
 30
0.0
 10
182.0335577397313
 20
240.0582801388514
 30
0.0
 10
182.0335577397313
 20
240.0582801388514
 30
0.0
 10
181.7795600282889
 20
240.0582801388514
 30
0.0
 10
181.5996412818974
 20
240.1112000295213
 30
0.0
 10
181.4938095749995
 20
240.2170317364186
 30
0.0
 10
181.3879778681022
 20
240.3228674805371
 30
0.0
 10
181.3350579774322
 20
240.5239493385309
 30
0.0
 10
181.3350579774322
 20
240.8202813476218
 30
0.0
 10
181.3350579774322
 20
240.8202813476218
 30
0.0
 10
181.3350579774322
 20
243.8788637012838
 30
0.0
 10
181.3350579774322
 20
243.8788637012838
 30
0.0
 10
181.3350579774322
 20
244.097584177094
 30
0.0
 10
181.3526965952487
 20
244.298670072309
 30
0.0
 10
181.3879738308809
 20
244.4821133124864
 30
0.0
 10
181.4232510665138
 20
244.6655565526643
 30
0.0
 10
181.5043870935803
 20
244.8137225572094
 30
0.0
 10
181.6313899865225
 20
244.9266113261223
 30
0.0
 10
181.751331780229
 20
245.0395000950353
 30
0.0
 10
181.9383035514142
 20
245.095944479491
 30
0.0
 10
182.1923053000779
 20
245.095944479491
 30
0.0
 10
182.4886373091681
 20
245.095944479491
 30
0.0
 10
182.7496920826261
 20
245.0112758841967
 30
0.0
 10
182.9754736576719
 20
244.8419427308273
 30
0.0
 10
183.1941981707034
 20
244.6726095774586
 30
0.0
 10
183.3670598550799
 20
244.4397749776185
 30
0.0
 10
183.4940587108008
 20
244.1434429685283
 30
0.0
 10
183.6140045417286
 20
243.854168021453
 30
0.0
 10
183.6739734199716
 20
243.5296118015236
 30
0.0
 10
183.6739734199716
 20
243.1697783459626
 30
0.0
 10
183.6739734199716
 20
243.1697783459626
 30
0.0
 10
183.6739734199716
 20
240.8202773104012
 30
0.0
 10
183.6739734199716
 20
240.8202773104012
 30
0.0
 10
183.6739734199716
 20
240.5239453013109
 30
0.0
 10
183.6210535293017
 20
240.3228634433165
 30
0.0
 10
183.5152218224037
 20
240.2170276991979
 30
0.0
 10
183.4093860782851
 20
240.1111959923
 30
0.0
 10
183.229471369115
 20
240.0582761016307
 30
0.0
 10
182.9754736576719
 20
240.0582761016307
 30
0.0
 10
182.9754736576719
 20
240.0582761016307
 30
0.0
 10
182.9754736576719
 20
239.8360270948128
 30
0.0
 10
182.9754736576719
 20
239.8360270948128
 30
0.0
 10
183.0883624265848
 20
239.8430801196071
 30
0.0
 10
183.2576955799535
 20
239.8501371816214
 30
0.0
 10
183.4834731177787
 20
239.8571942436363
 30
0.0
 10
183.7021976308101
 20
239.8713043304456
 30
0.0
 10
183.9279751686353
 20
239.8783613924599
 30
0.0
 10
184.1608057312541
 20
239.8783613924599
 30
0.0
 10
184.3936403310942
 20
239.8783613924599
 30
0.0
 10
184.6335319929493
 20
239.8713043304456
 30
0.0
 10
184.8804726423774
 20
239.8571942436363
 30
0.0
 10
185.1274173290261
 20
239.8501371816214
 30
0.0
 10
185.3108565319828
 20
239.8430841568277
 30
0.0
 10
185.4308064001313
 20
239.8360270948128
 30
0.0
 10
185.4308064001313
 20
239.8360270948128
 30
0.0
 10
185.4308064001313
 20
240.0582761016307
 30
0.0
 10
185.4308064001313
 20
240.0582761016307
 30
0.0
 10
185.141531453056
 20
240.0582761016307
 30
0.0
 10
184.9369129896126
 20
240.1111959923
 30
0.0
 10
184.816971195906
 20
240.2170276991979
 30
0.0
 10
184.6899723401844
 20
240.3228634433165
 30
0.0
 10
184.6264668564924
 20
240.5239453013109
 30
0.0
 10
184.6264708937137
 20
240.8202773104012
 30
0.0
 10
184.6264708937137
 20
240.8202773104012
 30
0.0
 10
184.6264708937137
 20
244.1328614127268
 30
0.0
 10
184.6264708937137
 20
244.1328614127268
 30
0.0
 10
184.6264668564924
 20
244.4503605706406
 30
0.0
 10
184.6829152781701
 20
244.6831951704808
 30
0.0
 10
184.7958040470824
 20
244.8313611750259
 30
0.0
 10
184.9086928159953
 20
244.986584241586
 30
0.0
 10
185.1203602670111
 20
245.064195774866
 30
0.0
 10
185.4308023629107
 20
245.064195774866
 30
0.0
 10
185.4308023629107
 20
245.064195774866
 30
0.0
 10
185.4308023629107
 20
245.2864447816839
 30
0.0
 10
185.4308023629107
 20
245.2864447816839
 30
0.0
 10
185.2050248250855
 20
245.2652776328597
 30
0.0
 10
184.9863043492753
 20
245.2546960770589
 30
0.0
 10
184.7746368982588
 20
245.2546960770589
 30
0.0
 10
184.5700224720366
 20
245.2546960770589
 30
0.0
 10
184.3759976760572
 20
245.2652776328597
 30
0.0
 10
184.1925544358798
 20
245.2864447816839
 30
0.0
 10
184.0020541336869
 20
245.3146649553012
 30
0.0
 10
183.8291924493104
 20
245.3534707219413
 30
0.0
 10
183.6739693827503
 20
245.4028620816034
 30
0.0
 10
183.6739693827503
 20
245.4028620816034
 30
0.0
 10
183.6739693827503
 20
244.1540285615504
 30
0.0
 10
183.6739693827503
 20
244.1540285615504
 30
0.0
 10
183.4905221053517
 20
244.6338078480393
 30
0.0
 10
183.2365243939093
 20
244.9654130555417
 30
0.0
 10
182.9119681739805
 20
245.1488603329403
 30
0.0
 10
182.5803548920368
 20
245.339356597912
 30
0.0
 10
182.2346355605044
 20
245.4346107862285
 30
0.0
 10
181.8748021049434
 20
245.4346107862285
 30
0.0
 10
181.8748021049434
 20
245.4346107862285
 30
0.0
 10
181.8748061421641
 20
245.4346107862285
 30
0.0
 10
181.8748061421641
 20
245.4346107862285
 30
0.0
  0
HATCH
  5
A7
330
95
100
AcDbEntity
  8
svg1789
 62
    18
420
        0
440
 33554687
100
AcDbHatch
 10
0.0
 20
0.0
 30
0.0
210
0.0
220
0.0
230
1.0
  2
SOLID
 70
     1
 71
     1
 91
        1
 92
        1
 93
        1
 72
     4
 94
        3
 73
     0
 74
     0
 95
      137
 96
      133
 40
0.0
 40
0.0
 40
0.0
 40
0.0
 40
1.0
 40
1.0
 40
1.0
 40
2.0
 40
2.0
 40
2.0
 40
3.0
 40
3.0
 40
3.0
 40
4.0
 40
4.0
 40
4.0
 40
5.0
 40
5.0
 40
5.0
 40
6.0
 40
6.0
 40
6.0
 40
7.0
 40
7.0
 40
7.0
 40
8.0
 40
8.0
 40
8.0
 40
9.0
 40
9.0
 40
9.0
 40
10.0
 40
10.0
 40
10.0
 40
11.0
 40
11.0
 40
11.0
 40
12.0
 40
12.0
 40
12.0
 40
13.0
 40
13.0
 40
13.0
 40
14.0
 40
14.0
 40
14.0
 40
15.0
 40
15.0
 40
15.0
 40
16.0
 40
16.0
 40
16.0
 40
17.0
 40
17.0
 40
17.0
 40
18.0
 40
18.0
 40
18.0
 40
19.0
 40
19.0
 40
19.0
 40
20.0
 40
20.0
 40
20.0
 40
21.0
 40
21.0
 40
21.0
 40
22.0
 40
22.0
 40
22.0
 40
23.0
 40
23.0
 40
23.0
 40
24.0
 40
24.0
 40
24.0
 40
25.0
 40
25.0
 40
25.0
 40
26.0
 40
26.0
 40
26.0
 40
27.0
 40
27.0
 40
27.0
 40
28.0
 40
28.0
 40
28.0
 40
29.0
 40
29.0
 40
29.0
 40
30.0
 40
30.0
 40
30.0
 40
31.0
 40
31.0
 40
31.0
 40
32.0
 40
32.0
 40
32.0
 40
33.0
 40
33.0
 40
33.0
 40
34.0
 40
34.0
 40
34.0
 40
35.0
 40
35.0
 40
35.0
 40
36.0
 40
36.0
 40
36.0
 40
37.0
 40
37.0
 40
37.0
 40
38.0
 40
38.0
 40
38.0
 40
39.0
 40
39.0
 40
39.0
 40
40.0
 40
40.0
 40
40.0
 40
41.0
 40
41.0
 40
41.0
 40
42.0
 40
42.0
 40
42.0
 40
43.0
 40
43.0
 40
43.0
 40
44.0
 40
44.0
 40
44.0
 40
44.0
 10
181.8748061421641
 20
245.4346107862285
 10
181.6066902694704
 20
245.4346107862285
 10
181.3844452998737
 20
245.3993335505962
 10
181.2080550844901
 20
245.3287790793311
 10
181.0246118443121
 20
245.2582246080661
 10
180.8729173087598
 20
245.1594499631831
 10
180.752971477832
 20
245.0324470702409
 10
180.6189195973168
 20
244.8913340904895
 10
180.5236654089997
 20
244.7149438751058
 10
180.4672210245432
 20
244.5032804613106
 10
180.4107766400868
 20
244.291613010294
 10
180.3825524292482
 20
244.0058625570053
 10
180.3825524292482
 20
243.6460291014437
 10
180.3825524292482
 20
243.6460291014437
 10
180.3825524292482
 20
240.8202813476218
 10
180.3825524292482
 20
240.8202813476218
 10
180.3825524292482
 20
240.5239493385309
 10
180.3225795137846
 20
240.3228674805371
 10
180.2026377200781
 20
240.2170317364186
 10
180.0756388643565
 20
240.1112000295213
 10
179.8674999443478
 20
240.0582801388514
 10
179.5782209600513
 20
240.0582801388514
 10
179.5782209600513
 20
240.0582801388514
 10
179.5782209600513
 20
239.836031132034
 10
179.5782209600513
 20
239.836031132034
 10
179.6981627537578
 20
239.8430841568277
 10
179.8816100311564
 20
239.8501412188426
 10
180.1285547178058
 20
239.857198280857
 10
180.3754994044546
 20
239.8713083676662
 10
180.6153870290883
 20
239.8783654296812
 10
180.8482216289285
 20
239.8783654296812
 10
181.0810562287685
 20
239.8783654296812
 10
181.3103582603802
 20
239.8713083676662
 10
181.536139835426
 20
239.857198280857
 10
181.7548643484575
 20
239.8501412188426
 10
181.920668970819
 20
239.8430841568277
 10
182.0335577397313
 20
239.836031132034
 10
182.0335577397313
 20
239.836031132034
 10
182.0335577397313
 20
240.0582801388514
 10
182.0335577397313
 20
240.0582801388514
 10
181.7795600282889
 20
240.0582801388514
 10
181.5996412818974
 20
240.1112000295213
 10
181.4938095749995
 20
240.2170317364186
 10
181.3879778681022
 20
240.3228674805371
 10
181.3350579774322
 20
240.5239493385309
 10
181.3350579774322
 20
240.8202813476218
 10
181.3350579774322
 20
240.8202813476218
 10
181.3350579774322
 20
243.8788637012838
 10
181.3350579774322
 20
243.8788637012838
 10
181.3350579774322
 20
244.097584177094
 10
181.3526965952487
 20
244.298670072309
 10
181.3879738308809
 20
244.4821133124864
 10
181.4232510665138
 20
244.6655565526643
 10
181.5043870935803
 20
244.8137225572094
 10
181.6313899865225
 20
244.9266113261223
 10
181.751331780229
 20
245.0395000950353
 10
181.9383035514142
 20
245.095944479491
 10
182.1923053000779
 20
245.095944479491
 10
182.4886373091681
 20
245.095944479491
 10
182.7496920826261
 20
245.0112758841967
 10
182.9754736576719
 20
244.8419427308273
 10
183.1941981707034
 20
244.6726095774586
 10
183.3670598550799
 20
244.4397749776185
 10
183.4940587108008
 20
244.1434429685283
 10
183.6140045417286
 20
243.854168021453
 10
183.6739734199716
 20
243.5296118015236
 10
183.6739734199716
 20
243.1697783459626
 10
183.6739734199716
 20
243.1697783459626
 10
183.6739734199716
 20
240.8202773104012
 10
183.6739734199716
 20
240.8202773104012
 10
183.6739734199716
 20
240.5239453013109
 10
183.6210535293017
 20
240.3228634433165
 10
183.5152218224037
 20
240.2170276991979
 10
183.4093860782851
 20
240.1111959923
 10
183.229471369115
 20
240.0582761016307
 10
182.9754736576719
 20
240.0582761016307
 10
182.9754736576719
 20
240.0582761016307
 10
182.9754736576719
 20
239.8360270948128
 10
182.9754736576719
 20
239.8360270948128
 10
183.0883624265848
 20
239.8430801196071
 10
183.2576955799535
 20
239.8501371816214
 10
183.4834731177787
 20
239.8571942436363
 10
183.7021976308101
 20
239.8713043304456
 10
183.9279751686353
 20
239.8783613924599
 10
184.1608057312541
 20
239.8783613924599
 10
184.3936403310942
 20
239.8783613924599
 10
184.6335319929493
 20
239.8713043304456
 10
184.8804726423774
 20
239.8571942436363
 10
185.1274173290261
 20
239.8501371816214
 10
185.3108565319828
 20
239.8430841568277
 10
185.4308064001313
 20
239.8360270948128
 10
185.4308064001313
 20
239.8360270948128
 10
185.4308064001313
 20
240.0582761016307
 10
185.4308064001313
 20
240.0582761016307
 10
185.141531453056
 20
240.0582761016307
 10
184.9369129896126
 20
240.1111959923
 10
184.816971195906
 20
240.2170276991979
 10
184.6899723401844
 20
240.3228634433165
 10
184.6264668564924
 20
240.5239453013109
 10
184.6264708937137
 20
240.8202773104012
 10
184.6264708937137
 20
240.8202773104012
 10
184.6264708937137
 20
244.1328614127268
 10
184.6264708937137
 20
244.1328614127268
 10
184.6264668564924
 20
244.4503605706406
 10
184.6829152781701
 20
244.6831951704808
 10
184.7958040470824
 20
244.8313611750259
 10
184.9086928159953
 20
244.986584241586
 10
185.1203602670111
 20
245.064195774866
 10
185.4308023629107
 20
245.064195774866
 10
185.4308023629107
 20
245.064195774866
 10
185.4308023629107
 20
245.2864447816839
 10
185.4308023629107
 20
245.2864447816839
 10
185.2050248250855
 20
245.2652776328597
 10
184.9863043492753
 20
245.2546960770589
 10
184.7746368982588
 20
245.2546960770589
 10
184.5700224720366
 20
245.2546960770589
 10
184.3759976760572
 20
245.2652776328597
 10
184.1925544358798
 20
245.2864447816839
 10
184.0020541336869
 20
245.3146649553012
 10
183.8291924493104
 20
245.3534707219413
 10
183.6739693827503
 20
245.4028620816034
 10
183.6739693827503
 20
245.4028620816034
 10
183.6739693827503
 20
244.1540285615504
 10
183.6739693827503
 20
244.1540285615504
 10
183.4905221053517
 20
244.6338078480393
 10
183.2365243939093
 20
244.9654130555417
 10
182.9119681739805
 20
245.1488603329403
 10
182.5803548920368
 20
245.339356597912
 10
182.2346355605044
 20
245.4346107862285
 10
181.8748021049434
 20
245.4346107862285
 10
181.8748021049434
 20
245.4346107862285
 10
181.8748061421641
 20
245.4346107862285
 10
181.8748061421641
 20
245.4346107862285
 97
        0
 97
        1
330
A6
 75
     2
 76
     1
 98
        1
 10
0.0
 20
0.0
450
        0
451
        0
460
0.0
461
0.0
452
        0
462
0.0
453
        0
470

  0
SPLINE
  5
A8
330
95
100
AcDbEntity
  8
svg1789
100
AcDbSpline
210
0.0
220
0.0
230
1.0
 70
     9
 71
     3
 72
    95
 73
    91
 74
     0
 42
0.0000000001
 43
0.0000000001
 40
0.0
 40
0.0
 40
0.0
 40
0.0
 40
1.0
 40
1.0
 40
1.0
 40
2.0
 40
2.0
 40
2.0
 40
3.0
 40
3.0
 40
3.0
 40
4.0
 40
4.0
 40
4.0
 40
5.0
 40
5.0
 40
5.0
 40
6.0
 40
6.0
 40
6.0
 40
7.0
 40
7.0
 40
7.0
 40
8.0
 40
8.0
 40
8.0
 40
9.0
 40
9.0
 40
9.0
 40
10.0
 40
10.0
 40
10.0
 40
11.0
 40
11.0
 40
11.0
 40
12.0
 40
12.0
 40
12.0
 40
13.0
 40
13.0
 40
13.0
 40
14.0
 40
14.0
 40
14.0
 40
15.0
 40
15.0
 40
15.0
 40
16.0
 40
16.0
 40
16.0
 40
17.0
 40
17.0
 40
17.0
 40
18.0
 40
18.0
 40
18.0
 40
19.0
 40
19.0
 40
19.0
 40
20.0
 40
20.0
 40
20.0
 40
21.0
 40
21.0
 40
21.0
 40
22.0
 40
22.0
 40
22.0
 40
23.0
 40
23.0
 40
23.0
 40
24.0
 40
24.0
 40
24.0
 40
25.0
 40
25.0
 40
25.0
 40
26.0
 40
26.0
 40
26.0
 40
27.0
 40
27.0
 40
27.0
 40
28.0
 40
28.0
 40
28.0
 40
29.0
 40
29.0
 40
29.0
 40
30.0
 40
30.0
 40
30.0
 40
30.0
 10
176.5408097924342
 20
245.4346107862285
 30
0.0
 10
175.9199215634145
 20
245.4346107862285
 30
0.0
 10
175.4366137459185
 20
245.2441104840362
 30
0.0
 10
175.0908944143868
 20
244.8631098796509
 30
0.0
 10
174.7381180208401
 20
244.4891663372807
 30
0.0
 10
174.5617318426771
 20
243.9035553438945
 30
0.0
 10
174.5617278054565
 20
243.1062768994912
 30
0.0
 10
174.5617278054565
 20
243.1062768994912
 30
0.0
 10
178.2976427725939
 20
243.1062768994912
 30
0.0
 10
178.2976427725939
 20
243.1062768994912
 30
0.0
 10
178.2976427725939
 20
243.1062768994912
 30
0.0
 10
178.3082243283953
 20
243.307358757485
 30
0.0
 10
178.3082243283953
 20
243.307358757485
 30
0.0
 10
178.3082243283953
 20
243.307358757485
 30
0.0
 10
175.5777267256693
 20
243.307358757485
 30
0.0
 10
175.5777267256693
 20
243.307358757485
 30
0.0
 10
175.5636166388607
 20
243.653082126238
 30
0.0
 10
175.5918368124786
 20
243.9705853213724
 30
0.0
 10
175.6623953209643
 20
244.2598602684483
 30
0.0
 10
175.7329497922294
 20
244.5561922775386
 30
0.0
 10
175.8458345239216
 20
244.7925513711652
 30
0.0
 10
176.0010616277023
 20
244.9689415865489
 30
0.0
 10
176.1492316694681
 20
245.1453277647113
 30
0.0
 10
176.3432524282263
 20
245.2335248910141
 30
0.0
 10
176.5831440900813
 20
245.2335248910141
 30
0.0
 10
176.9077003100101
 20
245.2335248910141
 30
0.0
 10
177.196975257086
 20
245.0712487996603
 30
0.0
 10
177.4509770057497
 20
244.7466925797309
 30
0.0
 10
177.6979176551778
 20
244.4221403970227
 30
0.0
 10
177.8460836597229
 20
243.907079837681
 30
0.0
 10
177.8954750193851
 20
243.2015270505877
 30
0.0
 10
177.8954750193851
 20
243.2015270505877
 30
0.0
 10
177.86372631476
 20
243.1591927529399
 30
0.0
 10
177.86372631476
 20
243.1591927529399
 30
0.0
 10
177.8778404387893
 20
243.053361046042
 30
0.0
 10
177.8884219945908
 20
242.9369437461225
 30
0.0
 10
177.8954750193851
 20
242.8099408531797
 30
0.0
 10
177.9025320814
 20
242.6829419974582
 30
0.0
 10
177.9060565751865
 20
242.5559431417366
 30
0.0
 10
177.9060565751865
 20
242.4289402487951
 30
0.0
 10
177.9060565751865
 20
241.9491649995263
 30
0.0
 10
177.8284450419065
 20
241.5364156905166
 30
0.0
 10
177.6732219753464
 20
241.1906923217636
 30
0.0
 10
177.5179989087864
 20
240.8449689530113
 30
0.0
 10
177.3169130135713
 20
240.5803856485461
 30
0.0
 10
177.0699723641432
 20
240.3969424083681
 30
0.0
 10
176.8159746527008
 20
240.2205562302051
 30
0.0
 10
176.5549158420222
 20
240.132359103903
 30
0.0
 10
176.2868040065492
 20
240.132359103903
 30
0.0
 10
176.0751405927539
 20
240.132359103903
 30
0.0
 10
175.8740546975389
 20
240.164107808528
 30
0.0
 10
175.6835543953466
 20
240.2276092549994
 30
0.0
 10
175.4930540931537
 20
240.2981596890439
 30
0.0
 10
175.31666387777
 20
240.4110524951768
 30
0.0
 10
175.1543877864163
 20
240.5662755617368
 30
0.0
 10
174.9921076578413
 20
240.7214986282969
 30
0.0
 10
174.8509987153111
 20
240.9296375483063
 30
0.0
 10
174.7310528843833
 20
241.1906923217636
 30
0.0
 10
174.7310528843833
 20
241.1906923217636
 30
0.0
 10
174.5193854333674
 20
241.1060237264693
 30
0.0
 10
174.5193854333674
 20
241.1060237264693
 30
0.0
 10
174.597001003868
 20
240.8731891266292
 30
0.0
 10
174.7239958223689
 20
240.6474115888034
 30
0.0
 10
174.9003860377526
 20
240.4286911129932
 30
0.0
 10
175.076772215915
 20
240.2099665999624
 30
0.0
 10
175.2990252599536
 20
240.0300518907922
 30
0.0
 10
175.5671370954266
 20
239.8889429482621
 30
0.0
 10
175.8352489308989
 20
239.7548910677462
 30
0.0
 10
176.145695064019
 20
239.6878610902676
 30
0.0
 10
176.4984714575657
 20
239.6878610902676
 30
0.0
 10
177.0064709176725
 20
239.6878610902676
 30
0.0
 10
177.4439199437348
 20
239.8042783901877
 30
0.0
 10
177.8108064240901
 20
240.0371129900278
 30
0.0
 10
178.1706398796517
 20
240.2699475898679
 30
0.0
 10
178.4493332709255
 20
240.5909712415682
 30
0.0
 10
178.6468906351334
 20
241.000196056792
 30
0.0
 10
178.8373909373257
 20
241.4164698595888
 30
0.0
 10
178.9326410884221
 20
241.8927246522911
 30
0.0
 10
178.9326410884221
 20
242.4289442860158
 30
0.0
 10
178.9326410884221
 20
243.0498325150348
 30
0.0
 10
178.8338624063185
 20
243.5825276549723
 30
0.0
 10
178.6363090793319
 20
244.0270256686082
 30
0.0
 10
178.4387557523453
 20
244.4785807442586
 30
0.0
 10
178.1600583238502
 20
244.8243041130109
 30
0.0
 10
177.8002248682886
 20
245.0641917376447
 30
0.0
 10
177.440391412727
 20
245.311136424294
 30
0.0
 10
177.0205850417017
 20
245.4346027117872
 30
0.0
 10
176.5408097924342
 20
245.4346067490085
 30
0.0
 10
176.5408097924342
 20
245.4346067490085
 30
0.0
 10
176.5408097924342
 20
245.4346107862285
 30
0.0
 10
176.5408097924342
 20
245.4346107862285
 30
0.0
  0
HATCH
  5
A9
330
95
100
AcDbEntity
  8
svg1789
 62
    18
420
        0
440
 33554687
100
AcDbHatch
 10
0.0
 20
0.0
 30
0.0
210
0.0
220
0.0
230
1.0
  2
SOLID
 70
     1
 71
     1
 91
        1
 92
        1
 93
        1
 72
     4
 94
        3
 73
     0
 74
     0
 95
       95
 96
       91
 40
0.0
 40
0.0
 40
0.0
 40
0.0
 40
1.0
 40
1.0
 40
1.0
 40
2.0
 40
2.0
 40
2.0
 40
3.0
 40
3.0
 40
3.0
 40
4.0
 40
4.0
 40
4.0
 40
5.0
 40
5.0
 40
5.0
 40
6.0
 40
6.0
 40
6.0
 40
7.0
 40
7.0
 40
7.0
 40
8.0
 40
8.0
 40
8.0
 40
9.0
 40
9.0
 40
9.0
 40
10.0
 40
10.0
 40
10.0
 40
11.0
 40
11.0
 40
11.0
 40
12.0
 40
12.0
 40
12.0
 40
13.0
 40
13.0
 40
13.0
 40
14.0
 40
14.0
 40
14.0
 40
15.0
 40
15.0
 40
15.0
 40
16.0
 40
16.0
 40
16.0
 40
17.0
 40
17.0
 40
17.0
 40
18.0
 40
18.0
 40
18.0
 40
19.0
 40
19.0
 40
19.0
 40
20.0
 40
20.0
 40
20.0
 40
21.0
 40
21.0
 40
21.0
 40
22.0
 40
22.0
 40
22.0
 40
23.0
 40
23.0
 40
23.0
 40
24.0
 40
24.0
 40
24.0
 40
25.0
 40
25.0
 40
25.0
 40
26.0
 40
26.0
 40
26.0
 40
27.0
 40
27.0
 40
27.0
 40
28.0
 40
28.0
 40
28.0
 40
29.0
 40
29.0
 40
29.0
 40
30.0
 40
30.0
 40
30.0
 40
30.0
 10
176.5408097924342
 20
245.4346107862285
 10
175.9199215634145
 20
245.4346107862285
 10
175.4366137459185
 20
245.2441104840362
 10
175.0908944143868
 20
244.8631098796509
 10
174.7381180208401
 20
244.4891663372807
 10
174.5617318426771
 20
243.9035553438945
 10
174.5617278054565
 20
243.1062768994912
 10
174.5617278054565
 20
243.1062768994912
 10
178.2976427725939
 20
243.1062768994912
 10
178.2976427725939
 20
243.1062768994912
 10
178.2976427725939
 20
243.1062768994912
 10
178.3082243283953
 20
243.307358757485
 10
178.3082243283953
 20
243.307358757485
 10
178.3082243283953
 20
243.307358757485
 10
175.5777267256693
 20
243.307358757485
 10
175.5777267256693
 20
243.307358757485
 10
175.5636166388607
 20
243.653082126238
 10
175.5918368124786
 20
243.9705853213724
 10
175.6623953209643
 20
244.2598602684483
 10
175.7329497922294
 20
244.5561922775386
 10
175.8458345239216
 20
244.7925513711652
 10
176.0010616277023
 20
244.9689415865489
 10
176.1492316694681
 20
245.1453277647113
 10
176.3432524282263
 20
245.2335248910141
 10
176.5831440900813
 20
245.2335248910141
 10
176.9077003100101
 20
245.2335248910141
 10
177.196975257086
 20
245.0712487996603
 10
177.4509770057497
 20
244.7466925797309
 10
177.6979176551778
 20
244.4221403970227
 10
177.8460836597229
 20
243.907079837681
 10
177.8954750193851
 20
243.2015270505877
 10
177.8954750193851
 20
243.2015270505877
 10
177.86372631476
 20
243.1591927529399
 10
177.86372631476
 20
243.1591927529399
 10
177.8778404387893
 20
243.053361046042
 10
177.8884219945908
 20
242.9369437461225
 10
177.8954750193851
 20
242.8099408531797
 10
177.9025320814
 20
242.6829419974582
 10
177.9060565751865
 20
242.5559431417366
 10
177.9060565751865
 20
242.4289402487951
 10
177.9060565751865
 20
241.9491649995263
 10
177.8284450419065
 20
241.5364156905166
 10
177.6732219753464
 20
241.1906923217636
 10
177.5179989087864
 20
240.8449689530113
 10
177.3169130135713
 20
240.5803856485461
 10
177.0699723641432
 20
240.3969424083681
 10
176.8159746527008
 20
240.2205562302051
 10
176.5549158420222
 20
240.132359103903
 10
176.2868040065492
 20
240.132359103903
 10
176.0751405927539
 20
240.132359103903
 10
175.8740546975389
 20
240.164107808528
 10
175.6835543953466
 20
240.2276092549994
 10
175.4930540931537
 20
240.2981596890439
 10
175.31666387777
 20
240.4110524951768
 10
175.1543877864163
 20
240.5662755617368
 10
174.9921076578413
 20
240.7214986282969
 10
174.8509987153111
 20
240.9296375483063
 10
174.7310528843833
 20
241.1906923217636
 10
174.7310528843833
 20
241.1906923217636
 10
174.5193854333674
 20
241.1060237264693
 10
174.5193854333674
 20
241.1060237264693
 10
174.597001003868
 20
240.8731891266292
 10
174.7239958223689
 20
240.6474115888034
 10
174.9003860377526
 20
240.4286911129932
 10
175.076772215915
 20
240.2099665999624
 10
175.2990252599536
 20
240.0300518907922
 10
175.5671370954266
 20
239.8889429482621
 10
175.8352489308989
 20
239.7548910677462
 10
176.145695064019
 20
239.6878610902676
 10
176.4984714575657
 20
239.6878610902676
 10
177.0064709176725
 20
239.6878610902676
 10
177.4439199437348
 20
239.8042783901877
 10
177.8108064240901
 20
240.0371129900278
 10
178.1706398796517
 20
240.2699475898679
 10
178.4493332709255
 20
240.5909712415682
 10
178.6468906351334
 20
241.000196056792
 10
178.8373909373257
 20
241.4164698595888
 10
178.9326410884221
 20
241.8927246522911
 10
178.9326410884221
 20
242.4289442860158
 10
178.9326410884221
 20
243.0498325150348
 10
178.8338624063185
 20
243.5825276549723
 10
178.6363090793319
 20
244.0270256686082
 10
178.4387557523453
 20
244.4785807442586
 10
178.1600583238502
 20
244.8243041130109
 10
177.8002248682886
 20
245.0641917376447
 10
177.440391412727
 20
245.311136424294
 10
177.0205850417017
 20
245.4346027117872
 10
176.5408097924342
 20
245.4346067490085
 10
176.5408097924342
 20
245.4346067490085
 10
176.5408097924342
 20
245.4346107862285
 10
176.5408097924342
 20
245.4346107862285
 97
        0
 97
        1
330
A8
 75
     2
 76
     1
 98
        1
 10
0.0
 20
0.0
450
        0
451
        0
460
0.0
461
0.0
452
        0
462
0.0
453
        0
470

  0
ENDBLK
  5
98
330
95
100
AcDbEntity
  8
0
100
AcDbBlockEnd
  0
ENDSEC
  0
SECTION
  2
ENTITIES
  0
INSERT
  5
7A
330
70
100
AcDbEntity
  8
svg1789
100
AcDbBlockReference
  2
Block_0
 10
0.0
 20
0.0
 30
0.0
  0
SPLINE
  5
7D
330
70
100
AcDbEntity
  8
svg1789
 62
     1
420
 16711680
370
    20
100
AcDbSpline
210
0.0
220
0.0
230
1.0
 70
     8
 71
     3
 72
    20
 73
    16
 74
     0
 42
0.0000000001
 43
0.0000000001
 40
0.0
 40
0.0
 40
0.0
 40
0.0
 40
1.0
 40
1.0
 40
1.0
 40
2.0
 40
2.0
 40
2.0
 40
3.0
 40
3.0
 40
3.0
 40
4.0
 40
4.0
 40
4.0
 40
5.0
 40
5.0
 40
5.0
 40
5.0
 10
30.02563171154174
 20
107.2974065556112
 30
0.0
 10
30.02563171154174
 20
107.2974065556112
 30
0.0
 10
30.03363113125545
 20
107.2871068735764
 30
0.0
 10
30.03363113125545
 20
107.2871068735764
 30
0.0
 10
30.03363113125545
 20
107.2871068735764
 30
0.0
 10
30.03363113125545
 20
31.47986018340424
 30
0.0
 10
30.03363113125545
 20
31.47986018340424
 30
0.0
 10
30.03363113125545
 20
31.47986018340424
 30
0.0
 10
129.9334553470938
 20
31.47986018340424
 30
0.0
 10
129.9334553470938
 20
31.47986018340424
 30
0.0
 10
129.9334553470938
 20
31.47986018340424
 30
0.0
 10
129.9334553470938
 20
107.2974523319758
 30
0.0
 10
129.9334553470938
 20
107.2974523319758
 30
0.0
 10
129.9334553470938
 20
107.2974523319758
 30
0.0
 10
129.9254597420771
 20
107.2974523319758
 30
0.0
 10
129.9254597420771
 20
107.2974523319758
 30
0.0
  0
INSERT
  5
7F
330
70
100
AcDbEntity
  8
svg1789
100
AcDbBlockReference
  2
Block_1
 10
0.0
 20
0.0
 30
0.0
  0
MTEXT
  5
8A
330
70
100
AcDbEntity
  8
svg1789
100
AcDbMText
 10
34.05890298627694
 20
18.68198283766912
 30
0.0
 40
0.2
 41
0.0
 46
0.0
 71
     7
 72
     1
  1
\C216;\c8388736;\FArial|b0|i0|c1;\H7.492976;\W1.000000;3mm Black Acrylic
 73
     1
 44
1.0
  0
MTEXT
  5
8B
330
70
100
AcDbEntity
  8
svg1789
100
AcDbMText
 10
19.78414984314424
 20
167.7068227526698
 30
0.0
 40
0.2
 41
0.0
 46
0.0
 71
     7
 72
     1
  1
\C216;\c8388736;\FArial|b0|i0|c1;\H7.492976;\W1.000000;3mm Transparent Acrylic
 73
     1
 44
1.0
  0
MTEXT
  5
8C
330
70
100
AcDbEntity
  8
svg1789
100
AcDbMText
 10
271.1589870198839
 20
174.796140242217
 30
0.0
 40
0.2
 41
0.0
 46
0.0
 71
     7
 72
     1
  1
\C216;\c8388736;\FArial|b0|i0|c1;\H7.492976;\W1.000000;3mm Laser Rubber
 73
     1
 44
1.0
  0
MTEXT
  5
8D
330
70
100
AcDbEntity
  8
svg1789
100
AcDbMText
 10
54.34672578936471
 20
277.893034205158
 30
0.0
 40
0.2
 41
0.0
 46
0.0
 71
     7
 72
     1
  1
\C216;\c8388736;\FArial|b0|i0|c1;\H7.492976;\W1.000000;Template
 73
     1
 44
1.0
  0
MTEXT
  5
8E
330
70
100
AcDbEntity
  8
svg1789
100
AcDbMText
 10
168.2102321628085
 20
280.5175079458214
 30
0.0
 40
0.2
 41
0.0
 46
0.0
 71
     7
 72
     1
  1
\C216;\c8388736;\FArial|b0|i0|c1;\H7.492976;\W1.000000;Example
 73
     1
 44
1.0
  0
MTEXT
  5
8F
330
70
100
AcDbEntity
  8
svg1789
100
AcDbMText
 10
52.44830592221778
 20
241.2737362542434
 30
0.0
 40
0.2
 41
0.0
 46
0.0
 71
     7
 72
     1
  1
\C216;\c8388736;\FArial|b0|i0|c1;\H7.493000;\W1.000000;Name Here
 73
     1
 44
1.0
  0
LWPOLYLINE
  5
90
330
70
100
AcDbEntity
  8
svg1789
 62
     1
420
 16711680
370
    25
100
AcDbPolyline
 90
        4
 70
     1
 43
0.0
 10
257.1758950518031
 20
186.07959814593
 10
257.1758950518031
 20
246.0795947533335
 10
387.1758877011773
 20
246.0795947533335
 10
387.1758877011773
 20
186.07959814593
  0
LINE
  5
91
330
70
100
AcDbEntity
  8
svg1789
 62
     1
420
 16711680
370
    20
100
AcDbLine
 10
30.02563171154174
 20
107.2974065556112
 30
0.0
 11
129.9254597420771
 21
107.2974523319758
 31
0.0
  0
SPLINE
  5
92
330
70
100
AcDbEntity
  8
svg1789
 62
     1
420
 16711680
370
    20
100
AcDbSpline
210
0.0
220
0.0
230
1.0
 70
     8
 71
     3
 72
    20
 73
    16
 74
     0
 42
0.0000000001
 43
0.0000000001
 40
0.0
 40
0.0
 40
0.0
 40
0.0
 40
1.0
 40
1.0
 40
1.0
 40
2.0
 40
2.0
 40
2.0
 40
3.0
 40
3.0
 40
3.0
 40
4.0
 40
4.0
 40
4.0
 40
5.0
 40
5.0
 40
5.0
 40
5.0
 10
30.02163390903342
 20
263.5315038900618
 30
0.0
 10
30.02163390903342
 20
263.5315038900618
 30
0.0
 10
30.02963332874712
 20
263.5212042080269
 30
0.0
 10
30.02963332874712
 20
263.5212042080269
 30
0.0
 10
30.02963332874712
 20
263.5212042080269
 30
0.0
 10
30.02963332874712
 20
187.7139575178547
 30
0.0
 10
30.02963332874712
 20
187.7139575178547
 30
0.0
 10
30.02963332874712
 20
187.7139575178547
 30
0.0
 10
129.9294575445854
 20
187.7139575178547
 30
0.0
 10
129.9294575445854
 20
187.7139575178547
 30
0.0
 10
129.9294575445854
 20
187.7139575178547
 30
0.0
 10
129.9294575445854
 20
263.5315496664264
 30
0.0
 10
129.9294575445854
 20
263.5315496664264
 30
0.0
 10
129.9294575445854
 20
263.5315496664264
 30
0.0
 10
129.9214619395688
 20
263.5315496664264
 30
0.0
 10
129.9214619395688
 20
263.5315496664264
 30
0.0
  0
LINE
  5
93
330
70
100
AcDbEntity
  8
svg1789
 62
     1
420
 16711680
370
    20
100
AcDbLine
 10
30.02163390903342
 20
263.5315038900618
 30
0.0
 11
129.9214619395688
 21
263.5315496664264
 31
0.0
  0
SPLINE
  5
94
330
70
100
AcDbEntity
  8
svg1789
 62
     1
420
 16711680
370
    20
100
AcDbSpline
210
0.0
220
0.0
230
1.0
 70
     8
 71
     3
 72
    20
 73
    16
 74
     0
 42
0.0000000001
 43
0.0000000001
 40
0.0
 40
0.0
 40
0.0
 40
0.0
 40
1.0
 40
1.0
 40
1.0
 40
2.0
 40
2.0
 40
2.0
 40
3.0
 40
3.0
 40
3.0
 40
4.0
 40
4.0
 40
4.0
 40
5.0
 40
5.0
 40
5.0
 40
5.0
 10
143.9308694272185
 20
263.5315038900618
 30
0.0
 10
143.9308694272185
 20
263.5315038900618
 30
0.0
 10
143.9388688469322
 20
263.5212042080269
 30
0.0
 10
143.9388688469322
 20
263.5212042080269
 30
0.0
 10
143.9388688469322
 20
263.5212042080269
 30
0.0
 10
143.9388688469322
 20
187.7139575178547
 30
0.0
 10
143.9388688469322
 20
187.7139575178547
 30
0.0
 10
143.9388688469322
 20
187.7139575178547
 30
0.0
 10
243.8386930627709
 20
187.7139575178547
 30
0.0
 10
243.8386930627709
 20
187.7139575178547
 30
0.0
 10
243.8386930627709
 20
187.7139575178547
 30
0.0
 10
243.8386930627709
 20
263.5315496664264
 30
0.0
 10
243.8386930627709
 20
263.5315496664264
 30
0.0
 10
243.8386930627709
 20
263.5315496664264
 30
0.0
 10
243.8306974577542
 20
263.5315496664264
 30
0.0
 10
243.8306974577542
 20
263.5315496664264
 30
0.0
  0
INSERT
  5
96
330
70
100
AcDbEntity
  8
svg1789
100
AcDbBlockReference
  2
Block_2
 10
0.0
 20
0.0
 30
0.0
  0
LINE
  5
AA
330
70
100
AcDbEntity
  8
svg1789
 62
     1
420
 16711680
370
    20
100
AcDbLine
 10
143.9308694272185
 20
263.5315038900618
 30
0.0
 11
243.8306974577542
 21
263.5315496664264
 31
0.0
  0
ENDSEC
  0
SECTION
  2
OBJECTS
  0
DICTIONARY
  5
C
330
0
100
AcDbDictionary
281
     1
  3
ACAD_COLOR
350
63
  3
ACAD_DETAILVIEWSTYLE
350
6A
  3
ACAD_GROUP
350
D
  3
ACAD_LAYOUT
350
62
  3
ACAD_MATERIAL
350
10
  3
ACAD_MLEADERSTYLE
350
66
  3
ACAD_MLINESTYLE
350
5F
  3
ACAD_PLOTSETTINGS
350
61
  3
ACAD_PLOTSTYLENAME
350
E
  3
ACAD_SCALELIST
350
42
  3
ACAD_SECTIONVIEWSTYLE
350
68
  3
ACAD_TABLESTYLE
350
64
  3
ACAD_VISUALSTYLE
350
29
  3
ACDB_RECOMPOSE_DATA
350
B3
  3
AcDbVariableDictionary
350
AB
  0
DICTIONARY
  5
63
102
{ACAD_REACTORS
330
C
102
}
330
C
100
AcDbDictionary
281
     1
  0
DICTIONARY
  5
6A
102
{ACAD_REACTORS
330
C
102
}
330
C
100
AcDbDictionary
281
     1
  3
Imperial24
350
6B
  0
DICTIONARY
  5
D
102
{ACAD_REACTORS
330
C
102
}
330
C
100
AcDbDictionary
281
     1
  0
DICTIONARY
  5
62
102
{ACAD_REACTORS
330
C
102
}
330
C
100
AcDbDictionary
281
     1
  3
Layout1
350
6F
  3
Layout2
350
77
  3
Model
350
73
  0
DICTIONARY
  5
10
102
{ACAD_REACTORS
330
C
102
}
330
C
100
AcDbDictionary
281
     1
  3
ByBlock
350
19
  3
ByLayer
350
11
  3
Global
350
21
  0
DICTIONARY
  5
66
102
{ACAD_REACTORS
330
C
102
}
330
C
100
AcDbDictionary
281
     1
  3
Standard
350
67
  0
DICTIONARY
  5
5F
102
{ACAD_REACTORS
330
C
102
}
330
C
100
AcDbDictionary
281
     1
  3
Standard
350
60
  0
DICTIONARY
  5
61
102
{ACAD_REACTORS
330
C
102
}
330
C
100
AcDbDictionary
281
     1
  0
ACDBDICTIONARYWDFLT
  5
E
102
{ACAD_REACTORS
330
C
102
}
330
C
100
AcDbDictionary
281
     1
  3
Normal
350
F
100
AcDbDictionaryWithDefault
340
F
  0
DICTIONARY
  5
42
102
{ACAD_REACTORS
330
C
102
}
330
C
100
AcDbDictionary
281
     1
  3
A0
350
43
  3
A1
350
44
  3
A2
350
45
  3
A3
350
46
  3
A4
350
47
  3
A5
350
48
  3
A6
350
49
  3
A7
350
4A
  3
A8
350
4B
  3
A9
350
4C
  3
B0
350
4D
  3
B1
350
4E
  3
B2
350
4F
  3
B3
350
50
  3
B4
350
51
  3
B5
350
52
  3
B6
350
53
  0
DICTIONARY
  5
68
102
{ACAD_REACTORS
330
C
102
}
330
C
100
AcDbDictionary
281
     1
  3
Imperial24
350
69
  0
DICTIONARY
  5
64
102
{ACAD_REACTORS
330
C
102
}
330
C
100
AcDbDictionary
281
     1
  3
Standard
350
65
  0
DICTIONARY
  5
29
102
{ACAD_REACTORS
330
C
102
}
330
C
100
AcDbDictionary
281
     1
  3
2dWireframe
350
2F
  3
Basic
350
2E
  3
Brighten
350
35
  3
ColorChange
350
39
  3
Conceptual
350
32
  3
Dim
350
34
  3
EdgeColorOff
350
41
  3
Facepattern
350
38
  3
Flat
350
2A
  3
FlatWithEdges
350
2B
  3
Gouraud
350
2C
  3
GouraudWithEdges
350
2D
  3
Hidden
350
31
  3
JitterOff
350
3F
  3
Linepattern
350
37
  3
OverhangOff
350
40
  3
Realistic
350
33
  3
Shaded
350
3E
  3
Shaded with edges
350
3D
  3
Shades of Gray
350
3A
  3
Sketchy
350
3B
  3
Thicken
350
36
  3
Wireframe
350
30
  3
X-Ray
350
3C
  0
XRECORD
  5
B3
102
{ACAD_REACTORS
330
C
102
}
330
C
100
AcDbXrecord
280
     1
 90
        1
330
65
  0
DICTIONARY
  5
AB
102
{ACAD_REACTORS
330
C
102
}
330
C
100
AcDbDictionary
281
     1
  3
CANNOSCALE
350
B0
  3
CMLEADERSTYLE
350
AD
  3
CTABLESTYLE
350
AC
  3
CVIEWDETAILSTYLE
350
AE
  3
CVIEWSECTIONSTYLE
350
AF
  0
ACDBDETAILVIEWSTYLE
  5
6B
102
{ACAD_REACTORS
330
6A
102
}
330
6A
100
AcDbModelDocViewStyle
 70
     0
  3
Imperial24
290
     1
300
Imperial24
 90
        0
100
AcDbDetailViewStyle
 70
     0
 71
     0
 90
        3
 71
     1
340
55
 62
   256
 40
0.24
340
0
 62
   256
 40
0.24
300

 40
0.36
280
     3
 71
     2
340
5D
 90
       25
 62
   256
 71
     3
340
55
 62
   256
 40
0.24
 90
        1
 40
0.75
 90
        1
300
%<\AcVar ViewType \f "%tc1">% %<\AcVar ViewDetailId>%\PSCALE %<\AcVar ViewScale \f "%sn">%
 71
     4
340
5D
 90
       25
 62
   256
340
5D
 90
       25
 62
   256
280
     0
  0
LAYOUT
  5
6F
102
{ACAD_REACTORS
330
62
102
}
330
62
100
AcDbPlotSettings
  1

  2

  4

  6

 40
0.0
 41
0.0
 42
0.0
 43
0.0
 44
0.0
 45
0.0
 46
0.0
 47
0.0
 48
0.0
 49
0.0
140
0.0
141
0.0
142
1.0
143
1.0
 70
   688
 72
     0
 73
     0
 74
     5
  7

 75
    16
147
1.0
 76
     0
 77
     2
 78
   300
148
0.0
149
0.0
100
AcDbLayout
  1
Layout1
 70
     1
 71
     1
 10
0.0
 20
0.0
 11
12.0
 21
9.0
 12
0.0
 22
0.0
 32
0.0
 14
0.0
 24
0.0
 34
0.0
 15
0.0
 25
0.0
 35
0.0
146
0.0
 13
0.0
 23
0.0
 33
0.0
 16
1.0
 26
0.0
 36
0.0
 17
0.0
 27
1.0
 37
0.0
 76
     0
330
6C
  0
LAYOUT
  5
77
102
{ACAD_REACTORS
330
62
102
}
330
62
100
AcDbPlotSettings
  1

  2

  4

  6

 40
0.0
 41
0.0
 42
0.0
 43
0.0
 44
0.0
 45
0.0
 46
0.0
 47
0.0
 48
0.0
 49
0.0
140
0.0
141
0.0
142
1.0
143
1.0
 70
   688
 72
     0
 73
     0
 74
     5
  7

 75
    16
147
1.0
 76
     0
 77
     2
 78
   300
148
0.0
149
0.0
100
AcDbLayout
  1
Layout2
 70
     1
 71
     2
 10
0.0
 20
0.0
 11
12.0
 21
9.0
 12
0.0
 22
0.0
 32
0.0
 14
0.0
 24
0.0
 34
0.0
 15
0.0
 25
0.0
 35
0.0
146
0.0
 13
0.0
 23
0.0
 33
0.0
 16
1.0
 26
0.0
 36
0.0
 17
0.0
 27
1.0
 37
0.0
 76
     0
330
74
  0
LAYOUT
  5
73
102
{ACAD_REACTORS
330
62
102
}
330
62
100
AcDbPlotSettings
  1

  2

  4

  6

 40
0.0
 41
0.0
 42
0.0
 43
0.0
 44
0.0
 45
0.0
 46
0.0
 47
0.0
 48
0.0
 49
0.0
140
0.0
141
0.0
142
1.0
143
1.0
 70
  1712
 72
     0
 73
     0
 74
     0
  7

 75
     0
147
1.0
 76
     0
 77
     2
 78
   300
148
0.0
149
0.0
100
AcDbLayout
  1
Model
 70
     1
 71
     0
 10
0.0
 20
0.0
 11
12.0
 21
9.0
 12
0.0
 22
0.0
 32
0.0
 14
0.0
 24
0.0
 34
0.0
 15
0.0
 25
0.0
 35
0.0
146
0.0
 13
0.0
 23
0.0
 33
0.0
 16
1.0
 26
0.0
 36
0.0
 17
0.0
 27
1.0
 37
0.0
 76
     0
330
70
  0
MATERIAL
  5
19
102
{ACAD_XDICTIONARY
360
1A
102
}
102
{ACAD_REACTORS
330
10
102
}
330
10
100
AcDbMaterial
  1
ByBlock
 72
     0
 43
0.0208333333333333
 43
0.0
 43
0.0
 43
0.0
 43
0.0
 43
0.0208333333333333
 43
0.0
 43
0.0
 43
0.0
 43
0.0
 43
1.0
 43
0.0
 43
0.0
 43
0.0
 43
0.0
 43
1.0
 77
     0
 47
0.0208333333333333
 47
0.0
 47
0.0
 47
0.0
 47
0.0
 47
0.0208333333333333
 47
0.0
 47
0.0
 47
0.0
 47
0.0
 47
1.0
 47
0.0
 47
0.0
 47
0.0
 47
0.0
 47
1.0
171
     0
 49
0.0208333333333333
 49
0.0
 49
0.0
 49
0.0
 49
0.0
 49
0.0208333333333333
 49
0.0
 49
0.0
 49
0.0
 49
0.0
 49
1.0
 49
0.0
 49
0.0
 49
0.0
 49
0.0
 49
1.0
175
     0
142
0.0208333333333333
142
0.0
142
0.0
142
0.0
142
0.0
142
0.0208333333333333
142
0.0
142
0.0
142
0.0
142
0.0
142
1.0
142
0.0
142
0.0
142
0.0
142
0.0
142
1.0
179
     0
144
0.0208333333333333
144
0.0
144
0.0
144
0.0
144
0.0
144
0.0208333333333333
144
0.0
144
0.0
144
0.0
144
0.0
144
1.0
144
0.0
144
0.0
144
0.0
144
0.0
144
1.0
147
0.0208333333333333
147
0.0
147
0.0
147
0.0
147
0.0
147
0.0208333333333333
147
0.0
147
0.0
147
0.0
147
0.0
147
1.0
147
0.0
147
0.0
147
0.0
147
0.0
147
1.0
  0
MATERIAL
  5
11
102
{ACAD_XDICTIONARY
360
12
102
}
102
{ACAD_REACTORS
330
10
102
}
330
10
100
AcDbMaterial
  1
ByLayer
 72
     0
 43
0.0208333333333333
 43
0.0
 43
0.0
 43
0.0
 43
0.0
 43
0.0208333333333333
 43
0.0
 43
0.0
 43
0.0
 43
0.0
 43
1.0
 43
0.0
 43
0.0
 43
0.0
 43
0.0
 43
1.0
 77
     0
 47
0.0208333333333333
 47
0.0
 47
0.0
 47
0.0
 47
0.0
 47
0.0208333333333333
 47
0.0
 47
0.0
 47
0.0
 47
0.0
 47
1.0
 47
0.0
 47
0.0
 47
0.0
 47
0.0
 47
1.0
171
     0
 49
0.0208333333333333
 49
0.0
 49
0.0
 49
0.0
 49
0.0
 49
0.0208333333333333
 49
0.0
 49
0.0
 49
0.0
 49
0.0
 49
1.0
 49
0.0
 49
0.0
 49
0.0
 49
0.0
 49
1.0
175
     0
142
0.0208333333333333
142
0.0
142
0.0
142
0.0
142
0.0
142
0.0208333333333333
142
0.0
142
0.0
142
0.0
142
0.0
142
1.0
142
0.0
142
0.0
142
0.0
142
0.0
142
1.0
179
     0
144
0.0208333333333333
144
0.0
144
0.0
144
0.0
144
0.0
144
0.0208333333333333
144
0.0
144
0.0
144
0.0
144
0.0
144
1.0
144
0.0
144
0.0
144
0.0
144
0.0
144
1.0
147
0.0208333333333333
147
0.0
147
0.0
147
0.0
147
0.0
147
0.0208333333333333
147
0.0
147
0.0
147
0.0
147
0.0
147
1.0
147
0.0
147
0.0
147
0.0
147
0.0
147
1.0
  0
MATERIAL
  5
21
102
{ACAD_XDICTIONARY
360
22
102
}
102
{ACAD_REACTORS
330
10
102
}
330
10
100
AcDbMaterial
  1
Global
 72
     0
 43
0.0208333333333333
 43
0.0
 43
0.0
 43
0.0
 43
0.0
 43
0.0208333333333333
 43
0.0
 43
0.0
 43
0.0
 43
0.0
 43
1.0
 43
0.0
 43
0.0
 43
0.0
 43
0.0
 43
1.0
 77
     0
 47
0.0208333333333333
 47
0.0
 47
0.0
 47
0.0
 47
0.0
 47
0.0208333333333333
 47
0.0
 47
0.0
 47
0.0
 47
0.0
 47
1.0
 47
0.0
 47
0.0
 47
0.0
 47
0.0
 47
1.0
171
     0
 49
0.0208333333333333
 49
0.0
 49
0.0
 49
0.0
 49
0.0
 49
0.0208333333333333
 49
0.0
 49
0.0
 49
0.0
 49
0.0
 49
1.0
 49
0.0
 49
0.0
 49
0.0
 49
0.0
 49
1.0
175
     0
142
0.0208333333333333
142
0.0
142
0.0
142
0.0
142
0.0
142
0.0208333333333333
142
0.0
142
0.0
142
0.0
142
0.0
142
1.0
142
0.0
142
0.0
142
0.0
142
0.0
142
1.0
179
     0
144
0.0208333333333333
144
0.0
144
0.0
144
0.0
144
0.0
144
0.0208333333333333
144
0.0
144
0.0
144
0.0
144
0.0
144
1.0
144
0.0
144
0.0
144
0.0
144
0.0
144
1.0
147
0.0208333333333333
147
0.0
147
0.0
147
0.0
147
0.0
147
0.0208333333333333
147
0.0
147
0.0
147
0.0
147
0.0
147
1.0
147
0.0
147
0.0
147
0.0
147
0.0
147
1.0
  0
MLEADERSTYLE
  5
67
102
{ACAD_REACTORS
330
66
102
}
330
66
100
AcDbMLeaderStyle
179
     2
170
     2
171
     1
172
     0
 90
        2
 40
0.0
 41
0.0
173
     1
 91
-1056964608
340
5B
 92
       -2
290
     1
 42
0.09
291
     1
 43
0.36
  3
Standard
 44
0.18
300

342
55
174
     1
178
     6
175
     1
176
     0
 93
-1056964608
 45
0.18
292
     0
297
     0
 46
0.18
 94
-1056964608
 47
1.0
 49
1.0
140
1.0
293
     1
141
0.0
294
     1
177
     0
142
1.0
295
     1
296
     0
143
0.125
271
     0
272
     9
273
     9
298
     1
  0
MLINESTYLE
  5
60
102
{ACAD_REACTORS
330
5F
102
}
330
5F
100
AcDbMlineStyle
  2
STANDARD
 70
     0
  3

 62
   256
 51
90.0
 52
90.0
 71
     2
 49
0.5
 62
   256
  6
BYLAYER
 49
-0.5
 62
   256
  6
BYLAYER
  0
ACDBPLACEHOLDER
  5
F
102
{ACAD_REACTORS
330
E
102
}
330
E
  0
SCALE
  5
43
102
{ACAD_REACTORS
330
42
102
}
330
42
100
AcDbScale
 70
     0
300
1:1
140
1.0
141
1.0
290
     1
  0
SCALE
  5
44
102
{ACAD_REACTORS
330
42
102
}
330
42
100
AcDbScale
 70
     0
300
1/128" = 1'-0"
140
0.0078125
141
12.0
290
     0
  0
SCALE
  5
45
102
{ACAD_REACTORS
330
42
102
}
330
42
100
AcDbScale
 70
     0
300
1/64" = 1'-0"
140
0.015625
141
12.0
290
     0
  0
SCALE
  5
46
102
{ACAD_REACTORS
330
42
102
}
330
42
100
AcDbScale
 70
     0
300
1/32" = 1'-0"
140
0.03125
141
12.0
290
     0
  0
SCALE
  5
47
102
{ACAD_REACTORS
330
42
102
}
330
42
100
AcDbScale
 70
     0
300
1/16" = 1'-0"
140
0.0625
141
12.0
290
     0
  0
SCALE
  5
48
102
{ACAD_REACTORS
330
42
102
}
330
42
100
AcDbScale
 70
     0
300
3/32" = 1'-0"
140
0.09375
141
12.0
290
     0
  0
SCALE
  5
49
102
{ACAD_REACTORS
330
42
102
}
330
42
100
AcDbScale
 70
     0
300
1/8" = 1'-0"
140
0.125
141
12.0
290
     0
  0
SCALE
  5
4A
102
{ACAD_REACTORS
330
42
102
}
330
42
100
AcDbScale
 70
     0
300
3/16" = 1'-0"
140
0.1875
141
12.0
290
     0
  0
SCALE
  5
4B
102
{ACAD_REACTORS
330
42
102
}
330
42
100
AcDbScale
 70
     0
300
1/4" = 1'-0"
140
0.25
141
12.0
290
     0
  0
SCALE
  5
4C
102
{ACAD_REACTORS
330
42
102
}
330
42
100
AcDbScale
 70
     0
300
3/8" = 1'-0"
140
0.375
141
12.0
290
     0
  0
SCALE
  5
4D
102
{ACAD_REACTORS
330
42
102
}
330
42
100
AcDbScale
 70
     0
300
1/2" = 1'-0"
140
0.5
141
12.0
290
     0
  0
SCALE
  5
4E
102
{ACAD_REACTORS
330
42
102
}
330
42
100
AcDbScale
 70
     0
300
3/4" = 1'-0"
140
0.75
141
12.0
290
     0
  0
SCALE
  5
4F
102
{ACAD_REACTORS
330
42
102
}
330
42
100
AcDbScale
 70
     0
300
1" = 1'-0"
140
1.0
141
12.0
290
     0
  0
SCALE
  5
50
102
{ACAD_REACTORS
330
42
102
}
330
42
100
AcDbScale
 70
     0
300
1-1/2" = 1'-0"
140
1.5
141
12.0
290
     0
  0
SCALE
  5
51
102
{ACAD_REACTORS
330
42
102
}
330
42
100
AcDbScale
 70
     0
300
3" = 1'-0"
140
3.0
141
12.0
290
     0
  0
SCALE
  5
52
102
{ACAD_REACTORS
330
42
102
}
330
42
100
AcDbScale
 70
     0
300
6" = 1'-0"
140
6.0
141
12.0
290
     0
  0
SCALE
  5
53
102
{ACAD_REACTORS
330
42
102
}
330
42
100
AcDbScale
 70
     0
300
1'-0" = 1'-0"
140
12.0
141
12.0
290
     0
  0
ACDBSECTIONVIEWSTYLE
  5
69
102
{ACAD_REACTORS
330
68
102
}
330
68
100
AcDbModelDocViewStyle
 70
     0
  3
Imperial24
290
     1
300
Imperial24
 90
        0
100
AcDbSectionViewStyle
 70
     0
 71
     0
 90
       78
 71
     1
340
55
 62
   256
 40
0.24
340
0
340
0
 62
   256
 40
0.24
300
I, O, Q, S, X, Z
 40
0.48
 90
        3
 40
0.18
 90
        1
 71
     2
340
5D
 90
       25
 62
   256
340
5D
 90
       50
 62
   256
 40
0.24
 40
0.0
 40
0.24
 71
     3
340
55
 62
   256
 40
0.24
 90
        1
 40
0.75
 90
        1
300
%<\AcVar ViewType \f "%tc1">% %<\AcVar ViewSectionStartId>%-%<\AcVar ViewSectionEndId>%\PSCALE %<\AcVar ViewScale \f "%sn">%
 71
     4
 62
   256
 62
   257
300
ANSI31
 40
1.0
 90
        0
290
     0
290
     0
 90
        6
 40
0.0
 40
1.570796326794896
 40
0.2617993877991494
 40
1.308996938995747
 40
-0.2617993877991494
 40
1.832595714594046
  0
TABLESTYLE
  5
65
102
{ACAD_XDICTIONARY
360
B1
102
}
102
{ACAD_REACTORS
330
64
102
}
330
64
100
AcDbTableStyle
280
     0
  3
Standard
 70
     0
 71
     0
 40
0.06
 41
0.06
280
     0
281
     0
  7
Standard
140
0.18
170
     2
 62
     0
 63
     7
283
     0
 90
      512
 91
        0
  1

274
    -2
284
     1
 64
     0
275
    -2
285
     1
 65
     0
276
    -2
286
     1
 66
     0
277
    -2
287
     1
 67
     0
278
    -2
288
     1
 68
     0
279
    -2
289
     1
 69
     0
  7
Standard
140
0.25
170
     5
 62
     0
 63
     7
283
     0
 90
      512
 91
        0
  1

274
    -2
284
     1
 64
     0
275
    -2
285
     1
 65
     0
276
    -2
286
     1
 66
     0
277
    -2
287
     1
 67
     0
278
    -2
288
     1
 68
     0
279
    -2
289
     1
 69
     0
  7
Standard
140
0.18
170
     5
 62
     0
 63
     7
283
     0
 90
      512
 91
        0
  1

274
    -2
284
     1
 64
     0
275
    -2
285
     1
 65
     0
276
    -2
286
     1
 66
     0
277
    -2
287
     1
 67
     0
278
    -2
288
     1
 68
     0
279
    -2
289
     1
 69
     0
  0
VISUALSTYLE
  5
2F
102
{ACAD_REACTORS
330
29
102
}
330
29
100
AcDbVisualStyle
  2
2dWireframe
 70
     4
177
     3
291
     0
 70
    58
 90
        0
176
     1
 90
        2
176
     1
 90
        0
176
     1
 90
        0
176
     1
 40
0.6
176
     1
 40
30.0
176
     1
 62
     7
420
 16777215
176
     1
 90
        1
176
     1
 90
        4
176
     1
 62
     7
176
     1
 62
   257
176
     1
 90
        1
176
     1
 90
        1
176
     1
 40
1.0
176
     1
 90
        0
176
     1
 62
   257
176
     1
 40
1.0
176
     1
 90
        1
176
     1
 90
        6
176
     1
 90
        2
176
     1
 62
     7
176
     1
 90
        5
176
     1
 90
        0
176
     1
 90
        0
176
     1
290
     0
176
     1
 90
        1
176
     1
 40
0.0
176
     1
 90
        0
176
     1
290
     1
176
     1
290
     1
176
     1
290
     0
176
     1
290
     0
176
     1
290
     0
176
     1
290
     0
176
     1
290
     0
176
     1
290
     0
176
     1
290
     0
176
     1
 90
       50
176
     1
 40
0.0
176
     1
 40
1.0
176
     1
 90
        0
176
     1
 62
    18
420
        0
176
     1
 90
       50
176
     1
 90
        3
176
     1
 62
     5
420
      255
176
     1
290
     0
176
     1
 90
       50
176
     1
 90
       50
176
     1
 90
       50
176
     1
290
     0
176
     1
 90
       50
176
     1
 62
   256
176
     0
 40
1.0
176
     0
 90
        2
176
     1
  1
strokes_ogs.tif
176
     1
290
     0
176
     1
 40
1.0
176
     1
 40
1.0
176
     1
  0
VISUALSTYLE
  5
2E
102
{ACAD_REACTORS
330
29
102
}
330
29
100
AcDbVisualStyle
  2
Basic
 70
     7
177
     3
291
     1
 70
    58
 90
        1
176
     1
 90
        0
176
     1
 90
        1
176
     1
 90
        0
176
     1
 40
0.6
176
     1
 40
30.0
176
     1
 62
     7
420
 16777215
176
     1
 90
        0
176
     1
 90
        4
176
     1
 62
     7
176
     1
 62
   257
176
     1
 90
        1
176
     1
 90
        1
176
     1
 40
1.0
176
     1
 90
        8
176
     1
 62
     7
176
     1
 40
1.0
176
     1
 90
        1
176
     1
 90
        6
176
     1
 90
        2
176
     1
 62
     7
176
     1
 90
        5
176
     1
 90
        0
176
     1
 90
        0
176
     1
290
     0
176
     1
 90
        1
176
     1
 40
0.0
176
     1
 90
        0
176
     1
290
     0
176
     1
290
     1
176
     1
290
     1
176
     1
290
     0
176
     1
290
     0
176
     1
290
     0
176
     1
290
     0
176
     1
290
     0
176
     1
290
     0
176
     1
 90
       50
176
     1
 40
0.0
176
     1
 40
1.0
176
     1
 90
        0
176
     1
 62
    18
420
        0
176
     1
 90
       50
176
     1
 90
        3
176
     1
 62
     5
420
      255
176
     1
290
     0
176
     1
 90
       50
176
     1
 90
       50
176
     1
 90
       50
176
     1
290
     0
176
     1
 90
       50
176
     1
 62
   256
176
     0
 40
1.0
176
     0
 90
        2
176
     1
  1
strokes_ogs.tif
176
     1
290
     0
176
     1
 40
1.0
176
     1
 40
1.0
176
     1
  0
VISUALSTYLE
  5
35
102
{ACAD_REACTORS
330
29
102
}
330
29
100
AcDbVisualStyle
  2
Brighten
 70
    12
177
     3
291
     1
 70
    58
 90
        2
176
     1
 90
        2
176
     1
 90
        0
176
     1
 90
        0
176
     1
 40
0.6
176
     1
 40
30.0
176
     1
 62
     7
420
 16777215
176
     1
 90
        1
176
     1
 90
        4
176
     1
 62
     7
176
     1
 62
   257
176
     1
 90
        1
176
     1
 90
        1
176
     1
 40
1.0
176
     1
 90
        8
176
     1
 62
     7
176
     1
 40
1.0
176
     1
 90
        1
176
     1
 90
        6
176
     1
 90
        2
176
     1
 62
     7
176
     1
 90
        5
176
     1
 90
        0
176
     1
 90
        0
176
     1
290
     0
176
     1
 90
        1
176
     1
 40
50.0
176
     1
 90
        0
176
     1
290
     0
176
     1
290
     1
176
     1
290
     1
176
     1
290
     0
176
     1
290
     0
176
     1
290
     0
176
     1
290
     0
176
     1
290
     0
176
     1
290
     0
176
     1
 90
       50
176
     1
 40
0.0
176
     1
 40
1.0
176
     1
 90
        0
176
     1
 62
    18
420
        0
176
     1
 90
       50
176
     1
 90
        3
176
     1
 62
     5
420
      255
176
     1
290
     0
176
     1
 90
       50
176
     1
 90
       50
176
     1
 90
       50
176
     1
290
     0
176
     1
 90
       50
176
     1
 62
   256
176
     0
 40
1.0
176
     0
 90
        2
176
     1
  1
strokes_ogs.tif
176
     1
290
     0
176
     1
 40
1.0
176
     1
 40
1.0
176
     1
  0
VISUALSTYLE
  5
39
102
{ACAD_REACTORS
330
29
102
}
330
29
100
AcDbVisualStyle
  2
ColorChange
 70
    16
177
     3
291
     1
 70
    58
 90
        2
176
     1
 90
        2
176
     1
 90
        3
176
     1
 90
        0
176
     1
 40
0.6
176
     1
 40
30.0
176
     1
 62
     8
420
  8421504
176
     1
 90
        1
176
     1
 90
        4
176
     1
 62
     7
176
     1
 62
   257
176
     1
 90
        1
176
     1
 90
        1
176
     1
 40
1.0
176
     1
 90
        8
176
     1
 62
     8
420
  8421504
176
     1
 40
1.0
176
     1
 90
        1
176
     1
 90
        6
176
     1
 90
        2
176
     1
 62
     7
176
     1
 90
        5
176
     1
 90
        0
176
     1
 90
        0
176
     1
290
     0
176
     1
 90
        1
176
     1
 40
0.0
176
     1
 90
        0
176
     1
290
     0
176
     1
290
     1
176
     1
290
     1
176
     1
290
     0
176
     1
290
     0
176
     1
290
     0
176
     1
290
     0
176
     1
290
     0
176
     1
290
     0
176
     1
 90
       50
176
     1
 40
0.0
176
     1
 40
1.0
176
     1
 90
        0
176
     1
 62
    18
420
        0
176
     1
 90
       50
176
     1
 90
        3
176
     1
 62
     5
420
      255
176
     1
290
     0
176
     1
 90
       50
176
     1
 90
       50
176
     1
 90
       50
176
     1
290
     0
176
     1
 90
       50
176
     1
 62
   256
176
     0
 40
1.0
176
     0
 90
        2
176
     1
  1
strokes_ogs.tif
176
     1
290
     0
176
     1
 40
1.0
176
     1
 40
1.0
176
     1
  0
VISUALSTYLE
  5
32
102
{ACAD_REACTORS
330
29
102
}
330
29
100
AcDbVisualStyle
  2
Conceptual
 70
     9
177
     3
291
     0
 70
    58
 90
        3
176
     1
 90
        2
176
     1
 90
        0
176
     1
 90
        0
176
     1
 40
0.6
176
     1
 40
30.0
176
     1
 62
     7
420
 16777215
176
     1
 90
        2
176
     1
 90
        2
176
     1
 62
     7
176
     1
 62
   257
176
     1
 90
        1
176
     1
 90
        1
176
     1
 40
179.0
176
     1
 90
        8
176
     1
 62
     7
176
     1
 40
1.0
176
     1
 90
        1
176
     1
 90
        6
176
     1
 90
        2
176
     1
 62
     7
176
     1
 90
        3
176
     1
 90
        0
176
     1
 90
        0
176
     1
290
     0
176
     1
 90
        1
176
     1
 40
0.0
176
     1
 90
        0
176
     1
290
     0
176
     1
290
     1
176
     1
290
     1
176
     1
290
     0
176
     1
290
     0
176
     1
290
     0
176
     1
290
     0
176
     1
290
     0
176
     1
290
     0
176
     1
 90
       50
176
     1
 40
0.0
176
     1
 40
1.0
176
     1
 90
        0
176
     1
 62
    18
420
        0
176
     1
 90
       50
176
     1
 90
        3
176
     1
 62
     5
420
      255
176
     1
290
     0
176
     1
 90
       50
176
     1
 90
       50
176
     1
 90
       50
176
     1
290
     0
176
     1
 90
       50
176
     1
 62
   256
176
     0
 40
1.0
176
     0
 90
        2
176
     1
  1
strokes_ogs.tif
176
     1
290
     0
176
     1
 40
1.0
176
     1
 40
1.0
176
     1
  0
VISUALSTYLE
  5
34
102
{ACAD_REACTORS
330
29
102
}
330
29
100
AcDbVisualStyle
  2
Dim
 70
    11
177
     3
291
     1
 70
    58
 90
        2
176
     1
 90
        2
176
     1
 90
        0
176
     1
 90
        0
176
     1
 40
0.6
176
     1
 40
30.0
176
     1
 62
     7
420
 16777215
176
     1
 90
        1
176
     1
 90
        4
176
     1
 62
     7
176
     1
 62
   257
176
     1
 90
        1
176
     1
 90
        1
176
     1
 40
1.0
176
     1
 90
        8
176
     1
 62
     7
176
     1
 40
1.0
176
     1
 90
        1
176
     1
 90
        6
176
     1
 90
        2
176
     1
 62
     7
176
     1
 90
        5
176
     1
 90
        0
176
     1
 90
        0
176
     1
290
     0
176
     1
 90
        1
176
     1
 40
-50.0
176
     1
 90
        0
176
     1
290
     0
176
     1
290
     1
176
     1
290
     1
176
     1
290
     0
176
     1
290
     0
176
     1
290
     0
176
     1
290
     0
176
     1
290
     0
176
     1
290
     0
176
     1
 90
       50
176
     1
 40
0.0
176
     1
 40
1.0
176
     1
 90
        0
176
     1
 62
    18
420
        0
176
     1
 90
       50
176
     1
 90
        3
176
     1
 62
     5
420
      255
176
     1
290
     0
176
     1
 90
       50
176
     1
 90
       50
176
     1
 90
       50
176
     1
290
     0
176
     1
 90
       50
176
     1
 62
   256
176
     0
 40
1.0
176
     0
 90
        2
176
     1
  1
strokes_ogs.tif
176
     1
290
     0
176
     1
 40
1.0
176
     1
 40
1.0
176
     1
  0
VISUALSTYLE
  5
41
102
{ACAD_REACTORS
330
29
102
}
330
29
100
AcDbVisualStyle
  2
EdgeColorOff
 70
    22
177
     3
291
     1
 70
    58
 90
        2
176
     0
 90
        2
176
     0
 90
        0
176
     0
 90
        0
176
     0
 40
0.6
176
     0
 40
30.0
176
     0
 62
     7
420
 16777215
176
     0
 90
        1
176
     0
 90
        4
176
     0
 62
     7
176
     0
 62
   257
176
     0
 90
        1
176
     0
 90
        1
176
     0
 40
1.0
176
     0
 90
        8
176
     2
 62
     7
176
     0
 40
1.0
176
     0
 90
        1
176
     0
 90
        6
176
     0
 90
        2
176
     0
 62
     7
176
     0
 90
        5
176
     0
 90
        0
176
     0
 90
        0
176
     0
290
     0
176
     0
 90
        1
176
     0
 40
0.0
176
     0
 90
        0
176
     0
290
     0
176
     0
290
     1
176
     0
290
     1
176
     0
290
     0
176
     0
290
     0
176
     0
290
     0
176
     0
290
     0
176
     0
290
     0
176
     0
290
     0
176
     0
 90
       50
176
     0
 40
0.0
176
     0
 40
1.0
176
     0
 90
        0
176
     0
 62
    18
420
        0
176
     0
 90
       50
176
     0
 90
        3
176
     0
 62
     5
420
      255
176
     0
290
     0
176
     0
 90
       50
176
     0
 90
       50
176
     0
 90
       50
176
     0
290
     0
176
     0
 90
       50
176
     0
 62
   256
176
     0
 40
1.0
176
     0
 90
        2
176
     0
  1
strokes_ogs.tif
176
     0
290
     0
176
     0
 40
1.0
176
     0
 40
1.0
176
     0
  0
VISUALSTYLE
  5
38
102
{ACAD_REACTORS
330
29
102
}
330
29
100
AcDbVisualStyle
  2
Facepattern
 70
    15
177
     3
291
     1
 70
    58
 90
        2
176
     1
 90
        2
176
     1
 90
        0
176
     1
 90
        0
176
     1
 40
0.6
176
     1
 40
30.0
176
     1
 62
     7
420
 16777215
176
     1
 90
        1
176
     1
 90
        4
176
     1
 62
     7
176
     1
 62
   257
176
     1
 90
        1
176
     1
 90
        1
176
     1
 40
1.0
176
     1
 90
        8
176
     1
 62
     7
176
     1
 40
1.0
176
     1
 90
        1
176
     1
 90
        6
176
     1
 90
        2
176
     1
 62
     7
176
     1
 90
        5
176
     1
 90
        0
176
     1
 90
        0
176
     1
290
     0
176
     1
 90
        1
176
     1
 40
0.0
176
     1
 90
        0
176
     1
290
     0
176
     1
290
     1
176
     1
290
     1
176
     1
290
     0
176
     1
290
     0
176
     1
290
     0
176
     1
290
     0
176
     1
290
     0
176
     1
290
     0
176
     1
 90
       50
176
     1
 40
0.0
176
     1
 40
1.0
176
     1
 90
        0
176
     1
 62
    18
420
        0
176
     1
 90
       50
176
     1
 90
        3
176
     1
 62
     5
420
      255
176
     1
290
     0
176
     1
 90
       50
176
     1
 90
       50
176
     1
 90
       50
176
     1
290
     0
176
     1
 90
       50
176
     1
 62
   256
176
     0
 40
1.0
176
     0
 90
        2
176
     1
  1
strokes_ogs.tif
176
     1
290
     0
176
     1
 40
1.0
176
     1
 40
1.0
176
     1
  0
VISUALSTYLE
  5
2A
102
{ACAD_REACTORS
330
29
102
}
330
29
100
AcDbVisualStyle
  2
Flat
 70
     0
177
     3
291
     1
 70
    58
 90
        2
176
     1
 90
        1
176
     1
 90
        1
176
     1
 90
        2
176
     1
 40
0.6
176
     1
 40
30.0
176
     1
 62
     7
420
 16777215
176
     1
 90
        0
176
     1
 90
        0
176
     1
 62
     7
176
     1
 62
   257
176
     1
 90
        1
176
     1
 90
        1
176
     1
 40
1.0
176
     1
 90
        8
176
     1
 62
     7
176
     1
 40
1.0
176
     1
 90
        1
176
     1
 90
        6
176
     1
 90
        2
176
     1
 62
     7
176
     1
 90
        5
176
     1
 90
        0
176
     1
 90
        0
176
     1
290
     0
176
     1
 90
       13
176
     1
 40
0.0
176
     1
 90
        0
176
     1
290
     0
176
     1
290
     1
176
     1
290
     1
176
     1
290
     0
176
     1
290
     0
176
     1
290
     0
176
     1
290
     0
176
     1
290
     0
176
     1
290
     0
176
     1
 90
       50
176
     1
 40
0.0
176
     1
 40
1.0
176
     1
 90
        0
176
     1
 62
    18
420
        0
176
     1
 90
       50
176
     1
 90
        3
176
     1
 62
     5
420
      255
176
     1
290
     0
176
     1
 90
       50
176
     1
 90
       50
176
     1
 90
       50
176
     1
290
     0
176
     1
 90
       50
176
     1
 62
   256
176
     0
 40
1.0
176
     0
 90
        2
176
     1
  1
strokes_ogs.tif
176
     1
290
     0
176
     1
 40
1.0
176
     1
 40
1.0
176
     1
  0
VISUALSTYLE
  5
2B
102
{ACAD_REACTORS
330
29
102
}
330
29
100
AcDbVisualStyle
  2
FlatWithEdges
 70
     1
177
     3
291
     1
 70
    58
 90
        2
176
     1
 90
        1
176
     1
 90
        1
176
     1
 90
        2
176
     1
 40
0.6
176
     1
 40
30.0
176
     1
 62
     7
420
 16777215
176
     1
 90
        1
176
     1
 90
        0
176
     1
 62
     7
176
     1
 62
   257
176
     1
 90
        1
176
     1
 90
        1
176
     1
 40
1.0
176
     1
 90
        0
176
     1
 62
   257
176
     1
 40
1.0
176
     1
 90
        1
176
     1
 90
        6
176
     1
 90
        2
176
     1
 62
     7
176
     1
 90
        5
176
     1
 90
        0
176
     1
 90
        0
176
     1
290
     0
176
     1
 90
       13
176
     1
 40
0.0
176
     1
 90
        0
176
     1
290
     0
176
     1
290
     1
176
     1
290
     1
176
     1
290
     0
176
     1
290
     0
176
     1
290
     0
176
     1
290
     0
176
     1
290
     0
176
     1
290
     0
176
     1
 90
       50
176
     1
 40
0.0
176
     1
 40
1.0
176
     1
 90
        0
176
     1
 62
    18
420
        0
176
     1
 90
       50
176
     1
 90
        3
176
     1
 62
     5
420
      255
176
     1
290
     0
176
     1
 90
       50
176
     1
 90
       50
176
     1
 90
       50
176
     1
290
     0
176
     1
 90
       50
176
     1
 62
   256
176
     0
 40
1.0
176
     0
 90
        2
176
     1
  1
strokes_ogs.tif
176
     1
290
     0
176
     1
 40
1.0
176
     1
 40
1.0
176
     1
  0
VISUALSTYLE
  5
2C
102
{ACAD_REACTORS
330
29
102
}
330
29
100
AcDbVisualStyle
  2
Gouraud
 70
     2
177
     3
291
     1
 70
    58
 90
        2
176
     1
 90
        2
176
     1
 90
        1
176
     1
 90
        2
176
     1
 40
0.6
176
     1
 40
30.0
176
     1
 62
     7
420
 16777215
176
     1
 90
        0
176
     1
 90
        0
176
     1
 62
     7
176
     1
 62
   257
176
     1
 90
        1
176
     1
 90
        1
176
     1
 40
1.0
176
     1
 90
        0
176
     1
 62
     7
176
     1
 40
1.0
176
     1
 90
        1
176
     1
 90
        6
176
     1
 90
        2
176
     1
 62
     7
176
     1
 90
        5
176
     1
 90
        0
176
     1
 90
        0
176
     1
290
     0
176
     1
 90
       13
176
     1
 40
0.0
176
     1
 90
        0
176
     1
290
     0
176
     1
290
     1
176
     1
290
     1
176
     1
290
     0
176
     1
290
     0
176
     1
290
     0
176
     1
290
     0
176
     1
290
     0
176
     1
290
     0
176
     1
 90
       50
176
     1
 40
0.0
176
     1
 40
1.0
176
     1
 90
        0
176
     1
 62
    18
420
        0
176
     1
 90
       50
176
     1
 90
        3
176
     1
 62
     5
420
      255
176
     1
290
     0
176
     1
 90
       50
176
     1
 90
       50
176
     1
 90
       50
176
     1
290
     0
176
     1
 90
       50
176
     1
 62
   256
176
     0
 40
1.0
176
     0
 90
        2
176
     1
  1
strokes_ogs.tif
176
     1
290
     0
176
     1
 40
1.0
176
     1
 40
1.0
176
     1
  0
VISUALSTYLE
  5
2D
102
{ACAD_REACTORS
330
29
102
}
330
29
100
AcDbVisualStyle
  2
GouraudWithEdges
 70
     3
177
     3
291
     1
 70
    58
 90
        2
176
     1
 90
        2
176
     1
 90
        1
176
     1
 90
        2
176
     1
 40
0.6
176
     1
 40
30.0
176
     1
 62
     7
420
 16777215
176
     1
 90
        1
176
     1
 90
        0
176
     1
 62
     7
176
     1
 62
   257
176
     1
 90
        1
176
     1
 90
        1
176
     1
 40
1.0
176
     1
 90
        0
176
     1
 62
   257
176
     1
 40
1.0
176
     1
 90
        1
176
     1
 90
        6
176
     1
 90
        2
176
     1
 62
     7
176
     1
 90
        5
176
     1
 90
        0
176
     1
 90
        0
176
     1
290
     0
176
     1
 90
       13
176
     1
 40
0.0
176
     1
 90
        0
176
     1
290
     0
176
     1
290
     1
176
     1
290
     1
176
     1
290
     0
176
     1
290
     0
176
     1
290
     0
176
     1
290
     0
176
     1
290
     0
176
     1
290
     0
176
     1
 90
       50
176
     1
 40
0.0
176
     1
 40
1.0
176
     1
 90
        0
176
     1
 62
    18
420
        0
176
     1
 90
       50
176
     1
 90
        3
176
     1
 62
     5
420
      255
176
     1
290
     0
176
     1
 90
       50
176
     1
 90
       50
176
     1
 90
       50
176
     1
290
     0
176
     1
 90
       50
176
     1
 62
   256
176
     0
 40
1.0
176
     0
 90
        2
176
     1
  1
strokes_ogs.tif
176
     1
290
     0
176
     1
 40
1.0
176
     1
 40
1.0
176
     1
  0
VISUALSTYLE
  5
31
102
{ACAD_REACTORS
330
29
102
}
330
29
100
AcDbVisualStyle
  2
Hidden
 70
     6
177
     3
291
     0
 70
    58
 90
        1
176
     1
 90
        2
176
     1
 90
        2
176
     1
 90
        0
176
     1
 40
0.6
176
     1
 40
30.0
176
     1
 62
     7
420
 16777215
176
     1
 90
        2
176
     1
 90
        2
176
     1
 62
     7
176
     1
 62
   257
176
     1
 90
        2
176
     1
 90
        1
176
     1
 40
40.0
176
     1
 90
        0
176
     1
 62
   257
176
     1
 40
1.0
176
     1
 90
        1
176
     1
 90
        6
176
     1
 90
        2
176
     1
 62
     7
176
     1
 90
        3
176
     1
 90
        0
176
     1
 90
        0
176
     1
290
     0
176
     1
 90
        1
176
     1
 40
0.0
176
     1
 90
        0
176
     1
290
     0
176
     1
290
     1
176
     1
290
     1
176
     1
290
     0
176
     1
290
     0
176
     1
290
     0
176
     1
290
     0
176
     1
290
     0
176
     1
290
     0
176
     1
 90
       50
176
     1
 40
0.0
176
     1
 40
1.0
176
     1
 90
        0
176
     1
 62
    18
420
        0
176
     1
 90
       50
176
     1
 90
        3
176
     1
 62
     5
420
      255
176
     1
290
     0
176
     1
 90
       50
176
     1
 90
       50
176
     1
 90
       50
176
     1
290
     0
176
     1
 90
       50
176
     1
 62
   256
176
     0
 40
1.0
176
     0
 90
        2
176
     1
  1
strokes_ogs.tif
176
     1
290
     0
176
     1
 40
1.0
176
     1
 40
1.0
176
     1
  0
VISUALSTYLE
  5
3F
102
{ACAD_REACTORS
330
29
102
}
330
29
100
AcDbVisualStyle
  2
JitterOff
 70
    20
177
     3
291
     1
 70
    58
 90
        2
176
     0
 90
        2
176
     0
 90
        0
176
     0
 90
        0
176
     0
 40
0.6
176
     0
 40
30.0
176
     0
 62
     7
420
 16777215
176
     0
 90
        1
176
     0
 90
        4
176
     0
 62
     7
176
     0
 62
   257
176
     0
 90
        1
176
     0
 90
        1
176
     0
 40
1.0
176
     0
 90
       10
176
     2
 62
     7
176
     0
 40
1.0
176
     0
 90
        1
176
     0
 90
        6
176
     0
 90
        2
176
     0
 62
     7
176
     0
 90
        5
176
     0
 90
        0
176
     0
 90
        0
176
     0
290
     0
176
     0
 90
        1
176
     0
 40
0.0
176
     0
 90
        0
176
     0
290
     0
176
     0
290
     1
176
     0
290
     1
176
     0
290
     0
176
     0
290
     0
176
     0
290
     0
176
     0
290
     0
176
     0
290
     0
176
     0
290
     0
176
     0
 90
       50
176
     0
 40
0.0
176
     0
 40
1.0
176
     0
 90
        0
176
     0
 62
    18
420
        0
176
     0
 90
       50
176
     0
 90
        3
176
     0
 62
     5
420
      255
176
     0
290
     0
176
     0
 90
       50
176
     0
 90
       50
176
     0
 90
       50
176
     0
290
     0
176
     0
 90
       50
176
     0
 62
   256
176
     0
 40
1.0
176
     0
 90
        2
176
     0
  1
strokes_ogs.tif
176
     0
290
     0
176
     0
 40
1.0
176
     0
 40
1.0
176
     0
  0
VISUALSTYLE
  5
37
102
{ACAD_REACTORS
330
29
102
}
330
29
100
AcDbVisualStyle
  2
Linepattern
 70
    14
177
     3
291
     1
 70
    58
 90
        2
176
     1
 90
        2
176
     1
 90
        0
176
     1
 90
        0
176
     1
 40
0.6
176
     1
 40
30.0
176
     1
 62
     7
420
 16777215
176
     1
 90
        1
176
     1
 90
        4
176
     1
 62
     7
176
     1
 62
   257
176
     1
 90
        7
176
     1
 90
        7
176
     1
 40
1.0
176
     1
 90
        8
176
     1
 62
     7
176
     1
 40
1.0
176
     1
 90
        1
176
     1
 90
        6
176
     1
 90
        2
176
     1
 62
     7
176
     1
 90
        5
176
     1
 90
        0
176
     1
 90
        0
176
     1
290
     0
176
     1
 90
        1
176
     1
 40
0.0
176
     1
 90
        0
176
     1
290
     0
176
     1
290
     1
176
     1
290
     1
176
     1
290
     0
176
     1
290
     0
176
     1
290
     0
176
     1
290
     0
176
     1
290
     0
176
     1
290
     0
176
     1
 90
       50
176
     1
 40
0.0
176
     1
 40
1.0
176
     1
 90
        0
176
     1
 62
    18
420
        0
176
     1
 90
       50
176
     1
 90
        3
176
     1
 62
     5
420
      255
176
     1
290
     0
176
     1
 90
       50
176
     1
 90
       50
176
     1
 90
       50
176
     1
290
     0
176
     1
 90
       50
176
     1
 62
   256
176
     0
 40
1.0
176
     0
 90
        2
176
     1
  1
strokes_ogs.tif
176
     1
290
     0
176
     1
 40
1.0
176
     1
 40
1.0
176
     1
  0
VISUALSTYLE
  5
40
102
{ACAD_REACTORS
330
29
102
}
330
29
100
AcDbVisualStyle
  2
OverhangOff
 70
    21
177
     3
291
     1
 70
    58
 90
        2
176
     0
 90
        2
176
     0
 90
        0
176
     0
 90
        0
176
     0
 40
0.6
176
     0
 40
30.0
176
     0
 62
     7
420
 16777215
176
     0
 90
        1
176
     0
 90
        4
176
     0
 62
     7
176
     0
 62
   257
176
     0
 90
        1
176
     0
 90
        1
176
     0
 40
1.0
176
     0
 90
        9
176
     2
 62
     7
176
     0
 40
1.0
176
     0
 90
        1
176
     0
 90
        6
176
     0
 90
        2
176
     0
 62
     7
176
     0
 90
        5
176
     0
 90
        0
176
     0
 90
        0
176
     0
290
     0
176
     0
 90
        1
176
     0
 40
0.0
176
     0
 90
        0
176
     0
290
     0
176
     0
290
     1
176
     0
290
     1
176
     0
290
     0
176
     0
290
     0
176
     0
290
     0
176
     0
290
     0
176
     0
290
     0
176
     0
290
     0
176
     0
 90
       50
176
     0
 40
0.0
176
     0
 40
1.0
176
     0
 90
        0
176
     0
 62
    18
420
        0
176
     0
 90
       50
176
     0
 90
        3
176
     0
 62
     5
420
      255
176
     0
290
     0
176
     0
 90
       50
176
     0
 90
       50
176
     0
 90
       50
176
     0
290
     0
176
     0
 90
       50
176
     0
 62
   256
176
     0
 40
1.0
176
     0
 90
        2
176
     0
  1
strokes_ogs.tif
176
     0
290
     0
176
     0
 40
1.0
176
     0
 40
1.0
176
     0
  0
VISUALSTYLE
  5
33
102
{ACAD_REACTORS
330
29
102
}
330
29
100
AcDbVisualStyle
  2
Realistic
 70
     8
177
     3
291
     0
 70
    58
 90
        2
176
     1
 90
        3
176
     1
 90
        0
176
     1
 90
        2
176
     1
 40
0.6
176
     1
 40
30.0
176
     1
 62
     7
420
 16777215
176
     1
 90
        0
176
     1
 90
        0
176
     1
 62
     7
176
     1
 62
   257
176
     1
 90
        1
176
     1
 90
        1
176
     1
 40
1.0
176
     1
 90
        8
176
     1
 62
   257
176
     1
 40
1.0
176
     1
 90
        1
176
     1
 90
        6
176
     1
 90
        2
176
     1
 62
     7
176
     1
 90
        3
176
     1
 90
        0
176
     1
 90
        0
176
     1
290
     0
176
     1
 90
       13
176
     1
 40
0.0
176
     1
 90
        0
176
     1
290
     0
176
     1
290
     1
176
     1
290
     1
176
     1
290
     0
176
     1
290
     0
176
     1
290
     0
176
     1
290
     0
176
     1
290
     0
176
     1
290
     0
176
     1
 90
       50
176
     1
 40
0.0
176
     1
 40
1.0
176
     1
 90
        0
176
     1
 62
    18
420
        0
176
     1
 90
       50
176
     1
 90
        3
176
     1
 62
     5
420
      255
176
     1
290
     0
176
     1
 90
       50
176
     1
 90
       50
176
     1
 90
       50
176
     1
290
     0
176
     1
 90
       50
176
     1
 62
   256
176
     0
 40
1.0
176
     0
 90
        2
176
     1
  1
strokes_ogs.tif
176
     1
290
     0
176
     1
 40
1.0
176
     1
 40
1.0
176
     1
  0
VISUALSTYLE
  5
3E
102
{ACAD_REACTORS
330
29
102
}
330
29
100
AcDbVisualStyle
  2
Shaded
 70
    27
177
     3
291
     0
 70
    58
 90
        2
176
     1
 90
        2
176
     1
 90
        1
176
     1
 90
        2
176
     1
 40
0.6
176
     1
 40
30.0
176
     1
 62
     7
420
 16777215
176
     1
 90
        0
176
     1
 90
        4
176
     1
 62
     7
176
     1
 62
   257
176
     1
 90
        1
176
     1
 90
        1
176
     1
 40
1.0
176
     1
 90
        8
176
     1
 62
   257
176
     1
 40
1.0
176
     1
 90
        1
176
     1
 90
        6
176
     1
 90
        2
176
     1
 62
     8
420
  7895160
176
     1
 90
        3
176
     1
 90
        0
176
     1
 90
        0
176
     1
290
     0
176
     1
 90
        5
176
     1
 40
0.0
176
     1
 90
        0
176
     1
290
     0
176
     1
290
     1
176
     1
290
     1
176
     1
290
     0
176
     1
290
     0
176
     1
290
     0
176
     1
290
     0
176
     1
290
     0
176
     1
290
     0
176
     1
 90
       50
176
     1
 40
0.0
176
     1
 40
1.0
176
     1
 90
        0
176
     1
 62
    18
420
        0
176
     1
 90
       50
176
     1
 90
        3
176
     1
 62
     5
420
      255
176
     1
290
     0
176
     1
 90
       50
176
     1
 90
       50
176
     1
 90
       50
176
     1
290
     0
176
     1
 90
       50
176
     1
 62
   256
176
     0
 40
1.0
176
     0
 90
        2
176
     1
  1
strokes_ogs.tif
176
     1
290
     0
176
     1
 40
1.0
176
     1
 40
1.0
176
     1
  0
VISUALSTYLE
  5
3D
102
{ACAD_REACTORS
330
29
102
}
330
29
100
AcDbVisualStyle
  2
Shaded with edges
 70
    26
177
     3
291
     0
 70
    58
 90
        2
176
     1
 90
        2
176
     1
 90
        1
176
     1
 90
        2
176
     1
 40
0.6
176
     1
 40
30.0
176
     1
 62
     7
420
 16777215
176
     1
 90
        1
176
     1
 90
        2
176
     1
 62
     7
176
     1
 62
   257
176
     1
 90
        2
176
     1
 90
        1
176
     1
 40
1.0
176
     1
 90
        8
176
     1
 62
   257
176
     1
 40
1.0
176
     1
 90
        1
176
     1
 90
        6
176
     1
 90
        2
176
     1
 62
     7
176
     1
 90
        3
176
     1
 90
        0
176
     1
 90
        0
176
     1
290
     0
176
     1
 90
        5
176
     1
 40
0.0
176
     1
 90
        0
176
     1
290
     0
176
     1
290
     1
176
     1
290
     1
176
     1
290
     0
176
     1
290
     0
176
     1
290
     0
176
     1
290
     0
176
     1
290
     0
176
     1
290
     0
176
     1
 90
       50
176
     1
 40
0.0
176
     1
 40
1.0
176
     1
 90
        0
176
     1
 62
    18
420
        0
176
     1
 90
       50
176
     1
 90
        3
176
     1
 62
     5
420
      255
176
     1
290
     0
176
     1
 90
       50
176
     1
 90
       50
176
     1
 90
       50
176
     1
290
     0
176
     1
 90
       50
176
     1
 62
   256
176
     0
 40
1.0
176
     0
 90
        2
176
     1
  1
strokes_ogs.tif
176
     1
290
     0
176
     1
 40
1.0
176
     1
 40
1.0
176
     1
  0
VISUALSTYLE
  5
3A
102
{ACAD_REACTORS
330
29
102
}
330
29
100
AcDbVisualStyle
  2
Shades of Gray
 70
    23
177
     3
291
     0
 70
    58
 90
        2
176
     1
 90
        2
176
     1
 90
        3
176
     1
 90
        0
176
     1
 40
0.6
176
     1
 40
30.0
176
     1
 62
     7
420
 16777215
176
     1
 90
        2
176
     1
 90
        2
176
     1
 62
     7
176
     1
 62
     7
176
     1
 90
        1
176
     1
 90
        1
176
     1
 40
40.0
176
     1
 90
        8
176
     1
 62
     7
176
     1
 40
1.0
176
     1
 90
        1
176
     1
 90
        6
176
     1
 90
        2
176
     1
 62
     7
176
     1
 90
        3
176
     1
 90
        0
176
     1
 90
        0
176
     1
290
     0
176
     1
 90
        1
176
     1
 40
0.0
176
     1
 90
        0
176
     1
290
     0
176
     1
290
     1
176
     1
290
     1
176
     1
290
     0
176
     1
290
     0
176
     1
290
     0
176
     1
290
     0
176
     1
290
     0
176
     1
290
     0
176
     1
 90
       50
176
     1
 40
0.0
176
     1
 40
1.0
176
     1
 90
        0
176
     1
 62
    18
420
        0
176
     1
 90
       50
176
     1
 90
        3
176
     1
 62
     5
420
      255
176
     1
290
     0
176
     1
 90
       50
176
     1
 90
       50
176
     1
 90
       50
176
     1
290
     0
176
     1
 90
       50
176
     1
 62
   256
176
     0
 40
1.0
176
     0
 90
        2
176
     1
  1
strokes_ogs.tif
176
     1
290
     0
176
     1
 40
1.0
176
     1
 40
1.0
176
     1
  0
VISUALSTYLE
  5
3B
102
{ACAD_REACTORS
330
29
102
}
330
29
100
AcDbVisualStyle
  2
Sketchy
 70
    24
177
     3
291
     0
 70
    58
 90
        1
176
     1
 90
        2
176
     1
 90
        2
176
     1
 90
        0
176
     1
 40
0.6
176
     1
 40
30.0
176
     1
 62
     7
420
 16777215
176
     1
 90
        2
176
     1
 90
        2
176
     1
 62
     7
176
     1
 62
     7
176
     1
 90
        1
176
     1
 90
        1
176
     1
 40
40.0
176
     1
 90
       11
176
     1
 62
     7
176
     1
 40
1.0
176
     1
 90
        1
176
     1
 90
        6
176
     1
 90
        2
176
     1
 62
     7
176
     1
 90
        6
176
     1
 90
        0
176
     1
 90
        0
176
     1
290
     0
176
     1
 90
        1
176
     1
 40
0.0
176
     1
 90
        0
176
     1
290
     0
176
     1
290
     1
176
     1
290
     1
176
     1
290
     0
176
     1
290
     0
176
     1
290
     0
176
     1
290
     0
176
     1
290
     0
176
     1
290
     0
176
     1
 90
       50
176
     1
 40
0.0
176
     1
 40
1.0
176
     1
 90
        0
176
     1
 62
    18
420
        0
176
     1
 90
       50
176
     1
 90
        3
176
     1
 62
     5
420
      255
176
     1
290
     0
176
     1
 90
       50
176
     1
 90
       50
176
     1
 90
       50
176
     1
290
     0
176
     1
 90
       50
176
     1
 62
   256
176
     0
 40
1.0
176
     0
 90
        2
176
     1
  1
strokes_ogs.tif
176
     1
290
     0
176
     1
 40
1.0
176
     1
 40
1.0
176
     1
  0
VISUALSTYLE
  5
36
102
{ACAD_REACTORS
330
29
102
}
330
29
100
AcDbVisualStyle
  2
Thicken
 70
    13
177
     3
291
     1
 70
    58
 90
        2
176
     1
 90
        2
176
     1
 90
        0
176
     1
 90
        0
176
     1
 40
0.6
176
     1
 40
30.0
176
     1
 62
     7
420
 16777215
176
     1
 90
        1
176
     1
 90
        4
176
     1
 62
     7
176
     1
 62
   257
176
     1
 90
        1
176
     1
 90
        1
176
     1
 40
1.0
176
     1
 90
       12
176
     1
 62
     7
176
     1
 40
1.0
176
     1
 90
        1
176
     1
 90
        6
176
     1
 90
        2
176
     1
 62
     7
176
     1
 90
        5
176
     1
 90
        0
176
     1
 90
        0
176
     1
290
     0
176
     1
 90
        1
176
     1
 40
0.0
176
     1
 90
        0
176
     1
290
     0
176
     1
290
     1
176
     1
290
     1
176
     1
290
     0
176
     1
290
     0
176
     1
290
     0
176
     1
290
     0
176
     1
290
     0
176
     1
290
     0
176
     1
 90
       50
176
     1
 40
0.0
176
     1
 40
1.0
176
     1
 90
        0
176
     1
 62
    18
420
        0
176
     1
 90
       50
176
     1
 90
        3
176
     1
 62
     5
420
      255
176
     1
290
     0
176
     1
 90
       50
176
     1
 90
       50
176
     1
 90
       50
176
     1
290
     0
176
     1
 90
       50
176
     1
 62
   256
176
     0
 40
1.0
176
     0
 90
        2
176
     1
  1
strokes_ogs.tif
176
     1
290
     0
176
     1
 40
1.0
176
     1
 40
1.0
176
     1
  0
VISUALSTYLE
  5
30
102
{ACAD_REACTORS
330
29
102
}
330
29
100
AcDbVisualStyle
  2
Wireframe
 70
     5
177
     3
291
     0
 70
    58
 90
        0
176
     1
 90
        2
176
     1
 90
        0
176
     1
 90
        0
176
     1
 40
0.6
176
     1
 40
30.0
176
     1
 62
     7
420
 16777215
176
     1
 90
        1
176
     1
 90
        4
176
     1
 62
     7
176
     1
 62
   257
176
     1
 90
        1
176
     1
 90
        1
176
     1
 40
1.0
176
     1
 90
        0
176
     1
 62
   257
176
     1
 40
1.0
176
     1
 90
        1
176
     1
 90
        6
176
     1
 90
        2
176
     1
 62
     7
176
     1
 90
        3
176
     1
 90
        0
176
     1
 90
        0
176
     1
290
     0
176
     1
 90
        1
176
     1
 40
0.0
176
     1
 90
        0
176
     1
290
     0
176
     1
290
     1
176
     1
290
     1
176
     1
290
     0
176
     1
290
     0
176
     1
290
     0
176
     1
290
     0
176
     1
290
     0
176
     1
290
     0
176
     1
 90
       50
176
     1
 40
0.0
176
     1
 40
1.0
176
     1
 90
        0
176
     1
 62
    18
420
        0
176
     1
 90
       50
176
     1
 90
        3
176
     1
 62
     5
420
      255
176
     1
290
     0
176
     1
 90
       50
176
     1
 90
       50
176
     1
 90
       50
176
     1
290
     0
176
     1
 90
       50
176
     1
 62
   256
176
     0
 40
1.0
176
     0
 90
        2
176
     1
  1
strokes_ogs.tif
176
     1
290
     0
176
     1
 40
1.0
176
     1
 40
1.0
176
     1
  0
VISUALSTYLE
  5
3C
102
{ACAD_REACTORS
330
29
102
}
330
29
100
AcDbVisualStyle
  2
X-Ray
 70
    25
177
     3
291
     0
 70
    58
 90
        2
176
     1
 90
        2
176
     1
 90
        1
176
     1
 90
        1
176
     1
 40
0.5
176
     1
 40
30.0
176
     1
 62
     7
420
 16777215
176
     1
 90
        1
176
     1
 90
        0
176
     1
 62
     7
176
     1
 62
   257
176
     1
 90
        1
176
     1
 90
        1
176
     1
 40
1.0
176
     1
 90
        8
176
     1
 62
     7
176
     1
 40
1.0
176
     1
 90
        1
176
     1
 90
        6
176
     1
 90
        2
176
     1
 62
     7
176
     1
 90
        3
176
     1
 90
        0
176
     1
 90
        0
176
     1
290
     0
176
     1
 90
       13
176
     1
 40
0.0
176
     1
 90
        0
176
     1
290
     0
176
     1
290
     1
176
     1
290
     1
176
     1
290
     0
176
     1
290
     0
176
     1
290
     0
176
     1
290
     0
176
     1
290
     0
176
     1
290
     0
176
     1
 90
       50
176
     1
 40
0.0
176
     1
 40
1.0
176
     1
 90
        0
176
     1
 62
    18
420
        0
176
     1
 90
       50
176
     1
 90
        3
176
     1
 62
     5
420
      255
176
     1
290
     0
176
     1
 90
       50
176
     1
 90
       50
176
     1
 90
       50
176
     1
290
     0
176
     1
 90
       50
176
     1
 62
   256
176
     0
 40
1.0
176
     0
 90
        2
176
     1
  1
strokes_ogs.tif
176
     1
290
     0
176
     1
 40
1.0
176
     1
 40
1.0
176
     1
  0
DICTIONARYVAR
  5
B0
102
{ACAD_REACTORS
330
AB
102
}
330
AB
100
DictionaryVariables
280
     0
  1
1:1
  0
DICTIONARYVAR
  5
AD
102
{ACAD_REACTORS
330
AB
102
}
330
AB
100
DictionaryVariables
280
     0
  1
STANDARD
  0
DICTIONARYVAR
  5
AC
102
{ACAD_REACTORS
330
AB
102
}
330
AB
100
DictionaryVariables
280
     0
  1
STANDARD
  0
DICTIONARYVAR
  5
AE
102
{ACAD_REACTORS
330
AB
102
}
330
AB
100
DictionaryVariables
280
     0
  1
Imperial24
  0
DICTIONARYVAR
  5
AF
102
{ACAD_REACTORS
330
AB
102
}
330
AB
100
DictionaryVariables
280
     0
  1
Imperial24
  0
DICTIONARY
  5
1A
330
19
100
AcDbDictionary
280
     1
281
     1
  3
BUMPTILE
360
1C
  3
DIFFUSETILE
360
1B
  3
OPACITYTILE
360
1F
  3
REFLECTIONTILE
360
1E
  3
REFRACTIONTILE
360
20
  3
SPECULARTILE
360
1D
  0
DICTIONARY
  5
12
330
11
100
AcDbDictionary
280
     1
281
     1
  3
BUMPTILE
360
14
  3
DIFFUSETILE
360
13
  3
OPACITYTILE
360
17
  3
REFLECTIONTILE
360
16
  3
REFRACTIONTILE
360
18
  3
SPECULARTILE
360
15
  0
DICTIONARY
  5
22
330
21
100
AcDbDictionary
280
     1
281
     1
  3
BUMPTILE
360
24
  3
DIFFUSETILE
360
23
  3
OPACITYTILE
360
27
  3
REFLECTIONTILE
360
26
  3
REFRACTIONTILE
360
28
  3
SPECULARTILE
360
25
  0
DICTIONARY
  5
B1
330
65
100
AcDbDictionary
280
     1
281
     1
  3
ACAD_ROUNDTRIP_2008_TABLESTYLE_CELLSTYLEMAP
360
B2
  0
XRECORD
  5
1C
102
{ACAD_REACTORS
330
1A
102
}
330
1A
100
AcDbXrecord
280
     1
270
     1
271
     1
  0
XRECORD
  5
1B
102
{ACAD_REACTORS
330
1A
102
}
330
1A
100
AcDbXrecord
280
     1
270
     1
271
     1
  0
XRECORD
  5
1F
102
{ACAD_REACTORS
330
1A
102
}
330
1A
100
AcDbXrecord
280
     1
270
     1
271
     1
  0
XRECORD
  5
1E
102
{ACAD_REACTORS
330
1A
102
}
330
1A
100
AcDbXrecord
280
     1
270
     1
271
     1
  0
XRECORD
  5
20
102
{ACAD_REACTORS
330
1A
102
}
330
1A
100
AcDbXrecord
280
     1
270
     1
271
     1
  0
XRECORD
  5
1D
102
{ACAD_REACTORS
330
1A
102
}
330
1A
100
AcDbXrecord
280
     1
270
     1
271
     1
  0
XRECORD
  5
14
102
{ACAD_REACTORS
330
12
102
}
330
12
100
AcDbXrecord
280
     1
270
     1
271
     1
  0
XRECORD
  5
13
102
{ACAD_REACTORS
330
12
102
}
330
12
100
AcDbXrecord
280
     1
270
     1
271
     1
  0
XRECORD
  5
17
102
{ACAD_REACTORS
330
12
102
}
330
12
100
AcDbXrecord
280
     1
270
     1
271
     1
  0
XRECORD
  5
16
102
{ACAD_REACTORS
330
12
102
}
330
12
100
AcDbXrecord
280
     1
270
     1
271
     1
  0
XRECORD
  5
18
102
{ACAD_REACTORS
330
12
102
}
330
12
100
AcDbXrecord
280
     1
270
     1
271
     1
  0
XRECORD
  5
15
102
{ACAD_REACTORS
330
12
102
}
330
12
100
AcDbXrecord
280
     1
270
     1
271
     1
  0
XRECORD
  5
24
102
{ACAD_REACTORS
330
22
102
}
330
22
100
AcDbXrecord
280
     1
270
     1
271
     1
  0
XRECORD
  5
23
102
{ACAD_REACTORS
330
22
102
}
330
22
100
AcDbXrecord
280
     1
270
     1
271
     1
  0
XRECORD
  5
27
102
{ACAD_REACTORS
330
22
102
}
330
22
100
AcDbXrecord
280
     1
270
     1
271
     1
  0
XRECORD
  5
26
102
{ACAD_REACTORS
330
22
102
}
330
22
100
AcDbXrecord
280
     1
270
     1
271
     1
  0
XRECORD
  5
28
102
{ACAD_REACTORS
330
22
102
}
330
22
100
AcDbXrecord
280
     1
270
     1
271
     1
  0
XRECORD
  5
25
102
{ACAD_REACTORS
330
22
102
}
330
22
100
AcDbXrecord
280
     1
270
     1
271
     1
  0
CELLSTYLEMAP
  5
B2
102
{ACAD_REACTORS
330
B1
102
}
330
B1
100
AcDbCellStyleMap
 90
        3
300
CELLSTYLE
  1
TABLEFORMAT_BEGIN
 90
        5
170
     1
 91
        0
 92
    32768
 62
   257
 93
        1
300
CONTENTFORMAT
  1
CONTENTFORMAT_BEGIN
 90
        0
 91
        0
 92
      512
 93
        0
300

 40
0.0
140
1.0
 94
        5
 62
     0
340
55
144
0.25
309
CONTENTFORMAT_END
171
     0
 94
        0
309
TABLEFORMAT_END
  1
CELLSTYLE_BEGIN
 90
        1
 91
        1
300
_TITLE
309
CELLSTYLE_END
300
CELLSTYLE
  1
TABLEFORMAT_BEGIN
 90
        5
170
     1
 91
        0
 92
        0
 62
   257
 93
        1
300
CONTENTFORMAT
  1
CONTENTFORMAT_BEGIN
 90
        0
 91
        0
 92
      512
 93
        0
300

 40
0.0
140
1.0
 94
        5
 62
     0
340
55
144
0.18
309
CONTENTFORMAT_END
171
     0
 94
        0
309
TABLEFORMAT_END
  1
CELLSTYLE_BEGIN
 90
        2
 91
        1
300
_HEADER
309
CELLSTYLE_END
300
CELLSTYLE
  1
TABLEFORMAT_BEGIN
 90
        5
170
     1
 91
        0
 92
        0
 62
   257
 93
        1
300
CONTENTFORMAT
  1
CONTENTFORMAT_BEGIN
 90
        0
 91
        0
 92
      512
 93
        0
300

 40
0.0
140
1.0
 94
        2
 62
     0
340
55
144
0.18
309
CONTENTFORMAT_END
171
     0
 94
        0
309
TABLEFORMAT_END
  1
CELLSTYLE_BEGIN
 90
        3
 91
        2
300
_DATA
309
CELLSTYLE_END
  0
ENDSEC
  0
EOF
