<?xml version="1.0" encoding="UTF-8" standalone="no"?>
<!-- Created with Inkscape (http://www.inkscape.org/) -->

<svg
   width="400mm"
   height="300mm"
   viewBox="0 0 400 300"
   version="1.1"
   id="svg1789"
   inkscape:version="1.2.2 (b0a8486541, 2022-12-01)"
   sodipodi:docname="Name Plate.svg"
   xmlns:inkscape="http://www.inkscape.org/namespaces/inkscape"
   xmlns:sodipodi="http://sodipodi.sourceforge.net/DTD/sodipodi-0.dtd"
   xmlns="http://www.w3.org/2000/svg"
   xmlns:svg="http://www.w3.org/2000/svg">
  <sodipodi:namedview
     id="namedview1791"
     pagecolor="#ffffff"
     bordercolor="#666666"
     borderopacity="1.0"
     inkscape:showpageshadow="2"
     inkscape:pageopacity="0.0"
     inkscape:pagecheckerboard="0"
     inkscape:deskcolor="#d1d1d1"
     inkscape:document-units="mm"
     showgrid="false"
     inkscape:zoom="0.5223252"
     inkscape:cx="1237.7347"
     inkscape:cy="516.91934"
     inkscape:window-width="1536"
     inkscape:window-height="841"
     inkscape:window-x="0"
     inkscape:window-y="0"
     inkscape:window-maximized="1"
     inkscape:current-layer="layer1" />
  <defs
     id="defs1786">
    <rect
       x="66.089622"
       y="208.7953"
       width="376.89264"
       height="67.564095"
       id="rect1240" />
    <rect
       x="95.581604"
       y="277.63898"
       width="347.47504"
       height="55.175976"
       id="rect1234" />
    <rect
       x="66.089622"
       y="208.7953"
       width="376.89264"
       height="67.564095"
       id="rect1240-9" />
  </defs>
  <g
     inkscape:label="Layer 1"
     inkscape:groupmode="layer"
     id="layer1"
     transform="translate(-7.6742708,-5.5570884)">
    <path
       id="rect1910"
       style="vector-effect:non-scaling-stroke;fill:none;stroke:#ff0000;stroke-width:0.189853;stroke-opacity:1;-inkscape-stroke:hairline"
       d="m 62.701113,32.901582 -24.97522,33.80414 0.0078,0.01033 V 123.1819 H 137.63349 V 66.706232 h -0.008 l 5.2e-4,-5.1e-4 -24.9747,-33.80414 z" />
    <rect
       style="vector-effect:non-scaling-stroke;fill:none;stroke:#800080;stroke-width:0.219974;stroke-opacity:1;-inkscape-stroke:hairline"
       id="rect1910-2"
       width="99.900002"
       height="75.81778"
       x="275.19406"
       y="217.98112"
       ry="0" />
    <path
       sodipodi:type="star"
       style="vector-effect:non-scaling-stroke;fill:none;stroke:#800080;stroke-width:0.264583;stroke-opacity:1;-inkscape-stroke:hairline"
       id="path2038-9"
       inkscape:flatsided="true"
       sodipodi:sides="6"
       sodipodi:cx="33.766937"
       sodipodi:cy="16.586002"
       sodipodi:r1="33.664902"
       sodipodi:r2="29.154659"
       sodipodi:arg1="0"
       sodipodi:arg2="0.52359878"
       inkscape:rounded="0"
       inkscape:randomized="0"
       d="m 67.431839,16.586002 -16.832451,29.15466 -33.664902,0 -16.83245048,-29.15466 16.83245048,-29.15466 33.664902,0 z"
       transform="matrix(1.4837411,0,0,1.1594847,275.035,198.74964)" />
    <path
       id="rect1910-2-1"
       style="vector-effect:non-scaling-stroke;fill:none;stroke:#ff0000;stroke-width:0.219974;stroke-opacity:1;-inkscape-stroke:hairline"
       d="m 62.675096,164.45503 -24.97521,33.80466 0.008,0.0103 v 75.80726 h 99.899834 v -75.81759 h -0.008 l -24.97469,-33.80463 z" />
    <text
       xml:space="preserve"
       style="font-style:normal;font-weight:normal;font-size:10.5833px;line-height:1.25;font-family:sans-serif;fill:#800080;fill-opacity:1;stroke:none;stroke-width:0.264583"
       x="157.33096"
       y="182.9221"
       id="text535"><tspan
         sodipodi:role="line"
         id="tspan533"
         style="fill:#800080;stroke-width:0.264583"
         x="157.33096"
         y="182.9221">1. Add Name</tspan><tspan
         sodipodi:role="line"
         style="fill:#800080;stroke-width:0.264583"
         x="157.33096"
         y="196.15123"
         id="tspan537">2. Add icon (optional)</tspan><tspan
         sodipodi:role="line"
         style="fill:#800080;stroke-width:0.264583"
         x="157.33096"
         y="209.38036"
         id="tspan1519">3. Change font</tspan><tspan
         sodipodi:role="line"
         style="fill:#800080;stroke-width:0.264583"
         x="157.33096"
         y="222.60948"
         id="tspan539">4. Object to Path</tspan><tspan
         sodipodi:role="line"
         style="fill:#800080;stroke-width:0.264583"
         x="157.33096"
         y="235.83861"
         id="tspan1521">5. Reverse</tspan><tspan
         sodipodi:role="line"
         style="fill:#800080;stroke-width:0.264583"
         x="157.33096"
         y="249.06773"
         id="tspan1095" /><tspan
         sodipodi:role="line"
         style="fill:#800080;stroke-width:0.264583"
         x="157.33096"
         y="262.29684"
         id="tspan1097">Red = CUT</tspan><tspan
         sodipodi:role="line"
         style="fill:#800080;stroke-width:0.264583"
         x="157.33096"
         y="275.52597"
         id="tspan1099">Black = Engrave</tspan><tspan
         sodipodi:role="line"
         style="fill:#800080;stroke-width:0.264583"
         x="157.33096"
         y="288.7551"
         id="tspan1101">Purple = Instructions </tspan></text>
    <text
       xml:space="preserve"
       style="font-style:normal;font-weight:normal;font-size:10.5833px;line-height:1.25;font-family:sans-serif;fill:#800080;fill-opacity:1;stroke:none;stroke-width:0.264583"
       x="41.733337"
       y="286.87527"
       id="text535-3"><tspan
         sodipodi:role="line"
         style="fill:#800080;stroke-width:0.264583"
         x="41.733337"
         y="286.87527"
         id="tspan1101-2">3mm Black Acrylic</tspan></text>
    <text
       xml:space="preserve"
       style="font-style:normal;font-weight:normal;font-size:10.5833px;line-height:1.25;font-family:sans-serif;fill:#800080;fill-opacity:1;stroke:none;stroke-width:0.264583"
       x="27.458384"
       y="137.85036"
       id="text535-3-9"><tspan
         sodipodi:role="line"
         style="fill:#800080;stroke-width:0.264583"
         x="27.458384"
         y="137.85036"
         id="tspan1101-2-1">3mm Transparent Acrylic</tspan></text>
    <text
       xml:space="preserve"
       style="font-style:normal;font-weight:normal;font-size:10.5833px;line-height:1.25;font-family:sans-serif;fill:#800080;fill-opacity:1;stroke:none;stroke-width:0.264583"
       x="278.83344"
       y="130.76103"
       id="text535-3-9-3"><tspan
         sodipodi:role="line"
         style="fill:#800080;stroke-width:0.264583"
         x="278.83344"
         y="130.76103"
         id="tspan1101-2-1-6">3mm Laser Rubber</tspan></text>
    <text
       xml:space="preserve"
       style="font-style:normal;font-weight:normal;font-size:10.5833px;line-height:1.25;font-family:sans-serif;fill:#800080;fill-opacity:1;stroke:none;stroke-width:0.264583"
       x="62.021152"
       y="27.663921"
       id="text535-3-9-7"><tspan
         sodipodi:role="line"
         style="fill:#800080;stroke-width:0.264583"
         x="62.021152"
         y="27.663921"
         id="tspan1101-2-1-9">Template</tspan></text>
    <text
       xml:space="preserve"
       style="font-style:normal;font-weight:normal;font-size:10.5833px;line-height:1.25;font-family:sans-serif;fill:#800080;fill-opacity:1;stroke:none;stroke-width:0.264583"
       x="175.88464"
       y="25.0396"
       id="text535-3-9-7-2"><tspan
         sodipodi:role="line"
         style="fill:#800080;stroke-width:0.264583"
         x="175.88464"
         y="25.0396"
         id="tspan1101-2-1-9-0">Example</tspan></text>
    <text
       xml:space="preserve"
       transform="matrix(0.26458333,0,0,0.26458333,19.731194,5.0891974)"
       id="text1232"
       style="font-style:normal;font-weight:normal;font-size:40px;line-height:1.25;font-family:sans-serif;white-space:pre;shape-inside:url(#rect1234);display:inline;fill:#000000;fill-opacity:1;stroke:none" />
    <text
       xml:space="preserve"
       transform="matrix(0.26458333,0,0,0.26458333,20.471366,11.821856)"
       id="text1238"
       style="font-style:normal;font-weight:normal;font-size:40px;line-height:1.25;font-family:sans-serif;white-space:pre;shape-inside:url(#rect1240);display:inline;fill:#000000;fill-opacity:1;stroke:none"
       x="103.87996"
       y="0"><tspan
         x="147.69619"
         y="245.18993"
         id="tspan1534"><tspan
           style="text-align:center;text-anchor:middle;fill:#800080"
           id="tspan1532">Name Here</tspan></tspan></text>
    <path
       id="rect1910-3"
       style="vector-effect:non-scaling-stroke;fill:none;stroke:#ff0000;stroke-width:0.189853;stroke-opacity:1;-inkscape-stroke:hairline"
       d="m 172.10469,30.985768 -24.97522,33.80414 0.008,0.01033 v 56.465842 h 99.89959 V 64.790418 h -0.008 l 5.2e-4,-5.1e-4 -24.9747,-33.80414 z" />
    <g
       aria-label="Etienne"
       transform="matrix(0.26458333,0,0,0.26458333,129.87494,9.9060407)"
       id="text1238-6"
       style="font-size:40px;line-height:1.25;white-space:pre;shape-inside:url(#rect1240-9);display:inline">
      <path
         d="m 302.09611,217.94304 q 0.16,1.4 0.24,2.72 0.04,1.32 0.04,2 0,0.72 -0.04,1.4 -0.04,0.64 -0.08,1.08 h 0.92 q 0.24,-2.36 0.68,-3.72 0.44,-1.4 1.52,-1.96 1.04,-0.6 3.16,-0.6 h 3.32 q 1.36,0 2.08,0.24 0.68,0.2 0.92,0.92 0.24,0.68 0.24,2.16 v 19.84 q 0,1.44 -0.24,2.16 -0.24,0.72 -0.92,0.96 -0.72,0.2 -2.08,0.2 h -2.92 q -2.52,0 -3.8,-0.68 -1.32,-0.68 -1.88,-2.2 -0.6,-1.56 -0.88,-4.2 h -0.92 q 0.12,1.08 0.12,2.88 0,0.76 -0.04,2.2 -0.08,1.4 -0.24,2.92 2.04,-0.08 4.6,-0.08 2.56,-0.04 4.56,-0.04 0.88,0 2.28,0 1.36,0 2.96,0.04 1.6,0 3.24,0.04 1.64,0 3.12,0.04 v -0.8 q -1.36,-0.08 -2.04,-0.32 -0.72,-0.24 -0.96,-0.96 -0.24,-0.72 -0.24,-2.16 v -19.84 q 0,-1.48 0.24,-2.16 0.24,-0.72 0.96,-0.96 0.68,-0.28 2.04,-0.32 v -0.8 q -1.48,0.04 -3.12,0.08 -1.64,0 -3.24,0.04 -1.6,0 -2.96,0 -1.4,0 -2.28,0 -1.84,0 -4.16,0 -2.36,-0.04 -4.2,-0.12 z m 6.88,13.68 q 0,0 0,0.4 0,0.4 0,0.4 h 7.32 q 0,0 0,-0.4 0,-0.4 0,-0.4 z m -1.16,-5.28 q 0.16,2.28 0.16,3.48 -0.04,1.2 -0.04,2.2 0,1 -0.04,2.2 -0.04,1.2 -0.2,3.48 h 0.92 q 0.16,-1.28 0.4,-2.48 0.2,-1.24 0.96,-2 0.72,-0.8 2.48,-0.8 v -0.8 q -1.32,0 -2,-0.52 -0.72,-0.56 -1.04,-1.4 -0.32,-0.84 -0.44,-1.72 -0.12,-0.92 -0.24,-1.64 z"
         style="font-family:'Playfair Display';-inkscape-font-specification:'Playfair Display';text-align:center;text-anchor:middle"
         id="path1523" />
      <path
         d="m 291.77613,219.02304 v 6.68 h -5.92 v 0.8 h 5.92 v 15.48 q 0,1.88 -0.68,2.64 -0.68,0.76 -1.88,0.76 -1.2,0 -2.08,-0.96 -0.88,-1 -1.52,-3.32 l -0.8,0.2 q 0.4,2.32 1.6,3.92 1.16,1.6 3.6,1.6 1.36,0 2.24,-0.36 0.88,-0.32 1.56,-0.96 0.88,-0.92 1.24,-2.2 0.32,-1.28 0.32,-3.4 v -13.4 h 3.84 v -0.8 h -3.84 v -6.12 q -1,-0.04 -1.92,-0.16 -0.92,-0.12 -1.68,-0.4 z"
         style="font-family:'Playfair Display';-inkscape-font-specification:'Playfair Display';text-align:center;text-anchor:middle"
         id="path1525" />
      <path
         d="m 279.49613,215.66304 q -1.04,0 -1.8,0.76 -0.76,0.76 -0.76,1.8 0,1.04 0.76,1.8 0.76,0.76 1.8,0.76 1.04,0 1.8,-0.76 0.76,-0.76 0.76,-1.8 0,-1.04 -0.76,-1.8 -0.76,-0.76 -1.8,-0.76 z m -2.08,9.56 v 17.32 q 0,1.68 -0.68,2.28 -0.72,0.6 -2.36,0.6 v 0.84 q 0.68,-0.04 2.08,-0.08 1.36,-0.08 2.76,-0.08 1.36,0 2.76,0.08 1.4,0.04 2.08,0.08 v -0.84 q -1.64,0 -2.32,-0.6 -0.72,-0.6 -0.72,-2.28 v -12.52 q 0,-1.8 0.64,-2.64 0.64,-0.88 2.4,-0.88 v -0.84 q -1.28,0.12 -2.48,0.12 -1.16,0 -2.2,-0.12 -1.08,-0.16 -1.96,-0.44 z"
         style="font-family:'Playfair Display';-inkscape-font-specification:'Playfair Display';text-align:center;text-anchor:middle"
         id="path1527" />
      <path
         d="m 262.61616,225.10304 q -3.52,0 -5.48,2.16 -2,2.12 -2,6.64 h 14.12 l 0.04,-0.76 h -10.32 q -0.08,-1.96 0.32,-3.6 0.4,-1.68 1.28,-2.68 0.84,-1 2.2,-1 1.84,0 3.28,1.84 1.4,1.84 1.68,5.84 l -0.12,0.16 q 0.08,0.6 0.12,1.32 0.04,0.72 0.04,1.44 0,2.72 -0.88,4.68 -0.88,1.96 -2.28,3 -1.44,1 -2.96,1 -1.2,0 -2.28,-0.36 -1.08,-0.4 -2,-1.28 -0.92,-0.88 -1.6,-2.36 l -0.8,0.32 q 0.44,1.32 1.44,2.56 1,1.24 2.52,2.04 1.52,0.76 3.52,0.76 2.88,0 4.96,-1.32 2.04,-1.32 3.16,-3.64 1.08,-2.36 1.08,-5.4 0,-3.52 -1.12,-6.04 -1.12,-2.56 -3.16,-3.92 -2.04,-1.4 -4.76,-1.4 z"
         style="font-family:'Playfair Display';-inkscape-font-specification:'Playfair Display';text-align:center;text-anchor:middle"
         id="path1529" />
      <path
         d="m 238.65614,225.10304 q -1.52,0 -2.52,0.4 -1.04,0.4 -1.72,1.12 -0.76,0.8 -1.08,2 -0.32,1.2 -0.32,3.24 v 10.68 q 0,1.68 -0.68,2.28 -0.72,0.6 -2.36,0.6 v 0.84 q 0.68,-0.04 2.08,-0.08 1.4,-0.08 2.72,-0.08 1.32,0 2.6,0.08 1.24,0.04 1.88,0.08 v -0.84 q -1.44,0 -2.04,-0.6 -0.6,-0.6 -0.6,-2.28 v -11.56 q 0,-1.24 0.2,-2.28 0.2,-1.04 0.92,-1.68 0.68,-0.64 2.12,-0.64 1.68,0 2.96,0.96 1.24,0.96 1.96,2.64 0.68,1.64 0.68,3.68 v 8.88 q 0,1.68 -0.6,2.28 -0.6,0.6 -2.04,0.6 v 0.84 q 0.64,-0.04 1.92,-0.08 1.24,-0.08 2.56,-0.08 1.32,0 2.72,0.08 1.4,0.04 2.08,0.08 v -0.84 q -1.64,0 -2.32,-0.6 -0.72,-0.6 -0.72,-2.28 v -12.52 q 0,-1.8 0.64,-2.64 0.64,-0.88 2.4,-0.88 v -0.84 q -1.28,0.12 -2.48,0.12 -1.16,0 -2.2,-0.12 -1.08,-0.16 -1.96,-0.44 v 4.72 q -1.04,-2.72 -2.88,-3.76 -1.88,-1.08 -3.92,-1.08 z"
         style="font-family:'Playfair Display';-inkscape-font-specification:'Playfair Display';text-align:center;text-anchor:middle"
         id="path1531" />
      <path
         d="m 214.77613,225.10304 q -1.52,0 -2.52,0.4 -1.04,0.4 -1.72,1.12 -0.76,0.8 -1.08,2 -0.32,1.2 -0.32,3.24 v 10.68 q 0,1.68 -0.68,2.28 -0.72,0.6 -2.36,0.6 v 0.84 q 0.68,-0.04 2.08,-0.08 1.4,-0.08 2.72,-0.08 1.32,0 2.6,0.08 1.24,0.04 1.88,0.08 v -0.84 q -1.44,0 -2.04,-0.6 -0.6,-0.6 -0.6,-2.28 v -11.56 q 0,-1.24 0.2,-2.28 0.2,-1.04 0.92,-1.68 0.68,-0.64 2.12,-0.64 1.68,0 2.96,0.96 1.24,0.96 1.96,2.64 0.68,1.64 0.68,3.68 v 8.88 q 0,1.68 -0.6,2.28 -0.6,0.6 -2.04,0.6 v 0.84 q 0.64,-0.04 1.92,-0.08 1.24,-0.08 2.56,-0.08 1.32,0 2.72,0.08 1.4,0.04 2.08,0.08 v -0.84 q -1.64,0 -2.32,-0.6 -0.72,-0.6 -0.72,-2.28 v -12.52 q 0,-1.8 0.64,-2.64 0.64,-0.88 2.4,-0.88 v -0.84 q -1.28,0.12 -2.48,0.12 -1.16,0 -2.2,-0.12 -1.08,-0.16 -1.96,-0.44 v 4.72 q -1.04,-2.72 -2.88,-3.76 -1.88,-1.08 -3.92,-1.08 z"
         style="font-family:'Playfair Display';-inkscape-font-specification:'Playfair Display';text-align:center;text-anchor:middle"
         id="path1533" />
      <path
         d="m 194.61613,225.10304 q -3.52,0 -5.48,2.16 -2,2.12 -2,6.64 h 14.12 l 0.04,-0.76 h -10.32 q -0.08,-1.96 0.32,-3.6 0.4,-1.68 1.28,-2.68 0.84,-1 2.2,-1 1.84,0 3.28,1.84 1.4,1.84 1.68,5.84 l -0.12,0.16 q 0.08,0.6 0.12,1.32 0.04,0.72 0.04,1.44 0,2.72 -0.88,4.68 -0.88,1.96 -2.28,3 -1.44,1 -2.96,1 -1.2,0 -2.28,-0.36 -1.08,-0.4 -2,-1.28 -0.92,-0.88 -1.6,-2.36 l -0.8,0.32 q 0.44,1.32 1.44,2.56 1,1.24 2.52,2.04 1.52,0.76 3.52,0.76 2.88,0 4.96,-1.32 2.04,-1.32 3.16,-3.64 1.08,-2.36 1.08,-5.4 0,-3.52 -1.12,-6.04 -1.12,-2.56 -3.16,-3.92 -2.04,-1.4 -4.76,-1.4 z"
         style="font-family:'Playfair Display';-inkscape-font-specification:'Playfair Display';text-align:center;text-anchor:middle"
         id="path1535" />
    </g>
    <rect
       style="vector-effect:non-scaling-stroke;fill:none;stroke:#ff0000;stroke-width:0.258239;stroke-opacity:1;-inkscape-stroke:hairline"
       id="rect323"
       width="60"
       height="130"
       x="-119.47749"
       y="264.85016"
       transform="rotate(-90)" />
  </g>
</svg>
